<?xml version="1.0" encoding="UTF-8" standalone="no"?>
<svg width="1000" height="900" viewBox="0 0 1000 900" xmlns="http://www.w3.org/2000/svg" xmlns:xlink="http://www.w3.org/1999/xlink" preserveAspectRatio="xMinYMin meet">
<style>
.target {
	cursor: pointer;
	fill: #ffa726;
	stroke-width: 1;
	stroke: #888;
	fill-opacity: 0.05;
}
.section-title {
	opacity: 0.75;
	font-family: "Arial, Helvetica, sans-serif";
	font-size: 26px;
	fill: #000;
	stroke-width: 1;
}
.grid-head {
	opacity: 0.75;
	stroke-width: 2;
	stroke: #444;
}
.back-button {
	cursor: pointer;
	opacity: 0.75;
}
</style>
<!--
#fff3e0 orange lighten-5
#ffe0b2 orange lighten-4
#ffcc80 orange lighten-3
#ffb74d orange lighten-2
#ffa726 orange lighten-1
#ff9800 orange
-->
<defs>
	<radialGradient id="grad" cx="50%" cy="50%" r="75%"><!-- fx="50%" fy="50%">-->
		<stop offset="10%" style="stop-color:#fff3e0; stop-opacity:1" />
		<stop offset="50%" style="stop-color:#ffe0b2; stop-opacity:1" />
		<stop offset="90%" style="stop-color:#ffcc80; stop-opacity:1" />
	</radialGradient>
</defs>
<rect x="0" y="0" width="1000" height="900" fill="url(#grad)" stroke-width="0" stroke="#000" />

<text x="220" y="90" opacity="0.75" font-family="Arial, Helvetica, sans-serif" font-size="100px" fill="#444">Making City</text>
<path class="grid-head" d="M0 19 H228" />
<path class="grid-head" d="M538 92 H1000" />
<text x="540" y="140" opacity="0.75" font-family="Arial, Helvetica, sans-serif" font-size="30px" fill="#444">Sivakka 3 - Hiirihaukantie</text>

<g>
	<path id="main-pipe" d="M 180,470 L 640,470"
	style="opacity:0.5;stroke:#0a0;stroke-width:15px;stroke-dasharray:30px 10px;fill:none;">
		<animate attributeName="stroke-dashoffset" from="40" to="0" dur="1s" repeatCount="indefinite" />
	</path>
	<!--
	<path id="solar-pipe-1" d="M 300,320 L 300,470"
	style="opacity:0.5;stroke:#0a0;stroke-width:15px;stroke-dasharray:30px 10px;fill:none;">
		<animate attributeName="stroke-dashoffset" from="40" to="0" dur="1s" repeatCount="indefinite" />
	</path>
	-->
	<path id="solar-pipe-2" d="M 300,320 L 300,420 A 20,20 0 0,0 320,440 L 640,440"
	style="opacity:0.5;stroke:#0a0;stroke-width:15px;stroke-dasharray:30px 10px;fill:none;">
		<animate attributeName="stroke-dashoffset" from="40" to="0" dur="1s" repeatCount="indefinite" />
	</path>
	<path id="sub-pipe-1" d="M 300,470 L 300,570"
	style="opacity:0.5;stroke:#0a0;stroke-width:15px;stroke-dasharray:30px 10px;fill:none;">
		<animate attributeName="stroke-dashoffset" from="40" to="0" dur="1s" repeatCount="indefinite" />
	</path>
	<path id="apartment-pipe" d="M 300,570 L 220,570 A 20,20 0 0,0 200,590 L 200,640"
	style="opacity:0.5;stroke:#0a0;stroke-width:15px;stroke-dasharray:30px 10px;fill:none;">
		<animate attributeName="stroke-dashoffset" from="40" to="0" dur="1s" repeatCount="indefinite" />
	</path>
	<path id="other-pipe" d="M 300,570 L 420,570 A 20,20 0 0,1 440,590 L 440,640"
	style="opacity:0.5;stroke:#0a0;stroke-width:15px;stroke-dasharray:30px 10px;fill:none;">
		<animate attributeName="stroke-dashoffset" from="40" to="0" dur="1s" repeatCount="indefinite" />
	</path>
	<path id="exthaus-pipe" d="M 700,320 L 700,410" 
	style="opacity:0.5;stroke:#f00;stroke-width:15px;stroke-dasharray:30px 10px;fill:none;">
		<animate attributeName="stroke-dashoffset" from="40" to="0" dur="1s" repeatCount="indefinite" />
	</path>
	<!--
	<path id="wastewater-pipe" d="M 860,320 L 860,350 A 20,20 0 0,1 840,370 L 750,370 A 20,20 0 0,0 730,390 L 730,410" 
	style="opacity:0.5;stroke:#f00;stroke-width:15px;stroke-dasharray:30px 10px;fill:none;">
		<animate attributeName="stroke-dashoffset" from="40" to="0" dur="1s" repeatCount="indefinite" />
	</path>-->
	<path id="heating-devices-pipe" d="M 670,530 L 670,640" 
	style="opacity:0.5;stroke:#f00;stroke-width:15px;stroke-dasharray:30px 10px;fill:none;">
		<animate attributeName="stroke-dashoffset" from="40" to="0" dur="1s" repeatCount="indefinite" />
	</path>
	<path id="hot-water-pipe" d="M 730,530 L 730,570 A 20,20 0 0,0 750,590 L 840,590 A 20,20 0 0,1 860,610 L 860,640" 
	style="opacity:0.5;stroke:#f00;stroke-width:15px;stroke-dasharray:30px 10px;fill:none;">
		<animate attributeName="stroke-dashoffset" from="40" to="0" dur="1s" repeatCount="indefinite" />
	</path>
	<path id="dh-input-pipe" d="M 840,440 L 760,440" 
	style="opacity:0.5;stroke:#f00;stroke-width:15px;stroke-dasharray:30px 10px;fill:none;">
		<animate attributeName="stroke-dashoffset" from="40" to="0" dur="1s" repeatCount="indefinite" />
	</path>
	<path id="cool-pipe" d="M 840,500 L 760,500" 
	style="opacity:0.5;stroke:#0ff;stroke-width:15px;stroke-dasharray:30px 10px;fill:none;">
		<animate attributeName="stroke-dashoffset" from="40" to="0" dur="1s" repeatCount="indefinite" />
	</path>
	
	<image x="70" y="400" width="100" height="150" xlink:href="powerline.svg" />
	<image x="250" y="220" width="110" height="100" xlink:href="solarpanel.svg" />
	
	<svg x="0" y="540" width="240px" height="40px">
		<!--<rect x="1" y="1" width="238" height="38" stroke="#fff" stroke-width="1" opacity="0.2" fill="#009688" />-->
		<text class="section-title" id="dd-grid-title" x="50%" y="50%" dominant-baseline="middle" text-anchor="middle">Grid</text>
	</svg>
	<svg x="170" y="330" width="240px" height="40px">
		<!--<rect x="1" y="1" width="238" height="38" stroke="#fff" stroke-width="1" opacity="0.2" fill="#009688" />-->
		<text class="section-title" id="dd-solar-title" x="50%" y="50%" dominant-baseline="middle" text-anchor="middle">Solar energy</text>
	</svg>
	<svg x="80" y="680" width="240px" height="40px">
		<text class="section-title" id="dd-apartments-title" x="50%" y="50%" dominant-baseline="middle" text-anchor="middle">Apartments</text>
	</svg>
	<svg x="320" y="650" width="240px" height="40px">
		<text class="section-title" id="dd-other-title-1" x="50%" y="50%" dominant-baseline="middle" text-anchor="middle">SAUNA,</text>
	</svg>
	<svg x="320" y="680" width="240px" height="40px">
		<text class="section-title" id="dd-other-title-2" x="50%" y="50%" dominant-baseline="middle" text-anchor="middle">lights,</text>
	</svg>
	<svg x="320" y="710" width="240px" height="40px">
		<text class="section-title" id="dd-other-title-3" x="50%" y="50%" dominant-baseline="middle" text-anchor="middle">etc.</text>
	</svg>
	<svg x="580" y="440" width="240px" height="40px">
		<text class="section-title" id="dd-heating-system-title-1" x="50%" y="50%" dominant-baseline="middle" text-anchor="middle">Heating</text>
	</svg>
	<svg x="580" y="470" width="240px" height="40px">
		<text class="section-title" id="dd-heating-system-title-2" x="50%" y="50%" dominant-baseline="middle" text-anchor="middle">system</text>
	</svg>
	<svg x="580" y="230" width="240px" height="40px">
		<text class="section-title" id="dd-exthaus-air-reco-title-1" x="50%" y="50%" dominant-baseline="middle" text-anchor="middle">Exthaus air</text>
	</svg>
	<svg x="580" y="260" width="240px" height="40px">
		<text class="section-title" id="dd-exthaus-air-reco-title-2" x="50%" y="50%" dominant-baseline="middle" text-anchor="middle">recovery</text>
	</svg>
	<svg x="780" y="420" width="240px" height="40px">
		<text class="section-title" id="dd-dhn-title-1" x="50%" y="50%" dominant-baseline="middle" text-anchor="middle">District</text>
	</svg>
	<svg x="780" y="450" width="240px" height="40px">
		<text class="section-title" id="dd-dhn-title-2" x="50%" y="50%" dominant-baseline="middle" text-anchor="middle">heating</text>
	</svg>
	<svg x="780" y="480" width="240px" height="40px">
		<text class="section-title" id="dd-dhn-title-3" x="50%" y="50%" dominant-baseline="middle" text-anchor="middle">network</text>
	</svg>
	<svg x="560" y="670" width="240px" height="40px">
		<text class="section-title" id="dd-heating-dev-title-1" x="50%" y="50%" dominant-baseline="middle" text-anchor="middle">Heating</text>
	</svg>
	<svg x="560" y="700" width="240px" height="40px">
		<text class="section-title" id="dd-heating-dev-title-2" x="50%" y="50%" dominant-baseline="middle" text-anchor="middle">devices</text>
	</svg>
	<svg x="740" y="670" width="240px" height="40px">
		<text class="section-title" id="dd-hot-water-title-1" x="50%" y="50%" dominant-baseline="middle" text-anchor="middle">Hot</text>
	</svg>
	<svg x="740" y="700" width="240px" height="40px">
		<text class="section-title" id="dd-hot-water-title-2" x="50%" y="50%" dominant-baseline="middle" text-anchor="middle">water</text>
	</svg>
	<rect class="target" id="target-d-a" x="-60" y="-60" width="120" height="120" transform="translate(120,470) scale(1.0)" /><!-- Grid: powerline -->
	<rect class="target" id="target-d-b" x="-60" y="-60" width="120" height="120" transform="translate(300,260) scale(1.0)" /><!-- Solarpanel -->
	<rect class="target" id="target-d-d" x="-60" y="-60" width="120" height="120" transform="translate(200,700) scale(1.0)" /><!-- Apartments -->
	<rect class="target" id="target-d-e" x="-60" y="-60" width="120" height="120" transform="translate(440,700) scale(1.0)" /><!-- Other: ventilation -->
	<rect class="target" id="target-d-f" x="-60" y="-60" width="120" height="120" transform="translate(700,470) scale(1.0)" /><!-- Heating system -->
	<rect class="target" id="target-d-g" x="-60" y="-60" width="120" height="120" transform="translate(700,260) scale(1.0)" /><!-- Exthaus air recovery -->
	<rect class="target" id="target-d-i" x="-60" y="-60" width="120" height="120" transform="translate(900,470) scale(1.0)" /><!-- District Heating Network -->
	<rect class="target" id="target-d-j" x="-60" y="-60" width="120" height="120" transform="translate(680,700) scale(1.0)" /><!-- Heating devices -->
	<rect class="target" id="target-d-k" x="-60" y="-60" width="120" height="120" transform="translate(860,700) scale(1.0)" /><!-- Hot water -->
</g>

<image id="back" class="back-button" x="80" y="25" width="105" height="70" xlink:href="backbutton.svg" />
</svg>
