<?xml version="1.0" encoding="UTF-8" standalone="no"?>
<svg width="400" height="400" viewBox="-200 -200 400 400" xmlns="http://www.w3.org/2000/svg" preserveAspectRatio="xMinYMin meet">
<style>
.chassis {
	stroke-width: 6;
	stroke: #000;
	fill: #fff;
}
.window {
	stroke-width: 5;
	stroke: #000;
	fill: #80cbc4;
}
</style>
<!--<rect x="-198" y="-198" width="398" height="398" fill="none" stroke-width="1" stroke="#000" />-->
<!-- A rx ry x-axis-rotation large-arc-flag sweep-flag x y -->
<g opacity="0.8">
	<circle cx="-100" cy="100" r="28" stroke-width="20" stroke="#000" fill="none" />
	<circle cx="80" cy="100" r="28" stroke-width="20" stroke="#000" fill="none" />
	<path class="chassis" d="M -145,100 L -180,100 L -160,20 L -110,20 L -90,-40 L 50,-40 L 100,20 
	L 170,30 L 180,100 L 125,100 A 40,40 0 1,0 35,100 L -55,100 A 40,40 0 1,0 -145,100 Z" />
	<path class="window" d="M -95,20 L -80,-30 L -20,-30 L -20,20 L -95,20 Z" />
	<path class="window" d="M 0,20 L 0,-30 L 45,-30 L 85,20 L 0,20 Z" />
</g>
</svg>
