<?xml version="1.0" encoding="UTF-8" standalone="no"?>
<svg width="400" height="400" viewBox="-200 -200 400 400" xmlns="http://www.w3.org/2000/svg" preserveAspectRatio="xMinYMin meet">
<style>
.chassis {
	stroke-width: 6;
	stroke: #000;
	fill: #fff;
}
.window {
	stroke-width: 5;
	stroke: #000;
	fill: #80cbc4;
}
</style>
<!--
<rect x="-198" y="-198" width="398" height="398" fill="none" stroke-width="1" stroke="#000" />
-->

<!-- Bus -->
<!-- A rx ry x-axis-rotation large-arc-flag sweep-flag x y -->

<path d="M-100,75 L-100,-90 A 200,200 0 0,1 100,-90 L100,75 L80,75 L80,100 L40,100 L40,75 L-40,75 L-40,100 L-80,100 L-80,75 L-100,75" style="stroke:#000;stroke-width:2;fill:#000;" />
<path d="M0,0 L-80,0 L-80,-70 L80,-70 L80,0 L0,0" style="stroke:#555;stroke-width:2;fill:#fff;" />
<circle cx="-60" cy="40" r="20" style="stroke-width:1;stroke:#000;fill:#fff;" />
<circle cx="60" cy="40" r="20" style="stroke-width:1;stroke:#000;fill:#fff;" />

<circle cx="0" cy="0" r="190" style="stroke-width:10;stroke:#555;fill:none;" />
<circle cx="0" cy="0" r="180" style="stroke-width:10;stroke:#aaa;opacity:0.75;fill:#fff;" />
<circle cx="0" cy="0" r="20" style="stroke-width:1;stroke:#000;fill:#555;" />

<!-- 
				180			160			120
sin(30) x 180 = 90.0		80.0		60
cos(30) x 180 = 155.88		138.56		
sin(60) x 180 = 155.88		138.56		
cos(60) x 180 = 90.0		80.0		

sin(45) x 180 = 127

-->
<!--
<circle cx="0" cy="160" r="10" style="stroke-width:1;stroke:#000;fill:#555;" />
<circle cx="80" cy="139" r="10" style="stroke-width:1;stroke:#000;fill:#555;" />
<circle cx="139" cy="80" r="10" style="stroke-width:1;stroke:#000;fill:#555;" />
<circle cx="160" cy="0" r="10" style="stroke-width:1;stroke:#000;fill:#555;" />
<circle cx="139" cy="-80" r="10" style="stroke-width:1;stroke:#000;fill:#555;" />
<circle cx="80" cy="-139" r="10" style="stroke-width:1;stroke:#000;fill:#555;" />
<circle cx="0" cy="-160" r="10" style="stroke-width:1;stroke:#000;fill:#555;" />
<circle cx="-80" cy="-139" r="10" style="stroke-width:1;stroke:#000;fill:#555;" />
<circle cx="-139" cy="-80" r="10" style="stroke-width:1;stroke:#000;fill:#555;" />
<circle cx="-160" cy="0" r="10" style="stroke-width:1;stroke:#000;fill:#555;" />
<circle cx="-139" cy="80" r="10" style="stroke-width:1;stroke:#000;fill:#555;" />
<circle cx="-80" cy="139" r="10" style="stroke-width:1;stroke:#000;fill:#555;" />
<path d="M0,0 L139,-80" style="stroke:#555;stroke-width:20;" />
<path d="M0,0 L-80,-69" style="stroke:#555;stroke-width:20;" />
-->
<path d="M-127,127 L127,-127" style="stroke:#e00;stroke-width:50;" />
<path d="M-127,-127 L127,127" style="stroke:#e00;stroke-width:50;" />


<!--
<path d="M0,0 L173,-100" style="stroke:#000;stroke-width:20;" />
<path d="M0,0 L-100,-100" style="stroke:#000;stroke-width:20;" />
-->


<!--
<circle cx="-100" cy="100" r="28" stroke-width="20" stroke="#000" fill="none" />
<circle cx="80" cy="100" r="28" stroke-width="20" stroke="#000" fill="none" />
<path class="chassis" d="M -145,100 L -180,100 L -160,20 L -110,20 L -90,-40 L 50,-40 L 100,20 L 170,30 L 180,100 L 125,100 A 40,40 0 1,0 35,100 L -55,100 A 40,40 0 1,0 -145,100 Z" />
<path class="window" d="M -95,20 L -80,-30 L -20,-30 L -20,20 L -95,20 Z" />
<path class="window" d="M 0,20 L 0,-30 L 45,-30 L 85,20 L 0,20 Z" />-->


<!-- A rx ry x-axis-rotation large-arc-flag sweep-flag x y -->
</svg>
