<?xml version="1.0" encoding="UTF-8" standalone="no"?>
<svg width="223px" height="86px" viewBox="0 0 223 86" version="1.1" xmlns="http://www.w3.org/2000/svg" xmlns:xlink="http://www.w3.org/1999/xlink" xmlns:sketch="http://www.bohemiancoding.com/sketch/ns">
    <!-- Generator: Sketch 3.4.4 (17249) - http://www.bohemiancoding.com/sketch -->
    <title>rwd</title>
    <desc>Created with Sketch.</desc>
    <defs>
        <path d="M36.569505,65.7835346 L60.5418027,65.7835346 L47.4745502,45.014733 C54.525226,40.9737444 58.7556315,33.7375556 58.7556315,24.3399078 C58.7556315,9.96150668 49.6367575,0 32.9031536,0 L0,0 L0,65.7835346 L20.5879733,65.7835346 L20.5879733,48.4918627 L26.5105409,48.4918627 L36.569505,65.7835346 Z M20.5879733,32.233932 L20.5879733,16.4458837 L30.5529284,16.4458837 C35.5354059,16.4458837 38.1676582,19.5471074 38.1676582,24.4338843 C38.1676582,28.9447552 35.4413969,32.233932 30.5529284,32.233932 L20.5879733,32.233932 Z M155.77293,0 L134.432885,0 L128.604326,36.4628735 L119.109416,0 L99.1795059,0 L89.6845959,36.4628735 L83.8560372,0 L62.5159919,0 L78.0274786,65.7835346 L98.5214428,65.7835346 L109.144461,25.1856961 L119.767479,65.7835346 L140.261443,65.7835346 L155.77293,0 Z M161.789507,0 L161.789507,65.7835346 L193.658561,65.7835346 C212.74239,65.7835346 221.29721,54.8822632 221.29721,38.0604736 L221.29721,27.723061 C221.29721,10.9012715 212.74239,0 193.658561,0 L161.789507,0 Z M182.283471,49.2436745 L182.283471,16.5398601 L190.9323,16.5398601 C197.888967,16.5398601 200.709237,20.5808487 200.709237,27.2531786 L200.709237,38.530356 C200.709237,45.202686 197.888967,49.2436745 190.9323,49.2436745 L182.283471,49.2436745 Z" id="path-1"></path>
        <linearGradient x1="50%" y1="0%" x2="50%" y2="100%" id="linearGradient-3">
            <stop stop-color="#BB984B" offset="0%"></stop>
            <stop stop-color="#AF7C3B" offset="100%"></stop>
        </linearGradient>
        <linearGradient x1="50%" y1="0%" x2="52.7845119%" y2="100%" id="linearGradient-4">
            <stop stop-color="#CF6229" offset="0%"></stop>
            <stop stop-color="#BF7836" offset="100%"></stop>
        </linearGradient>
        <linearGradient x1="42.0597219%" y1="30.2856693%" x2="69.5607274%" y2="90.0066409%" id="linearGradient-5">
            <stop stop-color="#CE6330" offset="0%"></stop>
            <stop stop-color="#CD8C4D" offset="100%"></stop>
        </linearGradient>
        <linearGradient x1="88.3593864%" y1="9.54819704%" x2="48.1506151%" y2="77.6194658%" id="linearGradient-6">
            <stop stop-color="#D0B55B" offset="0%"></stop>
            <stop stop-color="#CF8C42" offset="100%"></stop>
        </linearGradient>
        <linearGradient x1="15.2366365%" y1="0%" x2="50%" y2="96.4723937%" id="linearGradient-7">
            <stop stop-color="#CF632A" offset="0%"></stop>
            <stop stop-color="#CA7936" offset="100%"></stop>
        </linearGradient>
        <linearGradient x1="28.546879%" y1="14.9744329%" x2="86.7285665%" y2="82.5449063%" id="linearGradient-8">
            <stop stop-color="#D4682B" offset="0%"></stop>
            <stop stop-color="#CD7433" offset="100%"></stop>
        </linearGradient>
    </defs>
    <g id="Page-1" stroke="none" stroke-width="1" fill="none" fill-rule="evenodd" sketch:type="MSPage">
        <g id="Artboard-1" sketch:type="MSArtboardGroup" transform="translate(-512.000000, -43.000000)">
            <g id="rwd" sketch:type="MSLayerGroup" transform="translate(512.000000, 43.000000)">
                <g id="RWD">
                    <mask id="mask-2" sketch:name="Mask" fill="white">
                        <use xlink:href="#path-1"></use>
                    </mask>
                    <use id="Mask" fill="#404040" sketch:type="MSShapeGroup" xlink:href="#path-1"></use>
                    <g id="R-facets" mask="url(#mask-2)" sketch:type="MSShapeGroup">
                        <g transform="translate(-35.330579, -28.822314)">
                            <rect id="Rectangle-21" fill="url(#linearGradient-3)" x="24.3305785" y="29.822314" width="73" height="69"></rect>
                            <path d="M31.3305785,47.822314 L101.330579,61.822314 L100.330579,0.82231405 L0.330578512,7.82231405 L31.3305785,47.822314 Z" id="Path-1887" fill="#BB974A"></path>
                            <path d="M37.3305785,52.822314 L68.3305785,111.822314 L98.3305785,104.822314 L37.3305785,52.822314 Z" id="Path-1885" fill="#C39146"></path>
                            <path d="M35.3305785,51.822314 L84.3305785,25.822314 L23.3305785,21.822314 L35.3305785,51.822314 Z" id="Path-1886" fill="#C29B4C"></path>
                        </g>
                    </g>
                    <g id="W-facets" mask="url(#mask-2)" sketch:type="MSShapeGroup">
                        <g transform="translate(57.644628, -9.297521)">
                            <path d="M12.3553719,44.2975207 L49.3553719,77.2975207 L16.3553719,79.2975207 L12.3553719,44.2975207 Z" id="Path-1890" fill="#A46E34"></path>
                            <path d="M73.3553719,30.2975207 C73.3553719,29.5226325 78.3553719,2.29752066 78.3553719,2.29752066 L100.355372,7.29752066 L91.3553719,80.2975207 L78.3553719,76.2975207 C78.3553719,76.2975207 73.3553719,31.4868236 73.3553719,30.2975207 Z" id="Path-1893" fill="url(#linearGradient-4)"></path>
                            <path d="M72.3553719,26.2975207 L87.3553719,85.2975207 L55.3553719,84.2975207 L45.3553719,25.2975207 L50.3553719,4.29752066 L67.3553719,5.29752066 L72.3553719,26.2975207 Z" id="Path-1891" fill="url(#linearGradient-5)"></path>
                            <path d="M87.3553719,8.29752066 L96.3553719,30.2975207 L93.3553719,35.2975207 L74.3553719,6.29752066 L87.3553719,8.29752066 Z" id="Path-1892" fill="#9E4B1F"></path>
                            <path d="M46.3553719,7.29752066 L9.3553719,45.2975207 L0.355371901,1.29752066 L49.3553719,2.29752066 L46.3553719,7.29752066 Z" id="Path-1889" fill="#B48E45"></path>
                            <path d="M9.3553719,44.2975207 L53.3553719,0.297520661 L51.3553719,6.29752066 L52.3553719,80.2975207 L11.3553719,44.2975207 L9.3553719,44.2975207 Z" id="Path-1888" fill="url(#linearGradient-6)"></path>
                        </g>
                    </g>
                    <g id="D-facets" mask="url(#mask-2)" sketch:type="MSShapeGroup">
                        <g transform="translate(143.181818, -12.086777)">
                            <path d="M50.8181818,50.0867769 L43.8181818,92.0867769 L94.8181818,58.0867769 L51.8181818,48.0867769 L50.8181818,50.0867769 Z" id="Path-1897" fill="#E1853B"></path>
                            <path d="M47.8181818,84.0867769 L54.8181818,53.0867769 L34.8181818,51.0867769 L0.818181818,83.0867769 L47.8181818,84.0867769 Z" id="Path-1896" fill="#AE682F"></path>
                            <path d="M16.8181818,73.0867769 L45.8181818,56.0867769 L41.8181818,33.0867769 L15.8181818,10.0867769 L16.8181818,73.0867769 Z" id="Path-1894" fill="url(#linearGradient-7)"></path>
                            <path d="M14.8181818,9.08677686 L56.8181818,51.0867769 L83.8181818,69.0867769 L78.8181818,0.0867768595 L14.8181818,9.08677686 Z" id="Path-1895" fill="url(#linearGradient-8)"></path>
                        </g>
                    </g>
                </g>
                <path d="M8.21603135,85.1526199 L9.20635656,85.1526199 L6.32707772,80.0635709 C8.16101329,79.5893226 9.24303527,78.0936165 9.24303527,76.3060653 C9.24303527,74.2084286 7.73920811,72.3843967 5.09834088,72.3843967 L0,72.3843967 L0,85.1526199 L0.898628429,85.1526199 L0.898628429,80.2094935 L5.06166217,80.2094935 L5.465128,80.2094935 L8.21603135,85.1526199 Z M0.898628429,79.4798807 L0.898628429,73.1140095 L4.95162604,73.1140095 C7.20736679,73.1140095 8.34440684,74.573235 8.34440684,76.3060653 C8.34440684,78.0388955 7.22570615,79.4798807 4.93328668,79.4798807 L0.898628429,79.4798807 Z M12.2140109,85.1526199 L20.466721,85.1526199 L20.466721,84.4047668 L13.1126393,84.4047668 L13.1126393,79.0603534 L19.9165403,79.0603534 L19.9165403,78.29426 L13.1126393,78.29426 L13.1126393,73.1322498 L20.4483816,73.1322498 L20.4483816,72.3843967 L12.2140109,72.3843967 L12.2140109,85.1526199 Z M27.582391,85.4079843 C30.1682401,85.4079843 32.2589267,84.0764411 32.2589267,81.7599206 C32.2589267,80.1730128 31.2319228,79.151555 29.6363988,78.7320277 L25.8034735,77.7288101 C24.5747366,77.4004844 23.9878773,76.7255926 23.9878773,75.4852509 C23.9878773,73.8436222 25.3083109,72.858645 27.3806581,72.858645 C29.544702,72.858645 30.9201537,74.0442657 30.9201537,75.7406154 L30.9201537,76.0142202 L31.7454247,76.0142202 L31.7454247,75.7223751 C31.7454247,73.6064981 29.9481679,72.1290323 27.3806581,72.1290323 C24.8314876,72.1290323 23.1259275,73.4240949 23.1259275,75.5399719 C23.1259275,77.0721587 24.0062166,78.0753762 25.5467225,78.4766632 L29.3429691,79.4616404 C30.6817421,79.8082065 31.396977,80.6290208 31.396977,81.8146415 C31.396977,83.6386734 29.7831137,84.6783716 27.582391,84.6783716 C25.3449896,84.6783716 23.767805,83.4927509 23.767805,81.6322384 L23.767805,81.3586336 L22.9058553,81.3586336 L22.9058553,81.6504787 C22.9058553,83.9122782 24.904845,85.4079843 27.582391,85.4079843 L27.582391,85.4079843 Z M35.266581,85.1526199 L36.1652094,85.1526199 L36.1652094,80.2824548 L40.1448496,80.2824548 C42.7490381,80.2824548 44.3262227,78.5313842 44.3262227,76.3243056 C44.3262227,74.117227 42.7490381,72.3843967 40.1448496,72.3843967 L35.266581,72.3843967 L35.266581,85.1526199 Z M36.1652094,79.5346017 L36.1652094,73.1322498 L40.0531528,73.1322498 C42.3639117,73.1322498 43.4275943,74.6279559 43.4275943,76.3243056 C43.4275943,78.0206552 42.3639117,79.5346017 40.0531528,79.5346017 L36.1652094,79.5346017 Z M56.8886814,77.6740892 C56.8886814,74.6644366 55.2014607,72.1290323 51.661965,72.1290323 C48.1224694,72.1290323 46.4352486,74.6644366 46.4352486,77.6740892 L46.4352486,79.8629274 C46.4352486,82.87258 48.1224694,85.4079843 51.661965,85.4079843 C55.2014607,85.4079843 56.8886814,82.87258 56.8886814,79.8629274 L56.8886814,77.6740892 Z M56.0083923,79.8994081 C56.0083923,82.4530527 54.6696193,84.6783716 51.661965,84.6783716 C48.6543107,84.6783716 47.3155377,82.4530527 47.3155377,79.8994081 L47.3155377,77.6376085 C47.3155377,75.0839639 48.6543107,72.858645 51.661965,72.858645 C54.6696193,72.858645 56.0083923,75.0839639 56.0083923,77.6376085 L56.0083923,79.8994081 Z M60.0797293,85.1526199 L60.941679,85.1526199 L60.941679,73.8436222 L68.625869,85.1526199 L69.4694794,85.1526199 L69.4694794,72.3843967 L68.6075297,72.3843967 L68.6075297,83.7116347 L60.9233396,72.3843967 L60.0797293,72.3843967 L60.0797293,85.1526199 Z M77.3003843,85.4079843 C79.8862334,85.4079843 81.97692,84.0764411 81.97692,81.7599206 C81.97692,80.1730128 80.9499161,79.151555 79.3543921,78.7320277 L75.5214668,77.7288101 C74.2927299,77.4004844 73.7058706,76.7255926 73.7058706,75.4852509 C73.7058706,73.8436222 75.0263042,72.858645 77.0986514,72.858645 C79.2626953,72.858645 80.638147,74.0442657 80.638147,75.7406154 L80.638147,76.0142202 L81.463418,76.0142202 L81.463418,75.7223751 C81.463418,73.6064981 79.6661612,72.1290323 77.0986514,72.1290323 C74.5494809,72.1290323 72.8439208,73.4240949 72.8439208,75.5399719 C72.8439208,77.0721587 73.7242099,78.0753762 75.2647158,78.4766632 L79.0609624,79.4616404 C80.3997354,79.8082065 81.1149703,80.6290208 81.1149703,81.8146415 C81.1149703,83.6386734 79.501107,84.6783716 77.3003843,84.6783716 C75.0629829,84.6783716 73.4857983,83.4927509 73.4857983,81.6322384 L73.4857983,81.3586336 L72.6238486,81.3586336 L72.6238486,81.6504787 C72.6238486,83.9122782 74.6228383,85.4079843 77.3003843,85.4079843 L77.3003843,85.4079843 Z M85.0762711,85.1526199 L85.9748995,85.1526199 L85.9748995,72.3843967 L85.0762711,72.3843967 L85.0762711,85.1526199 Z M98.5190188,72.3843967 L97.6387297,72.3843967 L93.4390173,84.3135652 L89.2393048,72.3843967 L88.3590158,72.3843967 L92.907176,85.1526199 L93.9708586,85.1526199 L98.5190188,72.3843967 Z M100.811438,85.1526199 L109.064148,85.1526199 L109.064148,84.4047668 L101.710067,84.4047668 L101.710067,79.0603534 L108.513968,79.0603534 L108.513968,78.29426 L101.710067,78.29426 L101.710067,73.1322498 L109.045809,73.1322498 L109.045809,72.3843967 L100.811438,72.3843967 L100.811438,85.1526199 Z M129.80596,72.3843967 L128.925671,72.3843967 L126.266464,83.9852395 L122.726968,72.3843967 L121.736643,72.3843967 L118.197147,83.9852395 L115.537941,72.3843967 L114.657652,72.3843967 L117.701985,85.1526199 L118.637292,85.1526199 L122.231806,73.3328933 L125.826319,85.1526199 L126.761627,85.1526199 L129.80596,72.3843967 Z M132.281773,85.1526199 L140.534483,85.1526199 L140.534483,84.4047668 L133.180401,84.4047668 L133.180401,79.0603534 L139.984302,79.0603534 L139.984302,78.29426 L133.180401,78.29426 L133.180401,73.1322498 L140.516143,73.1322498 L140.516143,72.3843967 L132.281773,72.3843967 L132.281773,85.1526199 Z M143.377083,85.1526199 L148.548781,85.1526199 C151.116291,85.1526199 152.620118,83.7481153 152.620118,81.7234399 C152.620118,79.954129 151.538096,78.9509115 149.850875,78.5313842 C151.13463,77.9841746 151.868205,76.9079958 151.868205,75.5582122 C151.868205,73.8071416 150.58445,72.3843967 148.438745,72.3843967 L143.377083,72.3843967 L143.377083,85.1526199 Z M144.239033,84.4412474 L144.239033,78.9691518 L148.475424,78.9691518 C150.437735,78.9691518 151.739829,80.1000516 151.739829,81.6869593 C151.739829,83.383309 150.602789,84.4412474 148.457084,84.4412474 L144.239033,84.4412474 Z M144.239033,78.2577794 L144.239033,73.0957692 L148.237012,73.0957692 C150.034269,73.0957692 150.987915,74.2266689 150.987915,75.6311735 C150.987915,76.9627167 150.052608,78.2577794 148.237012,78.2577794 L144.239033,78.2577794 Z M169.07052,80.2459741 L169.07052,77.2910425 C169.07052,74.5367543 167.273263,72.3843967 164.008858,72.3843967 L159.442358,72.3843967 L159.442358,85.1526199 L164.008858,85.1526199 C167.273263,85.1526199 169.07052,83.0002623 169.07052,80.2459741 L169.07052,80.2459741 Z M168.171892,77.3092828 L168.171892,80.2277338 C168.171892,82.7084172 166.649725,84.4047668 163.898822,84.4047668 L160.340987,84.4047668 L160.340987,73.1322498 L163.898822,73.1322498 C166.649725,73.1322498 168.171892,74.8285994 168.171892,77.3092828 L168.171892,77.3092828 Z M172.224889,85.1526199 L180.477599,85.1526199 L180.477599,84.4047668 L173.123518,84.4047668 L173.123518,79.0603534 L179.927419,79.0603534 L179.927419,78.29426 L173.123518,78.29426 L173.123518,73.1322498 L180.45926,73.1322498 L180.45926,72.3843967 L172.224889,72.3843967 L172.224889,85.1526199 Z M187.593269,85.4079843 C190.179119,85.4079843 192.269805,84.0764411 192.269805,81.7599206 C192.269805,80.1730128 191.242801,79.151555 189.647277,78.7320277 L185.814352,77.7288101 C184.585615,77.4004844 183.998756,76.7255926 183.998756,75.4852509 C183.998756,73.8436222 185.319189,72.858645 187.391537,72.858645 C189.555581,72.858645 190.931032,74.0442657 190.931032,75.7406154 L190.931032,76.0142202 L191.756303,76.0142202 L191.756303,75.7223751 C191.756303,73.6064981 189.959046,72.1290323 187.391537,72.1290323 C184.842366,72.1290323 183.136806,73.4240949 183.136806,75.5399719 C183.136806,77.0721587 184.017095,78.0753762 185.557601,78.4766632 L189.353848,79.4616404 C190.692621,79.8082065 191.407855,80.6290208 191.407855,81.8146415 C191.407855,83.6386734 189.793992,84.6783716 187.593269,84.6783716 C185.355868,84.6783716 183.778683,83.4927509 183.778683,81.6322384 L183.778683,81.3586336 L182.916734,81.3586336 L182.916734,81.6504787 C182.916734,83.9122782 184.915724,85.4079843 187.593269,85.4079843 L187.593269,85.4079843 Z M195.369156,85.1526199 L196.267785,85.1526199 L196.267785,72.3843967 L195.369156,72.3843967 L195.369156,85.1526199 Z M204.813924,85.4079843 C207.931615,85.4079843 209.802229,83.3103477 209.802229,80.4466176 L209.802229,79.206276 L205.015657,79.206276 L205.015657,79.954129 L208.940279,79.954129 L208.940279,80.5195789 C208.940279,83.0002623 207.363095,84.6601313 204.813924,84.6601313 C201.787931,84.6601313 200.449158,82.5077737 200.449158,79.8082065 L200.449158,77.6558489 C200.449158,74.9015607 201.80627,72.8768853 204.703888,72.8768853 C207.253059,72.8768853 208.701868,74.518514 208.811904,76.5067088 L209.673854,76.5067088 C209.545478,74.0442657 207.748221,72.1290323 204.685549,72.1290323 C201.311108,72.1290323 199.550529,74.4637931 199.550529,77.6923295 L199.550529,79.7899662 C199.550529,82.87258 201.274429,85.4079843 204.813924,85.4079843 L204.813924,85.4079843 Z M212.90158,85.1526199 L213.76353,85.1526199 L213.76353,73.8436222 L221.44772,85.1526199 L222.29133,85.1526199 L222.29133,72.3843967 L221.429381,72.3843967 L221.429381,83.7116347 L213.745191,72.3843967 L212.90158,72.3843967 L212.90158,85.1526199 Z" id="RESPONSIVE-WEB-DESIG-Copy" fill="#404040" sketch:type="MSShapeGroup"></path>
            </g>
        </g>
    </g>
</svg>