<?xml version="1.0" encoding="UTF-8" standalone="no"?>
<svg width="1000" height="1000" viewBox="-500 -500 1000 1000" xmlns="http://www.w3.org/2000/svg" xmlns:xlink="http://www.w3.org/1999/xlink" preserveAspectRatio="xMinYMin meet">
<style>
.txt {
	font-family: "Arial, Helvetica, sans-serif";
	font-size: 18px;
	fill: #fff;
}
</style>

<!--
See Moss's Egg:
https://en.wikipedia.org/wiki/Moss%27s_Egg
-->

<!-- Horizontal lines -->
<path d="M-500,-500 L500,-500 
	M-500,-400 L500,-400 
	M-500,-300 L500,-300 
	M-500,-200 L500,-200 
	M-500,-100 L500,-100 
	M-500,0 L500,0 
	M-500,100 L500,100 
	M-500,200 L500,200 
	M-500,300 L500,300 
	M-500,400 L500,400 
	M-500,500 L500,500"
	style="stroke:#00f;stroke-width:1;opacity:0.25;" />
<!-- Vertical lines -->
<path d="M-500,-500 L-500,500 
	M-400,-500 L-400,500 
	M-300,-500 L-300,500 
	M-200,-500 L-200,500 
	M-100,-500 L-100,500 
	M0,-500 L0,500 
	M100,-500 L100,500 
	M200,-500 L200,500 
	M300,-500 L300,500 
	M400,-500 L400,500 
	M500,-500 L500,500"
	style="stroke:#00f;stroke-width:1;opacity:0.25;" />


<!--
		C x1 y1, x2 y2, x y 
		(or) 
		c dx1 dy1, dx2 dy2, dx dy
	
	The last set of coordinates here (x,y) specify where the line should end. 
	The other two are control points.
		(x1,y1) is the control point for the start of the curve, and 
		(x2,y2) is the control point for the end. 
	The control points essentially describe the slope of the line starting at each point. 
	The Bézier function then creates a smooth curve that transfers from the slope established 
	at the beginning of the line, to the slope at the other end.
-->

<path d="M 0 400 L 0 -400" style="stroke:#bbf;stroke-width:4;fill:none;"/>

<path d="M -300 100 L 300 100" style="stroke:#8c8;stroke-width:4;fill:none;"/>
<path d="M -300 100 L 300 -700" style="stroke:#8c8;stroke-width:4;fill:none;"/>
<path d="M 300 100 L -300 -700" style="stroke:#8c8;stroke-width:4;fill:none;"/>

<circle cx="0" cy="100" r="300" style="stroke-width:5;stroke:#ccc;fill:none" />

<circle cx="0" cy="-300" r="100" style="stroke-width:5;stroke:#ccc;fill:none" />


<circle cx="-300" cy="100" r="600" style="stroke-width:5;stroke:#777;fill:none" />
<circle cx="300" cy="100" r="600" style="stroke-width:5;stroke:#777;fill:none" />


<circle cx="0" cy="0" r="10" style="stroke-width:1;stroke:#000;fill:#00f" />

<path d="M 0 400 C -300 400, -370 250, -350 0 
		C -334 -200, -150 -400, 0 -400"
		style="stroke:#000;stroke-width:8;fill:none;"/>

<!--	C 150 -400, 284 -200, 300 0
		C 320 250, 300 400, 0 400"

C -325 -200, -150 -375, 0 -400" style="stroke:#000;stroke-width:8;fill:none;"/>
-->


<circle cx="0" cy="400" r="5" style="stroke-width:1;stroke:#f00;fill:#f00" />
<circle cx="-300" cy="400" r="5" style="stroke-width:1;stroke:#f00;fill:#f00" />
<path d="M 0 400 L-300,400" style="stroke:#f00;stroke-width:2;fill:none;"/>

<circle cx="-350" cy="0" r="5" style="stroke-width:1;stroke:#f00;fill:#f00" />
<!--
<svg x="-350" y="0" width="120px" height="22px">
	<rect x="1" y="1" width="118" height="20" stroke="#000" stroke-width="1" opacity="0.5" fill="#000" />
	<text class="txt" x="50%" y="50%" dominant-baseline="middle" text-anchor="middle">(-350,0)</text>
</svg>
-->

<circle cx="-370" cy="250" r="5" style="stroke-width:1;stroke:#f00;fill:#f00" />
<!--
<svg x="-370" y="250" width="120px" height="22px">
	<rect x="1" y="1" width="118" height="20" stroke="#000" stroke-width="1" opacity="0.5" fill="#000" />
	<text class="txt" x="50%" y="50%" dominant-baseline="middle" text-anchor="middle">(-370,250)</text>
</svg>
-->
<path d="M -350 0 L-370,250" style="stroke:#f00;stroke-width:2;fill:none;"/>


<circle cx="-334" cy="-200" r="5" style="stroke-width:1;stroke:#f00;fill:#f00" />
<!--
<svg x="-334" y="-200" width="120px" height="22px">
	<rect x="1" y="1" width="118" height="20" stroke="#000" stroke-width="1" opacity="0.5" fill="#000" />
	<text class="txt" x="50%" y="50%" dominant-baseline="middle" text-anchor="middle">(-334,-200)</text>
</svg>
-->
<path d="M -334 -200 L-350,0" style="stroke:#f00;stroke-width:2;fill:none;"/>

<circle cx="-150" cy="-400" r="5" style="stroke-width:1;stroke:#f00;fill:#f00" />
<circle cx="0" cy="-400" r="5" style="stroke-width:1;stroke:#f00;fill:#f00" />
<path d="M -150 -400 L0,-400" style="stroke:#f00;stroke-width:2;fill:none;"/>


</svg>

