<?xml version="1.0" encoding="UTF-8" standalone="no"?>
<svg width="700" height="1000" viewBox="-350 -500 700 1000" xmlns="http://www.w3.org/2000/svg" xmlns:xlink="http://www.w3.org/1999/xlink" preserveAspectRatio="xMinYMin meet">
<defs>
	<radialGradient id="grad" cx="50%" cy="50%" r="100%">
		<stop offset="10%" style="stop-color:#fff; stop-opacity:1" />
		<stop offset="50%" style="stop-color:#bbb; stop-opacity:1" />
		<stop offset="90%" style="stop-color:#777; stop-opacity:1" />
	</radialGradient>
</defs>
<rect x="-350" y="-500" width="700" height="1000" fill="url(#grad)" stroke-width="0" stroke="#000" />
<!--
See Moss's Egg:
https://en.wikipedia.org/wiki/Moss%27s_Egg
-->
<!-- Horizontal lines -->
<path d="M-500,-500 L500,-500 
	M-500,-400 L500,-400 
	M-500,-300 L500,-300 
	M-500,-200 L500,-200 
	M-500,-100 L500,-100 
	M-500,0 L500,0 
	M-500,100 L500,100 
	M-500,200 L500,200 
	M-500,300 L500,300 
	M-500,400 L500,400 
	M-500,500 L500,500"
	style="stroke:#00f;stroke-width:1;opacity:0.25;" />
<!-- Vertical lines -->
<path d="M-500,-500 L-500,500 
	M-400,-500 L-400,500 
	M-300,-500 L-300,500 
	M-200,-500 L-200,500 
	M-100,-500 L-100,500 
	M0,-500 L0,500 
	M100,-500 L100,500 
	M200,-500 L200,500 
	M300,-500 L300,500 
	M400,-500 L400,500 
	M500,-500 L500,500"
	style="stroke:#00f;stroke-width:1;opacity:0.25;" />

<!-- Vertical center -->
<path d="M 0,-500 L 0,500" style="stroke:#000;stroke-width:3;opacity:0.5;" />
<!-- Horizontal baseline -->
<path d="M -300,100 L 300,100" style="stroke:#000;stroke-width:3;opacity:0.5;" />

<!-- Bottom ARC of the egg -->
<!-- A rx ry x-axis-rotation large-arc-flag sweep-flag x y -->
<path d="M -300,100 A 300 300 0 0 0 300 100" style="stroke:#000;stroke-width:18;opacity:1;fill:none;" />

<path d="M 300,100 L -300,-600" style="stroke:#000;stroke-width:3;opacity:0.5;" />
<path d="M -300,100 L 300,-600" style="stroke:#000;stroke-width:3;opacity:0.5;" />

<!-- Double radius arcs -->
<path d="M 88,-358 A 600 600 0 0 1 300 100" style="stroke:#000;stroke-width:18;opacity:1;fill:none;" />
<path d="M -88,-358 A 600 600 0 0 0 -300 100" style="stroke:#000;stroke-width:18;opacity:1;fill:none;" />

<!-- Cap circle on top of egg -->
<path d="M -88,-358 A 139 139 0 0 1 88 -358" style="stroke:#000;stroke-width:18;opacity:1;fill:none;" />

<circle cx="-300" cy="100" r="600" style="stroke-width:2;stroke:#f80;fill:none" />
<circle cx="300" cy="100" r="600" style="stroke-width:2;stroke:#f80;fill:none" />
<circle cx="0" cy="100" r="300" style="stroke-width:2;stroke:#f80;fill:none" />
<circle cx="0" cy="-250" r="139" style="stroke-width:2;stroke:#f80;fill:none" />
</svg>
