<?xml version="1.0" encoding="UTF-8" standalone="no"?>
<svg width="1800" height="900" viewBox="0 0 1800 900" xmlns="http://www.w3.org/2000/svg" xmlns:xlink="http://www.w3.org/1999/xlink" preserveAspectRatio="xMinYMin meet">
<style>
.target {
	cursor: pointer;
	fill: #009688;
	stroke-width: 1;
	stroke: #fff;
	fill-opacity: 0.05;
}
.section-title {
	opacity: 0.75;
	font-family: "Arial, Helvetica, sans-serif";
	font-size: 28px;
	fill: #000;
	stroke-width: 1;
}
.grid-head {
	opacity: 0.75;
	stroke-width: 2;
	stroke: #fff;
}
.back-button {
	cursor: pointer;
	opacity: 0.75;
}
</style>
<!--
<rect fill="#fff" stroke="#eee" stroke-width="10" x="5" y="5" width="1790" height="890"/>
#e0f2f1 teal lighten-5
#b2dfdb teal lighten-4
#80cbc4 teal lighten-3
#4db6ac teal lighten-2
#26a69a teal lighten-1
#009688 teal
#00897b teal darken-1
#00796b teal darken-2
#00695c teal darken-3
#004d40 teal darken-4
-->
<defs>
	<radialGradient id="grad" cx="50%" cy="50%" r="75%"><!-- fx="50%" fy="50%">-->
		<stop offset="10%" style="stop-color:#e0f2f1; stop-opacity:1" />
		<stop offset="50%" style="stop-color:#80cbc4; stop-opacity:1" />
		<stop offset="90%" style="stop-color:#009688; stop-opacity:1" />
	</radialGradient>
</defs>
<rect x="0" y="0" width="1800" height="900" fill="url(#grad)" stroke-width="0" stroke="#000" />

<text x="530" y="110" opacity="0.75" font-family="Arial, Helvetica, sans-serif" font-size="128px" fill="#fff">Making City</text>
<path class="grid-head" d="M0 19 H538" />
<path class="grid-head" d="M938 110 H1800" />
<text x="950" y="170" opacity="0.75" font-family="Arial, Helvetica, sans-serif" font-size="36px" fill="#fff">Sivakka 1 - Vaskitie</text>
<g>
	<image x="90" y="400" width="100" height="150" xlink:href="powerline.svg" />
	<image x="500" y="200" width="147" height="133" xlink:href="solarpanel.svg" />
	<image x="780" y="200" width="147" height="133" xlink:href="solarpanel.svg" />
	
	<svg x="0" y="540" width="280px" height="40px">
		<rect x="1" y="1" width="278" height="38" stroke="#fff" stroke-width="1" opacity="0.2" fill="#009688" />
		<text class="section-title" id="db-grid-title" x="50%" y="50%" dominant-baseline="middle" text-anchor="middle">Grid</text>
	</svg>
	<svg x="430" y="330" width="280px" height="40px">
		<rect x="1" y="1" width="278" height="38" stroke="#fff" stroke-width="1" opacity="0.2" fill="#009688" />
		<text class="section-title" id="db-solar-title" x="50%" y="50%" dominant-baseline="middle" text-anchor="middle">Solar energy</text>
	</svg>
	<svg x="710" y="330" width="280px" height="40px">
		<rect x="1" y="1" width="278" height="38" stroke="#fff" stroke-width="1" opacity="0.2" fill="#009688" />
		<text class="section-title" id="db-solar-title-2" x="50%" y="50%" dominant-baseline="middle" text-anchor="middle">Solar energy</text>
	</svg>
	<svg x="320" y="770" width="280px" height="40px">
		<rect x="1" y="1" width="278" height="38" stroke="#fff" stroke-width="1" opacity="0.2" fill="#009688" />
		<text class="section-title" id="db-apartments-title" x="50%" y="50%" dominant-baseline="middle" text-anchor="middle">Apartments</text>
	</svg>
	<svg x="600" y="770" width="280px" height="40px">
		<rect x="1" y="1" width="278" height="38" stroke="#fff" stroke-width="1" opacity="0.2" fill="#009688" />
		<text class="section-title" id="db-other-title" x="50%" y="50%" dominant-baseline="middle" text-anchor="middle">Other</text>
	</svg>
	<svg x="1160" y="540" width="280px" height="40px">
		<rect x="1" y="1" width="278" height="38" stroke="#fff" stroke-width="1" opacity="0.2" fill="#009688" />
		<text class="section-title" id="db-heating-system-title" x="50%" y="50%" dominant-baseline="middle" text-anchor="middle">Heating system</text>
	</svg>
	<svg x="1040" y="330" width="280px" height="40px">
		<rect x="1" y="1" width="278" height="38" stroke="#fff" stroke-width="1" opacity="0.2" fill="#009688" />
		<text class="section-title" id="db-exthaus-title" x="50%" y="50%" dominant-baseline="middle" text-anchor="middle">Exthaus air recovery</text>
	</svg>
	<svg x="1280" y="330" width="280px" height="40px">
		<rect x="1" y="1" width="278" height="38" stroke="#fff" stroke-width="1" opacity="0.2" fill="#009688" />
		<text class="section-title" id="db-wastewater-title" x="50%" y="50%" dominant-baseline="middle" text-anchor="middle">Wastewater recovery</text>
	</svg>
	<!-- 1600,470 -->
	<svg x="1460" y="540" width="280px" height="40px">
		<rect x="1" y="1" width="278" height="38" stroke="#fff" stroke-width="1" opacity="0.2" fill="#009688" />
		<text class="section-title" id="db-dhn-title" x="50%" y="50%" dominant-baseline="middle" text-anchor="middle">District Heating Network</text>
	</svg>
	<!-- 1180,700 -->
	<svg x="1040" y="770" width="280px" height="40px">
		<rect x="1" y="1" width="278" height="38" stroke="#fff" stroke-width="1" opacity="0.2" fill="#009688" />
		<text class="section-title" id="db-dhn-title" x="50%" y="50%" dominant-baseline="middle" text-anchor="middle">Heating devices</text>
	</svg>
	<!-- 1420,700 -->
	<svg x="1280" y="770" width="280px" height="40px">
		<rect x="1" y="1" width="278" height="38" stroke="#fff" stroke-width="1" opacity="0.2" fill="#009688" />
		<text class="section-title" id="db-dhn-title" x="50%" y="50%" dominant-baseline="middle" text-anchor="middle">Hot water</text>
	</svg>
	
	<rect class="target" id="target-b-a" x="-80" y="-70" width="160" height="140" transform="translate(140,470) scale(1.0)" /><!-- Grid: powerline -->
	<rect class="target" id="target-b-b" x="-80" y="-70" width="160" height="140" transform="translate(570,260) scale(1.0)" /><!-- Left solarpanel -->
	<rect class="target" id="target-b-c" x="-80" y="-70" width="160" height="140" transform="translate(850,260) scale(1.0)" /><!-- Right solarpanel -->
	<rect class="target" id="target-b-d" x="-80" y="-70" width="160" height="140" transform="translate(460,700) scale(1.0)" /><!-- Apartments -->
	<rect class="target" id="target-b-e" x="-80" y="-70" width="160" height="140" transform="translate(740,700) scale(1.0)" /><!-- Other: ventilation -->
	<rect class="target" id="target-b-f" x="-80" y="-70" width="160" height="140" transform="translate(1300,470) scale(1.0)" /><!-- Heating system -->
	<rect class="target" id="target-b-g" x="-80" y="-70" width="160" height="140" transform="translate(1180,260) scale(1.0)" /><!-- Exthaus air recovery -->
	<rect class="target" id="target-b-h" x="-80" y="-70" width="160" height="140" transform="translate(1420,260) scale(1.0)" /><!-- Wastewater recovery -->
	<rect class="target" id="target-b-i" x="-80" y="-70" width="160" height="140" transform="translate(1600,470) scale(1.0)" /><!-- District Heating Network -->
	<rect class="target" id="target-b-j" x="-80" y="-70" width="160" height="140" transform="translate(1180,700) scale(1.0)" /><!-- Heating devices -->
	<rect class="target" id="target-b-k" x="-80" y="-70" width="160" height="140" transform="translate(1420,700) scale(1.0)" /><!-- Hot water -->
</g>
<image id="back" class="back-button" x="350" y="30" width="120" height="80" xlink:href="backbutton.svg" />
</svg>
