<?xml version="1.0" encoding="UTF-8" standalone="no"?>
<svg width="1800" height="900" viewBox="0 0 1800 900" xmlns="http://www.w3.org/2000/svg" xmlns:xlink="http://www.w3.org/1999/xlink" preserveAspectRatio="xMinYMin meet">
<style>
.target {
	cursor: pointer;
	fill: #ffa726;
	stroke-width: 1;
	stroke: #888;
	fill-opacity: 0.05;
}
.section-title {
	opacity: 0.75;
	font-family: "Arial, Helvetica, sans-serif";
	font-size: 28px;
	fill: #000;
	stroke-width: 1;
}
.grid-head {
	opacity: 0.75;
	stroke-width: 2;
	stroke: #444;
}
.back-button {
	cursor: pointer;
	opacity: 0.75;
}
</style>
<!--
#fff3e0 orange lighten-5
#ffe0b2 orange lighten-4
#ffcc80 orange lighten-3
#ffb74d orange lighten-2
#ffa726 orange lighten-1
#ff9800 orange
-->
<defs>
	<radialGradient id="grad" cx="50%" cy="50%" r="75%"><!-- fx="50%" fy="50%">-->
		<stop offset="10%" style="stop-color:#fff3e0; stop-opacity:1" />
		<stop offset="50%" style="stop-color:#ffe0b2; stop-opacity:1" />
		<stop offset="90%" style="stop-color:#ffcc80; stop-opacity:1" />
	</radialGradient>
</defs>
<rect x="0" y="0" width="1800" height="900" fill="url(#grad)" stroke-width="0" stroke="#000" />

<text x="530" y="110" opacity="0.75" font-family="Arial, Helvetica, sans-serif" font-size="128px" fill="#444">Making City</text>
<path class="grid-head" d="M0 19 H538" />
<path class="grid-head" d="M938 110 H1800" />
<text x="950" y="170" opacity="0.75" font-family="Arial, Helvetica, sans-serif" font-size="36px" fill="#444">Sivakka 1 - Vaskitie</text>
<g>
	<path id="main-pipe" d="M 220,470 L 1200,470"
	style="opacity:0.5;stroke:#0a0;stroke-width:15px;stroke-dasharray:30px 10px;fill:none;">
		<animate attributeName="stroke-dashoffset" from="40" to="0" dur="1s" repeatCount="indefinite" />
	</path>
	<path id="solar-pipe-1" d="M 570,330 L 570,470"
	style="opacity:0.5;stroke:#0a0;stroke-width:15px;stroke-dasharray:30px 10px;fill:none;">
		<animate attributeName="stroke-dashoffset" from="40" to="0" dur="1s" repeatCount="indefinite" />
	</path>
	<path id="solar-pipe-2" d="M 850,330 L 850,420 A 20,20 0 0,0 870,440 L 1200,440"
	style="opacity:0.5;stroke:#0a0;stroke-width:15px;stroke-dasharray:30px 10px;fill:none;">
		<animate attributeName="stroke-dashoffset" from="40" to="0" dur="1s" repeatCount="indefinite" />
	</path>
	<path id="sub-pipe-1" d="M 570,470 L 570,550"
	style="opacity:0.5;stroke:#0a0;stroke-width:15px;stroke-dasharray:30px 10px;fill:none;">
		<animate attributeName="stroke-dashoffset" from="40" to="0" dur="1s" repeatCount="indefinite" />
	</path>
	<path id="apartment-pipe" d="M 570,550 L 480,550 A 20,20 0 0,0 460,570 L 460,630"
	style="opacity:0.5;stroke:#0a0;stroke-width:15px;stroke-dasharray:30px 10px;fill:none;">
		<animate attributeName="stroke-dashoffset" from="40" to="0" dur="1s" repeatCount="indefinite" />
	</path>
	<path id="other-pipe" d="M 570,550 L 720,550 A 20,20 0 0,1 740,570 L 740,630"
	style="opacity:0.5;stroke:#0a0;stroke-width:15px;stroke-dasharray:30px 10px;fill:none;">
		<animate attributeName="stroke-dashoffset" from="40" to="0" dur="1s" repeatCount="indefinite" />
	</path>
	<path id="exthaus-pipe" d="M 1230,330 L 1230,400" 
	style="opacity:0.5;stroke:#f00;stroke-width:15px;stroke-dasharray:30px 10px;fill:none;">
		<animate attributeName="stroke-dashoffset" from="40" to="0" dur="1s" repeatCount="indefinite" />
	</path>
	<path id="wastewater-pipe" d="M 1370,330 L 1370,400" 
	style="opacity:0.5;stroke:#f00;stroke-width:15px;stroke-dasharray:30px 10px;fill:none;">
		<animate attributeName="stroke-dashoffset" from="40" to="0" dur="1s" repeatCount="indefinite" />
	</path>
	<path id="heating-devices-pipe" d="M 1230,540 L 1230,630" 
	style="opacity:0.5;stroke:#f00;stroke-width:15px;stroke-dasharray:30px 10px;fill:none;">
		<animate attributeName="stroke-dashoffset" from="40" to="0" dur="1s" repeatCount="indefinite" />
	</path>
	<path id="hot-water-pipe" d="M 1370,540 L 1370,630" 
	style="opacity:0.5;stroke:#f00;stroke-width:15px;stroke-dasharray:30px 10px;fill:none;">
		<animate attributeName="stroke-dashoffset" from="40" to="0" dur="1s" repeatCount="indefinite" />
	</path>
	<path id="dh-input-pipe" d="M 1520,440 L 1400,440" 
	style="opacity:0.5;stroke:#f00;stroke-width:15px;stroke-dasharray:30px 10px;fill:none;">
		<animate attributeName="stroke-dashoffset" from="40" to="0" dur="1s" repeatCount="indefinite" />
	</path>
	<path id="cool-pipe" d="M 1520,500 L 1400,500" 
	style="opacity:0.5;stroke:#0ff;stroke-width:15px;stroke-dasharray:30px 10px;fill:none;">
		<animate attributeName="stroke-dashoffset" from="40" to="0" dur="1s" repeatCount="indefinite" />
	</path>
	
	<image x="90" y="400" width="100" height="150" xlink:href="powerline.svg" />
	<image x="500" y="200" width="147" height="133" xlink:href="solarpanel.svg" />
	<image x="780" y="200" width="147" height="133" xlink:href="solarpanel.svg" />
	
	<svg x="0" y="540" width="280px" height="40px">
		<!--<rect x="1" y="1" width="278" height="38" stroke="#fff" stroke-width="1" opacity="0.2" fill="#009688" />-->
		<text class="section-title" id="db-grid-title" x="50%" y="50%" dominant-baseline="middle" text-anchor="middle">Grid</text>
	</svg>
	<svg x="430" y="330" width="280px" height="40px">
		<!--<rect x="1" y="1" width="278" height="38" stroke="#fff" stroke-width="1" opacity="0.2" fill="#009688" />-->
		<text class="section-title" id="db-solar-title" x="50%" y="50%" dominant-baseline="middle" text-anchor="middle">Solar energy</text>
	</svg>
	<svg x="710" y="330" width="280px" height="40px">
		<!--<rect x="1" y="1" width="278" height="38" stroke="#fff" stroke-width="1" opacity="0.2" fill="#009688" />-->
		<text class="section-title" id="db-solar-title-2" x="50%" y="50%" dominant-baseline="middle" text-anchor="middle">Solar energy</text>
	</svg>
	<!--
	<svg x="320" y="770" width="280px" height="40px">
		<rect x="1" y="1" width="278" height="38" stroke="#fff" stroke-width="1" opacity="0.2" fill="#009688" />
		<text class="section-title" id="db-apartments-title" x="50%" y="50%" dominant-baseline="middle" text-anchor="middle">Apartments</text>
	</svg>-->
	<svg x="320" y="680" width="280px" height="40px">
		<text class="section-title" id="db-apartments-title" x="50%" y="50%" dominant-baseline="middle" text-anchor="middle">Apartments</text>
	</svg>
	<!--
	<svg x="600" y="770" width="280px" height="40px">
		<rect x="1" y="1" width="278" height="38" stroke="#fff" stroke-width="1" opacity="0.2" fill="#009688" />
		<text class="section-title" id="db-other-title" x="50%" y="50%" dominant-baseline="middle" text-anchor="middle">Other</text>
	</svg>-->
	<svg x="600" y="660" width="280px" height="40px">
		<text class="section-title" id="db-other-title-1" x="50%" y="50%" dominant-baseline="middle" text-anchor="middle">SAUNA,</text>
	</svg>
	<svg x="600" y="690" width="280px" height="40px">
		<text class="section-title" id="db-other-title-2" x="50%" y="50%" dominant-baseline="middle" text-anchor="middle">lights,</text>
	</svg>
	<svg x="600" y="720" width="280px" height="40px">
		<text class="section-title" id="db-other-title-3" x="50%" y="50%" dominant-baseline="middle" text-anchor="middle">etc.</text>
	</svg>
	<!--
	<svg x="1160" y="540" width="280px" height="40px">
		<rect x="1" y="1" width="278" height="38" stroke="#fff" stroke-width="1" opacity="0.2" fill="#009688" />
		<text class="section-title" id="db-heating-system-title" x="50%" y="50%" dominant-baseline="middle" text-anchor="middle">Heating system</text>
	</svg>-->
	<svg x="1160" y="440" width="280px" height="40px">
		<text class="section-title" id="db-heating-system-title-1" x="50%" y="50%" dominant-baseline="middle" text-anchor="middle">Heating</text>
	</svg>
	<svg x="1160" y="470" width="280px" height="40px">
		<text class="section-title" id="db-heating-system-title-2" x="50%" y="50%" dominant-baseline="middle" text-anchor="middle">system</text>
	</svg>
	<!--
	<svg x="1040" y="330" width="280px" height="40px">
		<rect x="1" y="1" width="278" height="38" stroke="#fff" stroke-width="1" opacity="0.2" fill="#009688" />
		<text class="section-title" id="db-exthaus-title" x="50%" y="50%" dominant-baseline="middle" text-anchor="middle">Exthaus air recovery</text>
	</svg>-->
	<svg x="1040" y="230" width="280px" height="40px">
		<text class="section-title" id="db-exthaus-air-reco-title-1" x="50%" y="50%" dominant-baseline="middle" text-anchor="middle">Exthaus air</text>
	</svg>
	<svg x="1040" y="260" width="280px" height="40px">
		<text class="section-title" id="db-exthaus-air-reco-title-2" x="50%" y="50%" dominant-baseline="middle" text-anchor="middle">recovery</text>
	</svg>
	<!--
	<svg x="1280" y="330" width="280px" height="40px">
		<rect x="1" y="1" width="278" height="38" stroke="#fff" stroke-width="1" opacity="0.2" fill="#009688" />
		<text class="section-title" id="db-wastewater-title" x="50%" y="50%" dominant-baseline="middle" text-anchor="middle">Wastewater recovery</text>
	</svg>-->
	<svg x="1280" y="230" width="280px" height="40px">
		<text class="section-title" id="db-wastewater-reco-title-1" x="50%" y="50%" dominant-baseline="middle" text-anchor="middle">Wastewater</text>
	</svg>
	<svg x="1280" y="260" width="280px" height="40px">
		<text class="section-title" id="db-wastewater-reco-title-2" x="50%" y="50%" dominant-baseline="middle" text-anchor="middle">recovery</text>
	</svg>
	<!--<svg x="1460" y="540" width="280px" height="40px">
		<rect x="1" y="1" width="278" height="38" stroke="#fff" stroke-width="1" opacity="0.2" fill="#009688" />
		<text class="section-title" id="db-dhn-title" x="50%" y="50%" dominant-baseline="middle" text-anchor="middle">District Heating Network</text>
	</svg>-->
	<svg x="1460" y="420" width="280px" height="40px">
		<text class="section-title" id="db-dhn-title-1" x="50%" y="50%" dominant-baseline="middle" text-anchor="middle">District</text>
	</svg>
	<svg x="1460" y="450" width="280px" height="40px">
		<text class="section-title" id="db-dhn-title-2" x="50%" y="50%" dominant-baseline="middle" text-anchor="middle">heating</text>
	</svg>
	<svg x="1460" y="480" width="280px" height="40px">
		<text class="section-title" id="db-dhn-title-3" x="50%" y="50%" dominant-baseline="middle" text-anchor="middle">network</text>
	</svg>
	<!--
	<svg x="1040" y="770" width="280px" height="40px">
		<rect x="1" y="1" width="278" height="38" stroke="#fff" stroke-width="1" opacity="0.2" fill="#009688" />
		<text class="section-title" id="db-heating-dev-title" x="50%" y="50%" dominant-baseline="middle" text-anchor="middle">Heating devices</text>
	</svg>-->
	<svg x="1040" y="670" width="280px" height="40px">
		<text class="section-title" id="db-heating-dev-title-1" x="50%" y="50%" dominant-baseline="middle" text-anchor="middle">Heating</text>
	</svg>
	<svg x="1040" y="700" width="280px" height="40px">
		<text class="section-title" id="db-heating-dev-title-2" x="50%" y="50%" dominant-baseline="middle" text-anchor="middle">devices</text>
	</svg>
	<!--
	<svg x="1280" y="770" width="280px" height="40px">
		<rect x="1" y="1" width="278" height="38" stroke="#fff" stroke-width="1" opacity="0.2" fill="#009688" />
		<text class="section-title" id="db-hot-water-title" x="50%" y="50%" dominant-baseline="middle" text-anchor="middle">Hot water</text>
	</svg>-->
	<svg x="1280" y="670" width="280px" height="40px">
		<text class="section-title" id="db-hot-water-title-1" x="50%" y="50%" dominant-baseline="middle" text-anchor="middle">Hot</text>
	</svg>
	<svg x="1280" y="700" width="280px" height="40px">
		<text class="section-title" id="db-hot-water-title-2" x="50%" y="50%" dominant-baseline="middle" text-anchor="middle">water</text>
	</svg>
	
	<rect class="target" id="target-b-a" x="-80" y="-70" width="160" height="140" transform="translate(140,470) scale(1.0)" /><!-- Grid: powerline -->
	<rect class="target" id="target-b-b" x="-80" y="-70" width="160" height="140" transform="translate(570,260) scale(1.0)" /><!-- Left solarpanel -->
	<rect class="target" id="target-b-c" x="-80" y="-70" width="160" height="140" transform="translate(850,260) scale(1.0)" /><!-- Right solarpanel -->
	<rect class="target" id="target-b-d" x="-80" y="-70" width="160" height="140" transform="translate(460,700) scale(1.0)" /><!-- Apartments -->
	<rect class="target" id="target-b-e" x="-80" y="-70" width="160" height="140" transform="translate(740,700) scale(1.0)" /><!-- Other: ventilation -->
	<rect class="target" id="target-b-f" x="-100" y="-70" width="200" height="140" transform="translate(1300,470) scale(1.0)" /><!-- Heating system -->
	<rect class="target" id="target-b-g" x="-80" y="-70" width="160" height="140" transform="translate(1180,260) scale(1.0)" /><!-- Exthaus air recovery -->
	<rect class="target" id="target-b-h" x="-80" y="-70" width="160" height="140" transform="translate(1420,260) scale(1.0)" /><!-- Wastewater recovery -->
	<rect class="target" id="target-b-i" x="-80" y="-70" width="160" height="140" transform="translate(1600,470) scale(1.0)" /><!-- District Heating Network -->
	<rect class="target" id="target-b-j" x="-80" y="-70" width="160" height="140" transform="translate(1180,700) scale(1.0)" /><!-- Heating devices -->
	<rect class="target" id="target-b-k" x="-80" y="-70" width="160" height="140" transform="translate(1420,700) scale(1.0)" /><!-- Hot water -->
</g>
<image id="back" class="back-button" x="350" y="30" width="120" height="80" xlink:href="backbutton.svg" />
</svg>
