<?xml version="1.0" encoding="UTF-8" standalone="no"?>
<svg width="600" height="900" viewBox="0 0 600 900" xmlns="http://www.w3.org/2000/svg" xmlns:xlink="http://www.w3.org/1999/xlink" preserveAspectRatio="xMinYMin meet">
<style>
.target {
	cursor: pointer;
	fill: #ff9800; /*#009688;*/
	stroke-width: 1;
	stroke: #fff;
	fill-opacity: 0.05;
}
.section-title {
	opacity: 0.75;
	font-family: "Arial, Helvetica, sans-serif";
	font-size: 20px;
	fill: #000;
	stroke-width: 1;
}
.grid-head {
	opacity: 0.75;
	stroke-width: 1;
	stroke: #444;
}
.back-button {
	cursor: pointer;
	opacity: 0.75;
}
</style>
<!--
#fff3e0 orange lighten-5
#ffe0b2 orange lighten-4
#ffcc80 orange lighten-3

#ff9800 orange
-->
<defs>
	<radialGradient id="grad" cx="50%" cy="50%" r="75%"><!-- fx="50%" fy="50%">-->
		<stop offset="10%" style="stop-color:#fff3e0; stop-opacity:1" />
		<stop offset="50%" style="stop-color:#ffe0b2; stop-opacity:1" />
		<stop offset="90%" style="stop-color:#ffcc80; stop-opacity:1" />
	</radialGradient>
</defs>
<rect x="0" y="0" width="600" height="900" fill="url(#grad)" stroke-width="0" stroke="#000" />

<text x="90" y="100" opacity="0.75" font-family="Arial, Helvetica, sans-serif" font-size="82px" fill="#444">Making City</text>
<path class="grid-head" d="M0 43 H94" />
<path class="grid-head" d="M350 100 H600" />
<text x="360" y="140" opacity="0.75" font-family="Arial, Helvetica, sans-serif" font-size="22px" fill="#444">Sivakka 1 - Vaskitie</text>

<g>
	<path id="main-pipe" d="M 130,470 L 340,470"
	style="opacity:0.5;stroke:#0a0;stroke-width:10px;stroke-dasharray:30px 10px;fill:none;">
		<animate attributeName="stroke-dashoffset" from="40" to="0" dur="1s" repeatCount="indefinite" />
	</path>
	<path id="solar-pipe-1" d="M 170,310 L 170,400 A 20,20 0 0,0 190,420 L 220,420 A 20,20 0 0,1 240,440 L 240,470"
	style="opacity:0.5;stroke:#0a0;stroke-width:10px;stroke-dasharray:30px 10px;fill:none;">
		<animate attributeName="stroke-dashoffset" from="40" to="0" dur="1s" repeatCount="indefinite" />
	</path>
	<path id="solar-pipe-2" d="M 280,310 L 280,420 A 20,20 0 0,0 300,440 L 340,440"
	style="opacity:0.5;stroke:#0a0;stroke-width:10px;stroke-dasharray:30px 10px;fill:none;">
		<animate attributeName="stroke-dashoffset" from="40" to="0" dur="1s" repeatCount="indefinite" />
	</path>
	<path id="sub-pipe-1" d="M 240,470 L 240,570"
	style="opacity:0.5;stroke:#0a0;stroke-width:10px;stroke-dasharray:30px 10px;fill:none;">
		<animate attributeName="stroke-dashoffset" from="40" to="0" dur="1s" repeatCount="indefinite" />
	</path>
	<path id="apartment-pipe" d="M 240,570 L 180,570 A 20,20 0 0,0 160,590 L 160,650"
	style="opacity:0.5;stroke:#0a0;stroke-width:10px;stroke-dasharray:30px 10px;fill:none;">
		<animate attributeName="stroke-dashoffset" from="40" to="0" dur="1s" repeatCount="indefinite" />
	</path>
	<path id="other-pipe" d="M 240,570 L 260,570 A 20,20 0 0,1 280,590 L 280,650"
	style="opacity:0.5;stroke:#0a0;stroke-width:10px;stroke-dasharray:30px 10px;fill:none;">
		<animate attributeName="stroke-dashoffset" from="40" to="0" dur="1s" repeatCount="indefinite" />
	</path>
	<path id="exthaus-pipe" d="M 370,310 L 370,420" 
	style="opacity:0.5;stroke:#f00;stroke-width:10px;stroke-dasharray:30px 10px;fill:none;">
		<animate attributeName="stroke-dashoffset" from="40" to="0" dur="1s" repeatCount="indefinite" />
	</path>
	<path id="wastewater-pipe" d="M 520,310 L 520,350 A 20,20 0 0,1 500,370 L 440,370 A 20,20 0 0,0 420,390 L 420,420" 
	style="opacity:0.5;stroke:#f00;stroke-width:10px;stroke-dasharray:30px 10px;fill:none;">
		<animate attributeName="stroke-dashoffset" from="40" to="0" dur="1s" repeatCount="indefinite" />
	</path>
	<path id="heating-devices-pipe" d="M 370,520 L 370,650" 
	style="opacity:0.5;stroke:#f00;stroke-width:10px;stroke-dasharray:30px 10px;fill:none;">
		<animate attributeName="stroke-dashoffset" from="40" to="0" dur="1s" repeatCount="indefinite" />
	</path>
	<path id="hot-water-pipe" d="M 420,520 L 420,580 A 20,20 0 0,0 440,600 L 500,600 A 20,20 0 0,1 520,620 L 520,650" 
	style="opacity:0.5;stroke:#f00;stroke-width:10px;stroke-dasharray:30px 10px;fill:none;">
		<animate attributeName="stroke-dashoffset" from="40" to="0" dur="1s" repeatCount="indefinite" />
	</path>
	<path id="dh-input-pipe" d="M 490,440 L 440,440" 
	style="opacity:0.5;stroke:#f00;stroke-width:10px;stroke-dasharray:30px 10px;fill:none;">
		<animate attributeName="stroke-dashoffset" from="40" to="0" dur="1s" repeatCount="indefinite" />
	</path>
	<path id="cool-pipe" d="M 490,490 L 440,490" 
	style="opacity:0.5;stroke:#0ff;stroke-width:10px;stroke-dasharray:30px 10px;fill:none;">
		<animate attributeName="stroke-dashoffset" from="40" to="0" dur="1s" repeatCount="indefinite" />
	</path>
	
	<image x="40" y="410" width="80" height="120" xlink:href="powerline.svg" />
	<image x="120" y="220" width="88" height="80" xlink:href="solarpanel.svg" />
	<image x="240" y="220" width="88" height="80" xlink:href="solarpanel.svg" />
	
	<svg x="0" y="520" width="160px" height="40px">
		<!--<rect x="1" y="1" width="158" height="38" stroke="#fff" stroke-width="1" opacity="0.2" fill="#009688" />-->
		<text class="section-title" id="db-grid-title" x="50%" y="50%" dominant-baseline="middle" text-anchor="middle">Grid</text>
	</svg>
	<svg x="70" y="310" width="180px" height="40px">
		<!--<rect x="1" y="1" width="178" height="38" stroke="#fff" stroke-width="1" opacity="0.2" fill="#009688" />-->
		<text class="section-title" id="db-solar-title" x="50%" y="50%" dominant-baseline="middle" text-anchor="middle">Solar energy</text>
	</svg>
	<svg x="190" y="310" width="180px" height="40px">
		<!--<rect x="1" y="1" width="178" height="38" stroke="#fff" stroke-width="1" opacity="0.2" fill="#009688" />-->
		<text class="section-title" id="db-solar-title-2" x="50%" y="50%" dominant-baseline="middle" text-anchor="middle">Solar energy</text>
	</svg>
	<!--
	<svg x="70" y="750" width="180px" height="40px">
		<rect x="1" y="1" width="178" height="38" stroke="#fff" stroke-width="1" opacity="0.2" fill="#009688" />
		<text class="section-title" id="db-apartments-title" x="50%" y="50%" dominant-baseline="middle" text-anchor="middle">Apartments</text>
	</svg>
	-->
	<svg x="70" y="680" width="180px" height="40px">
		<text class="section-title" id="db-apartments-title" x="50%" y="50%" dominant-baseline="middle" text-anchor="middle">Apartments</text>
	</svg>
	<!--
	<svg x="190" y="750" width="180px" height="40px">
		<rect x="1" y="1" width="178" height="38" stroke="#fff" stroke-width="1" opacity="0.2" fill="#009688" />
		<text class="section-title" id="db-other-title" x="50%" y="50%" dominant-baseline="middle" text-anchor="middle">Other</text>
	</svg>-->
	<svg x="190" y="650" width="180px" height="40px">
		<text class="section-title" id="db-other-title-1" x="50%" y="50%" dominant-baseline="middle" text-anchor="middle">SAUNA,</text>
	</svg>
	<svg x="190" y="680" width="180px" height="40px">
		<text class="section-title" id="db-other-title-2" x="50%" y="50%" dominant-baseline="middle" text-anchor="middle">lights,</text>
	</svg>
	<svg x="190" y="710" width="180px" height="40px">
		<text class="section-title" id="db-other-title-3" x="50%" y="50%" dominant-baseline="middle" text-anchor="middle">etc.</text>
	</svg>
	<!--
	<svg x="300" y="520" width="180px" height="40px">
		<rect x="1" y="1" width="178" height="38" stroke="#fff" stroke-width="1" opacity="0.2" fill="#009688" />
		<text class="section-title" id="db-heating-system-title" x="50%" y="50%" dominant-baseline="middle" text-anchor="middle">Heating system</text>
	</svg>-->
	<svg x="300" y="440" width="180px" height="40px">
		<text class="section-title" id="db-heating-system-title-1" x="50%" y="50%" dominant-baseline="middle" text-anchor="middle">Heating</text>
	</svg>
	<svg x="300" y="470" width="180px" height="40px">
		<text class="section-title" id="db-heating-system-title-2" x="50%" y="50%" dominant-baseline="middle" text-anchor="middle">system</text>
	</svg>
	<!--
	<svg x="310" y="310" width="180px" height="40px">
		<rect x="1" y="1" width="178" height="38" stroke="#fff" stroke-width="1" opacity="0.2" fill="#009688" />
		<text class="section-title" id="db-exthaus-title" x="50%" y="50%" dominant-baseline="middle" text-anchor="middle">Exthaus air</text>
	</svg>-->
	<svg x="310" y="230" width="180px" height="40px">
		<text class="section-title" id="db-exthaus-air-reco-title-1" x="50%" y="50%" dominant-baseline="middle" text-anchor="middle">Exthaus air</text>
	</svg>
	<svg x="310" y="260" width="180px" height="40px">
		<text class="section-title" id="db-exthaus-air-reco-title-2" x="50%" y="50%" dominant-baseline="middle" text-anchor="middle">recovery</text>
	</svg>
	<!--
	<svg x="430" y="310" width="180px" height="40px">
		<rect x="1" y="1" width="178" height="38" stroke="#fff" stroke-width="1" opacity="0.2" fill="#009688" />
		<text class="section-title" id="db-wastewater-title" x="50%" y="50%" dominant-baseline="middle" text-anchor="middle">Wastewater</text>
	</svg>-->
	<svg x="430" y="230" width="180px" height="40px">
		<text class="section-title" id="db-wastewater-reco-title-1" x="50%" y="50%" dominant-baseline="middle" text-anchor="middle">Wastewater</text>
	</svg>
	<svg x="430" y="260" width="180px" height="40px">
		<text class="section-title" id="db-wastewater-reco-title-2" x="50%" y="50%" dominant-baseline="middle" text-anchor="middle">recovery</text>
	</svg>
	<!--<svg x="450" y="520" width="180px" height="40px">
		<rect x="1" y="1" width="178" height="38" stroke="#fff" stroke-width="1" opacity="0.2" fill="#009688" />
		<text class="section-title" id="db-dhn-title" x="50%" y="50%" dominant-baseline="middle" text-anchor="middle">DHN</text>
	</svg>-->
	<svg x="450" y="420" width="180px" height="40px">
		<text class="section-title" id="db-dhn-title-1" x="50%" y="50%" dominant-baseline="middle" text-anchor="middle">District</text>
	</svg>
	<svg x="450" y="450" width="180px" height="40px">
		<text class="section-title" id="db-dhn-title-2" x="50%" y="50%" dominant-baseline="middle" text-anchor="middle">heating</text>
	</svg>
	<svg x="450" y="480" width="180px" height="40px">
		<text class="section-title" id="db-dhn-title-3" x="50%" y="50%" dominant-baseline="middle" text-anchor="middle">network</text>
	</svg>
	<!--
	<svg x="310" y="750" width="180px" height="40px">
		<rect x="1" y="1" width="178" height="38" stroke="#fff" stroke-width="1" opacity="0.2" fill="#009688" />
		<text class="section-title" id="db-dhn-title" x="50%" y="50%" dominant-baseline="middle" text-anchor="middle">Heating devices</text>
	</svg>-->
	<svg x="310" y="670" width="180px" height="40px">
		<text class="section-title" id="db-heating-dev-title-1" x="50%" y="50%" dominant-baseline="middle" text-anchor="middle">Heating</text>
	</svg>
	<svg x="310" y="700" width="180px" height="40px">
		<text class="section-title" id="db-heating-dev-title-2" x="50%" y="50%" dominant-baseline="middle" text-anchor="middle">devices</text>
	</svg>
	<!--
	<svg x="430" y="750" width="180px" height="40px">
		<rect x="1" y="1" width="178" height="38" stroke="#fff" stroke-width="1" opacity="0.2" fill="#009688" />
		<text class="section-title" id="db-dhn-title" x="50%" y="50%" dominant-baseline="middle" text-anchor="middle">Hot water</text>
	</svg>-->
	<svg x="430" y="670" width="180px" height="40px">
		<text class="section-title" id="db-hot-water-title-1" x="50%" y="50%" dominant-baseline="middle" text-anchor="middle">Hot</text>
	</svg>
	<svg x="430" y="700" width="180px" height="40px">
		<text class="section-title" id="db-hot-water-title-2" x="50%" y="50%" dominant-baseline="middle" text-anchor="middle">water</text>
	</svg>
	
	
	<rect class="target" id="target-b-a" x="-50" y="-50" width="100" height="100" transform="translate(80,470) scale(1.0)" /><!-- Grid: powerline -->
	<rect class="target" id="target-b-b" x="-50" y="-50" width="100" height="100" transform="translate(160,260) scale(1.0)" /><!-- Left solarpanel -->
	<rect class="target" id="target-b-c" x="-50" y="-50" width="100" height="100" transform="translate(280,260) scale(1.0)" /><!-- Right solarpanel -->
	<rect class="target" id="target-b-d" x="-50" y="-50" width="100" height="100" transform="translate(160,700) scale(1.0)" /><!-- Apartments -->
	<rect class="target" id="target-b-e" x="-50" y="-50" width="100" height="100" transform="translate(280,700) scale(1.0)" /><!-- Other: ventilation -->
	
	<rect class="target" id="target-b-f" x="-50" y="-50" width="100" height="100" transform="translate(390,470) scale(1.0)" /><!-- Heating system -->
	<rect class="target" id="target-b-g" x="-50" y="-50" width="100" height="100" transform="translate(400,260) scale(1.0)" /><!-- Exthaus air recovery -->
	<rect class="target" id="target-b-h" x="-50" y="-50" width="100" height="100" transform="translate(520,260) scale(1.0)" /><!-- Wastewater recovery -->
	<rect class="target" id="target-b-i" x="-50" y="-50" width="100" height="100" transform="translate(540,470) scale(1.0)" /><!-- District Heating Network -->
	
	<rect class="target" id="target-b-j" x="-50" y="-50" width="100" height="100" transform="translate(400,700) scale(1.0)" /><!-- Heating devices -->
	<rect class="target" id="target-b-k" x="-50" y="-50" width="100" height="100" transform="translate(520,700) scale(1.0)" /><!-- Hot water -->
</g>

<image id="back" class="back-button" x="10" y="50" width="75" height="50" xlink:href="backbutton.svg" />
</svg>
