<?xml version="1.0" encoding="UTF-8" standalone="no"?>
<svg width="600" height="900" viewBox="0 0 600 900" xmlns="http://www.w3.org/2000/svg" xmlns:xlink="http://www.w3.org/1999/xlink" preserveAspectRatio="xMinYMin meet">
<!--
iFLEX Dark blue   #1a488b ( 26,  72, 139)
iFLEX Dark green  #008245 (  0, 130,  69)
iFLEX Light green #78c51b (120, 197,  27)
-->
<style>
.surface {
	cursor: pointer;
	fill: #000;
	fill-opacity: 0;
}
.window {
	fill: #eee;
	stroke-width: 10;
	stroke: #1a488b;
	fill-opacity: 1;
}
/*
.section-title {
	opacity: 0.75;
	font-family: "Arial, Helvetica, sans-serif";
	font-size: 70px;
	fill: #008245;
	stroke-width: 1;
}
*/
</style>
<defs>
	<radialGradient id="grad" cx="50%" cy="50%" r="100%">
		<stop offset="10%" style="stop-color:#fff; stop-opacity:1" />
		<stop offset="50%" style="stop-color:#ddd; stop-opacity:1" />
		<stop offset="90%" style="stop-color:#bbb; stop-opacity:1" />
	</radialGradient>
	<linearGradient id="gradLinear" x1="0%" y1="0%" x2="0%" y2="100%" spreadMethod="pad"> <!-- gradientTransform="rotate(45)" -->
		<stop offset="0%"  stop-color="#999" stop-opacity="1"/>
		<stop offset="15%" stop-color="#ccc" stop-opacity="1"/>
		<stop offset="20%" stop-color="#ccc" stop-opacity="1"/>
		<stop offset="25%" stop-color="#ccc" stop-opacity="1"/>
		<stop offset="100%" stop-color="#777" stop-opacity="1"/>
	</linearGradient>
</defs>
<!--
<stop offset="50%" stop-color="black" stop-opacity="0"/>
-->
<!--
<rect id="myrect" x="0" y="0" width="1600" height="900" fill="url(#grad)" stroke-width="0" stroke="#000" />
-->

<!-- Horizontal lines -->
<path d="M0,0 L600,0 
	M0,50 L600,50 
	M0,100 L600,100 
	M0,150 L600,150 
	M0,200 L600,200 
	M0,250 L600,250 
	M0,300 L600,300 
	M0,350 L600,350 
	M0,400 L600,400 
	M0,450 L600,450 
	M0,500 L600,500 
	M0,550 L600,550 
	M0,600 L600,600 
	M0,650 L600,650 
	M0,700 L600,700 
	M0,750 L600,750 
	M0,800 L600,800 
	M0,850 L600,850 
	M0,900 L600,900"
	style="stroke:#00f;stroke-width:1;opacity:0.25;" />
<!-- Vertical lines -->
<path d="M0,0 L0,900 
	M50,0 L50,900 
	M100,0 L100,900 
	M150,0 L150,900 
	M200,0 L200,900 
	M250,0 L250,900 
	M300,0 L300,900 
	M350,0 L350,900 
	M400,0 L400,900 
	M450,0 L450,900 
	M500,0 L500,900 
	M550,0 L550,900 
	M600,0 L600,900"
	style="stroke:#00f;stroke-width:1;opacity:0.25;" />

<!--
<circle id="mycircle" cx="0" cy="0" r="440" stroke-width="3" stroke="#1a488b" fill="none" />

SCALE for different aspect ratios:
600 = x/100 * 1600 => x = 60000/1600 = 37
1000 = x/100 * 1600 => x = 100000/1600 = 62

400 x 300

1000 - 200 = 800
800/4 = 200

A rx ry x-axis-rotation large-arc-flag sweep-flag x y
A 30 50 0 0 1 162.55 162.45

-->

	<!-- The building -->
	<path d="M0,850 L50,850 L50,200 L25,200 L25,150 
		L300,50 
		L575,150 L575,200 
		L550,200 
		L550,850 L600,850 L600,895 L0,895 Z" 
		style="stroke:#1a488b;stroke-width:10px;fill:#555;" />
	
	<!-- Sky is black. -->
	<path d="M0,850 L50,850 L50,200 L25,200 L25,150 
		L300,50 
		L575,150 L575,200 
		L550,200 
		L550,850 L600,850 L600,0 L0,0 Z" 
		style="stroke:#1a488b;stroke-width:1px;fill:#333;" />
	
	<g transform="translate(100,525)">
		<path id="target-a-border" 
			d="M50,0 L95,0 A5,5,0,0,1,100,5 
			L100,95 A5,5,0,0,1,95,100 L5,100 A5,5,0,0,1,0,95 L0,5 A5,5,0,0,1,5,0 Z" 
			stroke="#000" stroke-width="5px" fill="#aaa" />  <!-- fill="url(#gradLinear)" -->
		<image x="10" y="20" width="80" height="60" xlink:href="electricity.svg" />
		<rect id="target-a" class="surface" x="0" y="0" width="200" height="150" />
	</g>
	<g transform="translate(250,525)">
		<path id="target-b-border" 
			d="M50,0 L95,0 A5,5,0,0,1,100,5 
			L100,95 A5,5,0,0,1,95,100 L5,100 A5,5,0,0,1,0,95 L0,5 A5,5,0,0,1,5,0 Z" 
			stroke="#000" stroke-width="5px" fill="#aaa" />  <!-- fill="url(#gradLinear)" -->
		<image x="10" y="20" width="80" height="60" xlink:href="radiator.svg" />
		<rect id="target-b" class="surface" x="0" y="0" width="200" height="150" />
	</g>
	<g transform="translate(100,700)">
		<path id="target-c-border" 
			d="M50,0 L95,0 A5,5,0,0,1,100,5 
			L100,95 A5,5,0,0,1,95,100 L5,100 A5,5,0,0,1,0,95 L0,5 A5,5,0,0,1,5,0 Z" 
			stroke="#000" stroke-width="5px" fill="#aaa" />  <!-- fill="url(#gradLinear)" -->
		<image x="10" y="20" width="80" height="60" xlink:href="leaf.svg" />
		<rect id="target-c" class="surface" x="0" y="0" width="200" height="150" />
	</g>
	<g transform="translate(250,700)">
		<path id="target-d-border" 
			d="M50,0 L95,0 A5,5,0,0,1,100,5 
			L100,95 A5,5,0,0,1,95,100 L5,100 A5,5,0,0,1,0,95 L0,5 A5,5,0,0,1,5,0 Z" 
			stroke="#000" stroke-width="5px" fill="#aaa" />  <!-- fill="url(#gradLinear)" -->
		<rect id="target-d" class="surface" x="0" y="0" width="200" height="150" />
	</g>
	<g transform="translate(375,550)">
		<path id="door-border" d="M75,0 L150,0 L150,300 L0,300 L0,0 L75,0" 
			stroke="#000" stroke-width="5px" fill="#aaa" />
		<image x="30" y="100" width="150" height="225" xlink:href="user.svg" />
		<rect id="door" class="surface" x="0" y="0" width="200" height="300" />
	</g>
	
	<rect class="window" x="0" y="0" width="100" height="100" transform="translate(100,225)" />
	<rect class="window" x="0" y="0" width="100" height="100" transform="translate(100,375)" />
	<!--<rect class="window" x="0" y="0" width="150" height="100" transform="translate(350,550)" />-->
	
	<rect class="window" x="0" y="0" width="100" height="100" transform="translate(250,225)" />
	<rect class="window" x="0" y="0" width="100" height="100" transform="translate(250,375)" />
	<!--<rect class="window" x="0" y="0" width="150" height="100" transform="translate(600,550)" />-->
	
	<rect class="window" x="0" y="0" width="100" height="100" transform="translate(400,225)" />
	<rect class="window" x="0" y="0" width="100" height="100" transform="translate(400,375)" />
	<!--<rect class="window" x="0" y="0" width="150" height="100" transform="translate(850,550)" />-->
	<!--<rect class="window" x="0" y="0" width="150" height="100" transform="translate(1100,225)" />
	<rect class="window" x="0" y="0" width="150" height="100" transform="translate(1100,375)" />
	<rect class="window" x="0" y="0" width="150" height="100" transform="translate(1100,550)" />-->
</svg>
