<?xml version="1.0" encoding="UTF-8" standalone="no"?>
<svg width="1000" height="900" viewBox="-500 -450 1000 900" xmlns="http://www.w3.org/2000/svg" xmlns:xlink="http://www.w3.org/1999/xlink" preserveAspectRatio="xMinYMin meet">
<!--
iFLEX Dark blue   #1a488b ( 26,  72, 139)
iFLEX Dark green  #008245 (  0, 130,  69)
iFLEX Light green #78c51b (120, 197,  27)
-->
<style>
.surface {
	cursor: pointer;
	fill: #000;
	fill-opacity: 0;
}
.grid {
	stroke: #00f;
	stroke-width: 1;
	opacity: 0.2;
}
</style>
<defs>
	<radialGradient id="grad" cx="50%" cy="50%" r="100%">
		<stop offset="10%" style="stop-color:#fff; stop-opacity:1" />
		<stop offset="50%" style="stop-color:#eee; stop-opacity:1" />
		<stop offset="90%" style="stop-color:#ddd; stop-opacity:1" />
	</radialGradient>
	<linearGradient id="gradLinear" x1="0%" y1="0%" x2="0%" y2="100%" spreadMethod="pad"> <!-- gradientTransform="rotate(45)" -->
		<stop offset="0%"  stop-color="#999" stop-opacity="1"/>
		<stop offset="15%" stop-color="#ccc" stop-opacity="1"/>
		<stop offset="20%" stop-color="#ccc" stop-opacity="1"/>
		<stop offset="25%" stop-color="#ccc" stop-opacity="1"/>
		<stop offset="100%" stop-color="#777" stop-opacity="1"/>
	</linearGradient>
</defs>

<!-- Horizontal lines -->
<path class="grid" d="M-500,-450 L500,-450 
	M-500,-400 L500,-400 
	M-500,-350 L500,-350 
	M-500,-300 L500,-300 
	M-500,-250 L500,-250 
	M-500,-200 L500,-200 
	M-500,-150 L500,-150 
	M-500,-100 L500,-100 
	M-500,-50 L500,-50 
	M-500,0 L500,0 
	M-500,50 L500,50 
	M-500,100 L500,100 
	M-500,150 L500,150 
	M-500,200 L500,200 
	M-500,250 L500,250 
	M-500,300 L500,300 
	M-500,350 L500,350 
	M-500,400 L500,400 
	M-500,450 L500,450" />

<!-- Vertical lines -->
<path class="grid" d="M-500,-450 L-500,450 
	M-450,-450 L-450,450 
	M-400,-450 L-400,450 
	M-350,-450 L-350,450 
	M-300,-450 L-300,450 
	M-250,-450 L-250,450 
	M-200,-450 L-200,450 
	M-150,-450 L-150,450 
	M-100,-450 L-100,450 
	M-50,-450 L-50,450 
	M0,-450 L0,450 
	M50,-450 L50,450 
	M100,-450 L100,450 
	M150,-450 L150,450 
	M200,-450 L200,450 
	M250,-450 L250,450 
	M300,-450 L300,450 
	M350,-450 L350,450 
	M400,-450 L400,450 
	M450,-450 L450,450 
	M500,-450 L500,450" />

<!-- Big circle -->
<circle cx="0" cy="0" r="240" stroke="#ccc" stroke-width="2" fill="none" />
<circle cx="0" cy="0" r="230" stroke="#ccc" stroke-width="2" fill="none" />

<!-- Line and dot from electricity to building -->
<path d="M-250,-250 L-150,-150" stroke="#1a488b" stroke-width="2" opacity="0.5" fill="none" />
<circle cx="-150" cy="-150" r="5" stroke="#1a488b" stroke-width="2" opacity="0.5" fill="#1a488b" />
<!-- Electricity -->
<g transform="translate(-250,-250)">
	<circle id="target-a-border" cx="0" cy="0" r="100" stroke="#1a488b" stroke-width="2" opacity="0.5" fill="#fff" />
	<circle cx="0" cy="0" r="90" stroke="#1a488b" stroke-width="2" opacity="0.5" fill="#fff" />
	<circle cx="0" cy="0" r="60" stroke="#1a488b" stroke-width="0.5" opacity="1" fill="#fff" />
	<image x="-50" y="-37.5" width="100" height="75" xlink:href="electricity.svg" />
	<circle id="target-a" class="surface" x="0" y="0" r="100" />
</g>

<!-- Line and dot from district heating to building -->
<path d="M250,-250 L150,-150" stroke="#1a488b" stroke-width="2" opacity="0.5" fill="none" />
<circle cx="150" cy="-150" r="5" stroke="#1a488b" stroke-width="2" opacity="0.5" fill="#1a488b" />
<!-- District heating -->
<g transform="translate(250,-250)">
	<circle id="target-b-border" cx="0" cy="0" r="100" stroke="#1a488b" stroke-width="2" opacity="0.5" fill="#fff" />
	<circle cx="0" cy="0" r="90" stroke="#1a488b" stroke-width="2" opacity="0.5" fill="#fff" />
	<circle cx="0" cy="0" r="60" stroke="#1a488b" stroke-width="0.5" opacity="1" fill="#fff" />
	<image x="-50" y="-37.5" width="100" height="75" xlink:href="radiator.svg" />
	<circle id="target-b" class="surface" x="0" y="0" r="100" />
</g>

<!-- Line and dot from CO2 to building -->
<path d="M-250,250 L-150,150" stroke="#1a488b" stroke-width="2" opacity="0.5" fill="none" />
<circle cx="-150" cy="150" r="5" stroke="#1a488b" stroke-width="2" opacity="0.5" fill="#1a488b" />
<!-- CO2 -->
<g transform="translate(-250,250)">
	<circle id="target-c-border" cx="0" cy="0" r="100" stroke="#1a488b" stroke-width="2" opacity="0.5" fill="#fff" />
	<circle cx="0" cy="0" r="90" stroke="#1a488b" stroke-width="2" opacity="0.5" fill="#fff" />
	<circle cx="0" cy="0" r="60" stroke="#1a488b" stroke-width="0.5" opacity="1" fill="#fff" />
	<image x="-50" y="-37.5" width="100" height="75" xlink:href="leaf.svg" />
	<circle id="target-c" class="surface" x="0" y="0" r="100" />
</g>

<!-- Line and dot from CO2 to building -->
<path d="M250,250 L150,150" stroke="#1a488b" stroke-width="2" opacity="0.5" fill="none" />
<circle cx="150" cy="150" r="5" stroke="#1a488b" stroke-width="2" opacity="0.5" fill="#1a488b" />
<!-- Feedback -->
<g transform="translate(250,250)">
	<circle id="target-d-border" cx="0" cy="0" r="100" stroke="#1a488b" stroke-width="2" opacity="0.5" fill="#fff" />
	<circle cx="0" cy="0" r="90" stroke="#1a488b" stroke-width="2" opacity="0.5" fill="#fff" />
	<circle cx="0" cy="0" r="60" stroke="#1a488b" stroke-width="0.5" opacity="1" fill="#fff" />
	<image x="-50" y="-37.5" width="100" height="75" xlink:href="feedback.svg" />
	<circle id="target-d" class="surface" x="0" y="0" r="100" />
</g>

<!-- Building -->
<path d="M-150,150 L-150,-150 L0,-200 L150,-150 L150,150 Z" stroke="#1a488b" stroke-width="12" fill="none" opacity="0.3" />

<!-- Door -->
<path d="M-25,150 L-25,75 L25,75 L25,150" stroke="#1a488b" stroke-width="8" fill="none" opacity="0.15" />

<!-- Windows -->
<path d="M-25,25 L-25,-25 L25,-25 L25,25 Z" stroke="#1a488b" stroke-width="8" fill="none" opacity="0.15" transform="translate(-100,100)" />
<path d="M-25,25 L-25,-25 L25,-25 L25,25 Z" stroke="#1a488b" stroke-width="8" fill="none" opacity="0.15" transform="translate(100,100)" />

<path d="M-25,25 L-25,-25 L25,-25 L25,25 Z" stroke="#1a488b" stroke-width="8" fill="none" opacity="0.15" transform="translate(-100,0)" />
<path d="M-25,25 L-25,-25 L25,-25 L25,25 Z" stroke="#1a488b" stroke-width="8" fill="none" opacity="0.15" />
<path d="M-25,25 L-25,-25 L25,-25 L25,25 Z" stroke="#1a488b" stroke-width="8" fill="none" opacity="0.15" transform="translate(100,0)" />

<path d="M-25,25 L-25,-25 L25,-25 L25,25 Z" stroke="#1a488b" stroke-width="8" fill="none" opacity="0.15" transform="translate(-100,-100)" />
<path d="M-25,25 L-25,-25 L25,-25 L25,25 Z" stroke="#1a488b" stroke-width="8" fill="none" opacity="0.15" transform="translate(0,-100)" />
<path d="M-25,25 L-25,-25 L25,-25 L25,25 Z" stroke="#1a488b" stroke-width="8" fill="none" opacity="0.15" transform="translate(100,-100)" />

<!-- User -->
<g id="user-button-wrapper" transform="translate(0,0)">
	<!--
	<circle id="target-e-border" cx="0" cy="0" r="100" stroke="#1a488b" stroke-width="2" opacity="0.5" fill="#fff" />
	<circle cx="0" cy="0" r="90" stroke="#1a488b" stroke-width="2" opacity="0.5" fill="#fff" />
	<circle cx="0" cy="0" r="60" stroke="#1a488b" stroke-width="0.5" opacity="1" fill="#fff" />
	<image x="-50" y="-37.5" width="100" height="75" xlink:href="user.svg" />
	<circle id="target-e" class="surface" x="0" y="0" r="100" />
	-->
</g>

</svg>
