<?xml version="1.0" encoding="UTF-8" standalone="no"?>
<svg width="1000" height="900" viewBox="0 0 1000 900" xmlns="http://www.w3.org/2000/svg" xmlns:xlink="http://www.w3.org/1999/xlink" preserveAspectRatio="xMinYMin meet">
<!--
iFLEX Dark blue   #1a488b ( 26,  72, 139)
iFLEX Dark green  #008245 (  0, 130,  69)
iFLEX Light green #78c51b (120, 197,  27)
-->
<style>
.surface {
	cursor: pointer;
	fill: #000;
	fill-opacity: 0;
}
.window {
	fill: #eee;
	stroke-width: 10;
	stroke: #1a488b;
	fill-opacity: 1;
}
/*
.section-title {
	opacity: 0.75;
	font-family: "Arial, Helvetica, sans-serif";
	font-size: 70px;
	fill: #008245;
	stroke-width: 1;
}
*/
</style>
<defs>
	<radialGradient id="grad" cx="50%" cy="50%" r="100%">
		<stop offset="10%" style="stop-color:#fff; stop-opacity:1" />
		<stop offset="50%" style="stop-color:#ddd; stop-opacity:1" />
		<stop offset="90%" style="stop-color:#bbb; stop-opacity:1" />
	</radialGradient>
	<linearGradient id="gradLinear" x1="0%" y1="0%" x2="0%" y2="100%" spreadMethod="pad"> <!-- gradientTransform="rotate(45)" -->
		<stop offset="0%"  stop-color="#999" stop-opacity="1"/>
		<stop offset="15%" stop-color="#ccc" stop-opacity="1"/>
		<stop offset="20%" stop-color="#ccc" stop-opacity="1"/>
		<stop offset="25%" stop-color="#ccc" stop-opacity="1"/>
		<stop offset="100%" stop-color="#777" stop-opacity="1"/>
	</linearGradient>
</defs>
<!--
<stop offset="50%" stop-color="black" stop-opacity="0"/>
-->
<!--
<rect id="myrect" x="0" y="0" width="1600" height="900" fill="url(#grad)" stroke-width="0" stroke="#000" />
-->

<!-- Horizontal lines -->
<path d="M0,0 L1000,0 
	M0,50 L1000,50 
	M0,100 L1000,100 
	M0,150 L1000,150 
	M0,200 L1000,200 
	M0,250 L1000,250 
	M0,300 L1000,300 
	M0,350 L1000,350 
	M0,400 L1000,400 
	M0,450 L1000,450 
	M0,500 L1000,500 
	M0,550 L1000,550 
	M0,600 L1000,600 
	M0,650 L1000,650 
	M0,700 L1000,700 
	M0,750 L1000,750 
	M0,800 L1000,800 
	M0,850 L1000,850 
	M0,900 L1000,900"
	style="stroke:#00f;stroke-width:1;opacity:0.25;" />
<!-- Vertical lines -->
<path d="M0,0 L0,900 
	M50,0 L50,900 
	M100,0 L100,900 
	M150,0 L150,900 
	M200,0 L200,900 
	M250,0 L250,900 
	M300,0 L300,900 
	M350,0 L350,900 
	M400,0 L400,900 
	M450,0 L450,900 
	M500,0 L500,900 
	M550,0 L550,900 
	M600,0 L600,900 
	M650,0 L650,900 
	M700,0 L700,900 
	M750,0 L750,900 
	M800,0 L800,900 
	M850,0 L850,900 
	M900,0 L900,900 
	M950,0 L950,900 
	M1000,0 L1000,900"
	style="stroke:#00f;stroke-width:1;opacity:0.25;" />

<!--
<circle id="mycircle" cx="0" cy="0" r="440" stroke-width="3" stroke="#1a488b" fill="none" />

SCALE for different aspect ratios:
600 = x/100 * 1600 => x = 60000/1600 = 37
1000 = x/100 * 1600 => x = 100000/1600 = 62

400 x 300

1000 - 200 = 800
800/4 = 200

A rx ry x-axis-rotation large-arc-flag sweep-flag x y
A 30 50 0 0 1 162.55 162.45

-->

<!-- The building -->
<path d="M0,850 L100,850 L100,200 L75,200 L75,150 
	L500,50 
	L925,150 L925,200 
	L900,200 
	L900,850 L1000,850 L1000,895 L0,895 Z" 
	style="stroke:#1a488b;stroke-width:10px;fill:#555;" />

<!-- Sky is black. -->
<path d="M0,850 L100,850 L100,200 L75,200 L75,150 
	L500,50 
	L925,150 L925,200 
	L900,200 
	L900,850 L1000,850 L1000,0 L0,0 Z" 
	style="stroke:#1a488b;stroke-width:1px;fill:#333;" />
	
	
	
	<g transform="translate(150,525)">
		<path id="target-a-border" d="M100,0 L180,0 A20,20,0,0,1,200,20 L200,130 A20,20,0,0,1,180,150 L20,150 A20,20,0,0,1,0,130 L0,20 A20,20,0,0,1,20,0 Z" 
			stroke="#000" stroke-width="5px" fill="#aaa" />
		<image x="50" y="37" width="100" height="75" xlink:href="electricity.svg" />
		<rect id="target-a" class="surface" x="0" y="0" width="200" height="150" />
	</g>
	<g transform="translate(400,525)">
		<path id="target-b-border" d="M100,0 L180,0 A20,20,0,0,1,200,20 L200,130 A20,20,0,0,1,180,150 L20,150 A20,20,0,0,1,0,130 L0,20 A20,20,0,0,1,20,0 Z" 
			stroke="#000" stroke-width="5px" fill="#aaa" />
		<image x="50" y="37" width="100" height="75" xlink:href="radiator.svg" />
		<rect id="target-b" class="surface" x="0" y="0" width="200" height="150" />
	</g>
	<g transform="translate(150,700)">
		<path id="target-c-border" d="M100,0 L180,0 A20,20,0,0,1,200,20 L200,130 A20,20,0,0,1,180,150 L20,150 A20,20,0,0,1,0,130 L0,20 A20,20,0,0,1,20,0 Z" 
			stroke="#000" stroke-width="5px" fill="#aaa" />
		<image x="50" y="37" width="100" height="75" xlink:href="leaf.svg" />
		<rect id="target-c" class="surface" x="0" y="0" width="200" height="150" />
	</g>
	<g transform="translate(400,700)">
		<path id="target-d-border" d="M100,0 L180,0 A20,20,0,0,1,200,20 L200,130 A20,20,0,0,1,180,150 L20,150 A20,20,0,0,1,0,130 L0,20 A20,20,0,0,1,20,0 Z" 
			stroke="#000" stroke-width="5px" fill="#aaa" />
		<rect id="target-d" class="surface" x="0" y="0" width="200" height="150" />
	</g>
	<g transform="translate(650,550)">
		<path id="door-border" d="M100,0 L200,0 L200,300 L0,300 L0,0 L100,0" 
			stroke="#000" stroke-width="5px" fill="#aaa" />
		<image x="40" y="100" width="150" height="225" xlink:href="user.svg" />
		<rect id="door" class="surface" x="0" y="0" width="200" height="300" />
	</g>
	
	<rect class="window" x="0" y="0" width="100" height="100" transform="translate(150,225)" />
	<rect class="window" x="0" y="0" width="100" height="100" transform="translate(150,375)" />
	
	<rect class="window" x="0" y="0" width="100" height="100" transform="translate(350,225)" />
	<rect class="window" x="0" y="0" width="100" height="100" transform="translate(350,375)" />
	
	<rect class="window" x="0" y="0" width="100" height="100" transform="translate(550,225)" />
	<rect class="window" x="0" y="0" width="100" height="100" transform="translate(550,375)" />
	
	<rect class="window" x="0" y="0" width="100" height="100" transform="translate(750,225)" />
	<rect class="window" x="0" y="0" width="100" height="100" transform="translate(750,375)" />
</svg>
