<?xml version="1.0" encoding="UTF-8" standalone="no"?>
<svg width="400" height="300" viewBox="0 0 400 300" xmlns="http://www.w3.org/2000/svg" preserveAspectRatio="xMinYMin meet">
<style>
.outline {
	opacity: 0.75;
	stroke-width: 10;
	stroke: #000;
	fill: url(#grad);
}
</style>
<defs>
	<linearGradient id="grad" x1="0%" y1="0%" x2="0%" y2="100%">
		<stop offset="0%" style="stop-color:rgb(255,0,0);stop-opacity:1" />
		<stop offset="100%" style="stop-color:rgb(0,0,255);stop-opacity:1" />
	</linearGradient>
</defs>
<path class="outline" d="M40,270 L40,80 L10,80 
	A10,10 0 0,1 10,60 
	L40,60 L40,30 A20,20 0 0,1 80,30 L80,60 
	L100,60 L100,30 A20,20 0 0,1 140,30 L140,60 
	L160,60 L160,30 A20,20 0 0,1 200,30 L200,60 
	L220,60 L220,30 A20,20 0 0,1 260,30 L260,60 
	L280,60 L280,30 A20,20 0 0,1 320,30 L320,60 
	L350,60 A10,10 0 0,0 360,50 
	L360,10 A10,10 0 0,1 380,10 
	L380,65 A20,20 0 0,1 365,80 L320,80 
	L320,270 A20,20 0 0,1 280,270 L280,80 L260,80 
	L260,270 A20,20 0 0,1 220,270 L220,80 L200,80 
	L200,270 A20,20 0 0,1 160,270 L160,80 L140,80 
	L140,270 A20,20 0 0,1 100,270 L100,80 L80,80 
	L80,270 A20,20 0 0,1 40,270" />
</svg>
