<?xml version="1.0" encoding="UTF-8" standalone="no"?>
<svg width="200" height="300" viewBox="-100 -150 200 300" xmlns="http://www.w3.org/2000/svg" preserveAspectRatio="xMinYMin meet">
<!--
iFLEX Dark blue   #1a488b ( 26,  72, 139)
iFLEX Dark green  #008245 (  0, 130,  69)
iFLEX Light green #78c51b (120, 197,  27)

Skin color:       #ffe0b2 orange lighten-4

Two classes to change:

skin-grey => skin-color
body-grey => body-color
-->
<style>
.outline {
	stroke-width: 4;
	stroke: #000;
	fill: none;
}
.eye {
	stroke-width: 4;
	stroke: #000;
	fill: #000;
}
.skin-grey {
	stroke-width: 4;
	stroke: #000;
	fill: #ccc;
}
.skin-color {
	stroke-width: 4;
	stroke: #000;
	fill: #ffe0b2;
}
.body-grey {
	stroke-width: 4;
	stroke: #000;
	fill: #ccc;
}
.body-color {
	stroke-width: 4;
	stroke: #000;
	fill: #78c51b;
}
</style>
<!--<rect x="-100" y="-150" width="200" height="300" style="opacity:1;stroke-width:2;stroke:#f00;fill:none;" />-->
<!-- head -->
<circle class="skin-grey" cx="0" cy="-95" r="45" />
<!-- eyes -->
<circle class="eye" cx="-20" cy="-105" r="5" />
<circle class="eye" cx="20" cy="-105" r="5" />
<!-- mouth -->
<path class="outline" d="M-20,-75 L20,-75" />

<!-- body -->
<path class="body-grey" d="M0,-50 L-40,-50 A20,20,1,0,0,-60,-30 L-60,50 L60,50 L60,-30 A20,20,1,0,0,40,-50 L0,-50" />

<!-- hands -->
<path class="skin-grey" d="M-60,50 L-60,60 A15,15,1,0,0,-30,60 L-30,50" />
<path class="skin-grey" d="M30,50 L30,60 A15,15,1,0,0,60,60 L60,50" />

<path class="outline" d="M-30,50 L-30,-20" />
<path class="outline" d="M30,50 L30,-20" />

<!-- legs -->
<path class="body-grey" d="M-30,50 L-30,120 L-50,120 A20,20,1,0,0,-70,140 L70,140 A20,20,1,0,0,50,120 L30,120 L30,50" />
<path class="outline" d="M0,50 L0,140" />
</svg>
