<?xml version="1.0" encoding="UTF-8" standalone="no"?>
<svg width="1000" height="1000" viewBox="-500 -500 1000 1000" xmlns="http://www.w3.org/2000/svg" xmlns:xlink="http://www.w3.org/1999/xlink" preserveAspectRatio="xMinYMin meet">
<style>
.hex {
	cursor: pointer;
	fill-opacity: 0.05;
	stroke: #000;
	stroke-width: 0.01;
	fill: #012265;
}
</style>
<!-- Horizontal lines -->
<path d="M-500,-500 L500,-500 
	M-500,-400 L500,-400 
	M-500,-300 L500,-300 
	M-500,-200 L500,-200 
	M-500,-100 L500,-100 
	M-500,0 L500,0 
	M-500,100 L500,100 
	M-500,200 L500,200 
	M-500,300 L500,300 
	M-500,400 L500,400 
	M-500,500 L500,500"
	style="stroke:#00f;stroke-width:1;opacity:0.25;" />
<!-- Vertical lines -->
<path d="M-500,-500 L-500,500 
	M-400,-500 L-400,500 
	M-300,-500 L-300,500 
	M-200,-500 L-200,500 
	M-100,-500 L-100,500 
	M0,-500 L0,500 
	M100,-500 L100,500 
	M200,-500 L200,500 
	M300,-500 L300,500 
	M400,-500 L400,500 
	M500,-500 L500,500"
	style="stroke:#00f;stroke-width:1;opacity:0.25;" />
<polygon class="hex" id="hex-a" points="0,-1 -0.866,-0.5 -0.866,0.5 0,1 0.866,0.5 0.866,-0.5" transform="rotate(90) scale(100)" />
</svg>
