<?xml version="1.0" encoding="UTF-8" standalone="no"?>
<svg width="2200" height="400" viewBox="0 0 2200 400" xmlns="http://www.w3.org/2000/svg" xmlns:xlink="http://www.w3.org/1999/xlink" preserveAspectRatio="xMinYMin meet">
<!--
<style>
</style>
-->
<!--
<rect x="2" y="2" width="2196" height="396" style="stroke-width:4; stroke:#00f; fill:none; opacity:0.8" />
-->
<defs>
	<linearGradient id="vgrad" x1="0%" y1="0%" x2="100%" y2="0%">
		<stop offset="10%" style="stop-color:rgb(0,0,0);stop-opacity:0.5" />
		<stop offset="50%" style="stop-color:rgb(255,255,255);stop-opacity:0.2" />
		<stop offset="90%" style="stop-color:rgb(0,0,0);stop-opacity:0.5" />
	</linearGradient>
	<linearGradient id="hgrad" x1="0%" y1="0%" x2="0%" y2="100%">
		<stop offset="10%" style="stop-color:rgb(0,0,0);stop-opacity:0.5" />
		<stop offset="50%" style="stop-color:rgb(255,255,255);stop-opacity:0.2" />
		<stop offset="90%" style="stop-color:rgb(0,0,0);stop-opacity:0.5" />
	</linearGradient>
</defs>
<!-- Ten grey boxes, first one is 400x400 others 200x200 -->
<!--
<svg x="0" y="0" width="400" height="400">
	<rect x="5" y="5" width="390" height="390" style="stroke-width:10; stroke:#888; fill:none; opacity:0.1" />
</svg>
<svg x="400" y="150" width="200" height="200">
	<rect x="5" y="5" width="190" height="190" style="stroke-width:10; stroke:#888; fill:none; opacity:0.1" />
</svg>
<svg x="600" y="150" width="200" height="200">
	<rect x="5" y="5" width="190" height="190" style="stroke-width:10; stroke:#888; fill:none; opacity:0.1" />
</svg>
<svg x="800" y="150" width="200" height="200">
	<rect x="5" y="5" width="190" height="190" style="stroke-width:10; stroke:#888; fill:none; opacity:0.1" />
</svg>
<svg x="1000" y="150" width="200" height="200">
	<rect x="5" y="5" width="190" height="190" style="stroke-width:10; stroke:#888; fill:none; opacity:0.1" />
</svg>
<svg x="1200" y="150" width="200" height="200">
	<rect x="5" y="5" width="190" height="190" style="stroke-width:10; stroke:#888; fill:none; opacity:0.1" />
</svg>
<svg x="1400" y="150" width="200" height="200">
	<rect x="5" y="5" width="190" height="190" style="stroke-width:10; stroke:#888; fill:none; opacity:0.1" />
</svg>
<svg x="1600" y="150" width="200" height="200">
	<rect x="5" y="5" width="190" height="190" style="stroke-width:10; stroke:#888; fill:none; opacity:0.1" />
</svg>
<svg x="1800" y="150" width="200" height="200">
	<rect x="5" y="5" width="190" height="190" style="stroke-width:10; stroke:#888; fill:none; opacity:0.1" />
</svg>
<svg x="2000" y="150" width="200" height="200">
	<rect x="5" y="5" width="190" height="190" style="stroke-width:10; stroke:#888; fill:none; opacity:0.1" />
</svg>
-->
<!--
<path id="overline-path" d="M0,200 L2200,200"
	style="stroke:#000;stroke-width:0;stroke-dasharray:0px 0px;fill:none;">
	<animate id="overline-path-animate" attributeName="stroke-dashoffset" begin="15s" from="0" to="0" dur="4s" repeatCount="1" />
</path>
-->

<!-- stroke-width is set to 10 in JavaScript code -->
<path id="first-letter-path" d="M100,390 L340,390 L320,390 L320,90 L210,90 L480,90 L480,110 L500,110 L500,20 L30,20 L30,110 L50,110 L50,90 L210,90"
	style="stroke:#555;stroke-width:0;stroke-linecap:round;stroke-linejoin:round;stroke-dasharray:0px 0px;fill:none;">
	<animate id="first-letter-path-animate" attributeName="stroke-dashoffset" begin="1s" from="0" to="0" dur="4s" repeatCount="1" />
</path>

<circle id="c1" cx="220" cy="90" r="40" stroke-width="0" stroke="#ccc" fill="#eee" />
<circle id="c2" cx="220" cy="153.5" r="40" stroke-width="0" stroke="#ccc" fill="#eee" />
<circle id="c3" cx="220" cy="217" r="40" stroke-width="0" stroke="#ccc" fill="#eee" />
<circle id="c4" cx="220" cy="280.5" r="40" stroke-width="0" stroke="#ccc" fill="#eee" />
<circle id="c5" cx="220" cy="344" r="40" stroke-width="0" stroke="#ccc" fill="#eee" />

<path id="first-letter-addpath" d="M120,390 
			L120,344 L180,344 L120,344 
			L120,276 L180,276 L120,276 
			L120,214 L180,214 L120,214
			L120,152 L180,152 L120,152
			L120,90 L170,90 L120,90"
	style="stroke:#555;stroke-width:0;stroke-linecap:round;stroke-linejoin:round;stroke-dasharray:0px 0px;fill:none;">
	<animate id="first-letter-addpath-animate" attributeName="stroke-dashoffset" begin="2s" from="0" to="0" dur="4s" repeatCount="1" />
</path>

<!--
<path d="M260,380 L260,80 L320,80 L320,380 L260,380" style="stroke:#333;stroke-width:10;fill:url(#vgrad);" />
<path d="M30,20 L30,80 L510,80 L510,20 L30,20" style="stroke:#333;stroke-width:10;fill:url(#hgrad);" />
-->

<!-- width 40 -->
<path id="second-letter-path" d="M-70,195 L0,195 L80,5 L160,195 L200,195 L120,5 L70,5 L80,5 L120,100 L40,100"
	style="stroke:#555;stroke-width:0;stroke-linecap:round;stroke-linejoin:round;stroke-dasharray:0px 0px;fill:none; transform: translate(390px,150px);">
	<animate id="second-letter-path-animate" attributeName="stroke-dashoffset" begin="3s" from="0" to="0" dur="4s" repeatCount="1" />
</path>

<path id="third-letter-path" d="M0,195 L90,195 L20,195 L20,5 L0,5 L90,5 L70,5 L70,195 L70,100 L130,100 L130,195 L110,195 L190,195 L180,195 L180,5 L190,5 L110,5 L130,5 L130,100"
	style="stroke:#555;stroke-width:0;stroke-linecap:round;stroke-linejoin:round;stroke-dasharray:0px 0px;fill:none; transform: translate(590px,150px);">
	<animate id="third-letter-path-animate" attributeName="stroke-dashoffset" begin="4s" from="0" to="0" dur="4s" repeatCount="1" />
</path>

<path id="fourth-letter-path" d="M10,195 L90,195 L20,195 L20,5 L10,5 L90,5 L70,5 L70,195 L70,100 L190,5 L102,76 L194,195 L200,195 L130,195 L140,195 L70,100"
	style="stroke:#555;stroke-width:0;stroke-linecap:round;stroke-linejoin:round;stroke-dasharray:0px 0px;fill:none; transform: translate(790px,150px);">
	<animate id="fourth-letter-path-animate" attributeName="stroke-dashoffset" begin="5s" from="0" to="0" dur="4s" repeatCount="1" />
</path>

<!--  O Outer arc -->
<path id="fifth-letter-outerpath" d="M100,195 A100,95 0 0,1 100,5 A100,95 0 0,1 100,195"
	style="stroke:#555;stroke-width:0;stroke-linecap:round;stroke-linejoin:round;stroke-dasharray:0px 0px;fill:none; transform: translate(990px,150px);">
	<animate id="fifth-letter-outerpath-animate" attributeName="stroke-dashoffset" begin="6s" from="0" to="0" dur="4s" repeatCount="1" />
</path>
<!--  O Inner arc -->
<path id="fifth-letter-innerpath" d="M100,180 A50,80 0 0,1 100,20 A50,80 0 0,1 100,180"
	style="stroke:#555;stroke-width:0;stroke-linecap:round;stroke-linejoin:round;stroke-dasharray:0px 0px;fill:none; transform: translate(990px,150px);">
	<animate id="fifth-letter-innerpath-animate" attributeName="stroke-dashoffset" begin="7s" from="0" to="0" dur="4s" repeatCount="1" />
</path>

<!-- Fill to letter O with some bright color (orange)! -->
<path id="fifth-letter-fill" d="M100,186.75 A91.5,86.75 0 0,1 100,13.25 A91.5,86.75 0 0,1 100,186.75
								M100,186.75 A84.5,86.75 0 0,1 100,13.25 A84.5,86.75 0 0,1 100,186.75
								M100,186.75 A77.5,86.75 0 0,1 100,13.25 A77.5,86.75 0 0,1 100,186.75
								M100,186.75 A70.5,86.75 0 0,1 100,13.25 A70.5,86.75 0 0,1 100,186.75
								M100,186.75 A63.5,86.75 0 0,1 100,13.25 A63.5,86.75 0 0,1 100,186.75
								M100,186.75 A56.5,86.75 0 0,1 100,13.25 A56.5,86.75 0 0,1 100,186.75"
	style="stroke:#555;stroke-width:0;stroke-linecap:round;stroke-linejoin:round;stroke-dasharray:0px 0px;fill:none; transform: translate(990px,150px);">
	<animate id="fifth-letter-fill-animate" attributeName="stroke-dashoffset" begin="14s" from="0" to="0" dur="4s" repeatCount="1" />
</path>

<path id="sixth-letter-path" d="M0,5 L80,195 L120,195 L200,5 L120,195 L40,5 L-250,5"
	style="stroke:#555;stroke-width:0;stroke-linecap:round;stroke-linejoin:round;stroke-dasharray:0px 0px;fill:none; transform: translate(1190px,150px);">
	<animate id="sixth-letter-path-animate" attributeName="stroke-dashoffset" begin="9s" from="0" to="0" dur="4s" repeatCount="1" />
</path>

<path id="seventh-letter-path" d="M0,195 L80,5 L160,195 L200,195 L120,5 L0,5 L80,5 L120,100 L40,100"
	style="stroke:#555;stroke-width:0;stroke-linecap:round;stroke-linejoin:round;stroke-dasharray:0px 0px;fill:none; transform: translate(1390px,150px);">
	<animate id="seventh-letter-path-animate" attributeName="stroke-dashoffset" begin="9s" from="0" to="0" dur="4s" repeatCount="1" />
</path>

<path id="eight-letter-path" d="M0,195 L80,5 L160,195 L200,195 L120,5 L70,5 L80,5 L120,100 L40,100"
	style="stroke:#555;stroke-width:0;stroke-linecap:round;stroke-linejoin:round;stroke-dasharray:0px 0px;fill:none; transform: translate(1590px,150px);">
	<animate id="eight-letter-path-animate" attributeName="stroke-dashoffset" begin="9s" from="0" to="0" dur="4s" repeatCount="1" />
</path>

<path id="ninth-letter-outerpath" d="M0,195 L90,195 L20,195 L20,5 L0,5 L130,5 A65,50 0 0,1 130,105 L120,105 L193,195 L220,195 L120,195 L140,195 L70,105 L70,195"
	style="stroke:#555;stroke-width:0;stroke-linecap:round;stroke-linejoin:round;stroke-dasharray:0px 0px;fill:none; transform: translate(1790px,150px);">
	<animate id="ninth-letter-outerpath-animate" attributeName="stroke-dashoffset" begin="9s" from="0" to="0" dur="4s" repeatCount="1" />
</path>
<path id="ninth-letter-innerpath" d="M70,25 L130,25 A27.5,27.5 0 0,1 130,85 L70,85 L70,25"
	style="stroke:#555;stroke-width:0;stroke-linecap:round;stroke-linejoin:round;stroke-dasharray:0px 0px;fill:none; transform: translate(1790px,150px);">
	<animate id="ninth-letter-innerpath-animate" attributeName="stroke-dashoffset" begin="9s" from="0" to="0" dur="4s" repeatCount="1" />
</path>

<path id="tenth-letter-path" d="M0,195 L80,5 L160,195 L210,195 L200,195 L120,5 L70,5 L80,5 L120,100 L40,100"
	style="stroke:#555;stroke-width:0;stroke-linecap:round;stroke-linejoin:round;stroke-dasharray:0px 0px;fill:none; transform: translate(1990px,150px);">
	<animate id="tenth-letter-path-animate" attributeName="stroke-dashoffset" begin="9s" from="0" to="0" dur="4s" repeatCount="1" />
</path>
</svg>
