<?xml version="1.0" encoding="UTF-8" standalone="no"?>
<svg width="2200" height="400" viewBox="0 0 2200 400" xmlns="http://www.w3.org/2000/svg" xmlns:xlink="http://www.w3.org/1999/xlink" preserveAspectRatio="xMinYMin meet">
<!--
<style>
</style>
-->
<!--
<rect x="2" y="2" width="2196" height="396" style="stroke-width:4; stroke:#00f; fill:none; opacity:0.8" />
-->
<defs>
	<linearGradient id="vgrad" x1="0%" y1="0%" x2="100%" y2="0%">
		<stop offset="10%" style="stop-color:rgb(0,0,0);stop-opacity:0.5" />
		<stop offset="50%" style="stop-color:rgb(255,255,255);stop-opacity:0.2" />
		<stop offset="90%" style="stop-color:rgb(0,0,0);stop-opacity:0.5" />
	</linearGradient>
	<linearGradient id="hgrad" x1="0%" y1="0%" x2="0%" y2="100%">
		<stop offset="10%" style="stop-color:rgb(0,0,0);stop-opacity:0.5" />
		<stop offset="50%" style="stop-color:rgb(255,255,255);stop-opacity:0.2" />
		<stop offset="90%" style="stop-color:rgb(0,0,0);stop-opacity:0.5" />
	</linearGradient>
</defs>
<!-- Ten grey boxes, first one is 400x400 others 200x200 -->
<!--
<svg x="0" y="0" width="400" height="400">
	<rect x="5" y="5" width="390" height="390" style="stroke-width:10; stroke:#888; fill:none; opacity:0.1" />
</svg>
<svg x="400" y="150" width="200" height="200">
	<rect x="5" y="5" width="190" height="190" style="stroke-width:10; stroke:#888; fill:none; opacity:0.1" />
</svg>
<svg x="600" y="150" width="200" height="200">
	<rect x="5" y="5" width="190" height="190" style="stroke-width:10; stroke:#888; fill:none; opacity:0.1" />
</svg>
<svg x="800" y="150" width="200" height="200">
	<rect x="5" y="5" width="190" height="190" style="stroke-width:10; stroke:#888; fill:none; opacity:0.1" />
</svg>
<svg x="1000" y="150" width="200" height="200">
	<rect x="5" y="5" width="190" height="190" style="stroke-width:10; stroke:#888; fill:none; opacity:0.1" />
</svg>
<svg x="1200" y="150" width="200" height="200">
	<rect x="5" y="5" width="190" height="190" style="stroke-width:10; stroke:#888; fill:none; opacity:0.1" />
</svg>
<svg x="1400" y="150" width="200" height="200">
	<rect x="5" y="5" width="190" height="190" style="stroke-width:10; stroke:#888; fill:none; opacity:0.1" />
</svg>
<svg x="1600" y="150" width="200" height="200">
	<rect x="5" y="5" width="190" height="190" style="stroke-width:10; stroke:#888; fill:none; opacity:0.1" />
</svg>
<svg x="1800" y="150" width="200" height="200">
	<rect x="5" y="5" width="190" height="190" style="stroke-width:10; stroke:#888; fill:none; opacity:0.1" />
</svg>
<svg x="2000" y="150" width="200" height="200">
	<rect x="5" y="5" width="190" height="190" style="stroke-width:10; stroke:#888; fill:none; opacity:0.1" />
</svg>
-->

<!-- stroke-width is set to 10 in JavaScript code -->
<path id="first-letter-path" d="M100,390 L340,390 L320,390 L320,90 L210,90 L480,90 L480,110 L500,110 L500,20 L30,20 L30,110 L50,110 L50,90 L210,90"
	style="stroke:#555;stroke-width:0;stroke-linecap:round;stroke-linejoin:round;stroke-dasharray:0px 0px;fill:none;">
	<animate id="first-letter-path-animate" attributeName="stroke-dashoffset" begin="1s" from="0" to="0" dur="4s" repeatCount="1" />
</path>

<circle id="c1" cx="220" cy="90" r="40" stroke-width="0" stroke="#ccc" fill="#eee" />
<circle id="c2" cx="220" cy="153.5" r="40" stroke-width="0" stroke="#ccc" fill="#eee" />
<circle id="c3" cx="220" cy="217" r="40" stroke-width="0" stroke="#ccc" fill="#eee" />
<circle id="c4" cx="220" cy="280.5" r="40" stroke-width="0" stroke="#ccc" fill="#eee" />
<circle id="c5" cx="220" cy="344" r="40" stroke-width="0" stroke="#ccc" fill="#eee" />

<path id="first-letter-addpath" d="M120,390 
			L120,344 L180,344 L120,344 
			L120,276 L180,276 L120,276 
			L120,214 L180,214 L120,214
			L120,152 L180,152 L120,152
			L120,90 L170,90 L120,90
			"
	style="stroke:#555;stroke-width:0;stroke-linecap:round;stroke-linejoin:round;stroke-dasharray:0px 0px;fill:none;">
	<animate id="first-letter-addpath-animate" attributeName="stroke-dashoffset" begin="1s" from="0" to="0" dur="4s" repeatCount="1" />
</path>

<!--
<path d="M260,380 L260,80 L320,80 L320,380 L260,380" style="stroke:#333;stroke-width:10;fill:url(#vgrad);" />
<path d="M30,20 L30,80 L510,80 L510,20 L30,20" style="stroke:#333;stroke-width:10;fill:url(#hgrad);" />
-->

<!-- width 40 -->
<path id="second-letter-path" d="M-70,195 L0,195 L80,5 L160,195 L200,195 L120,5 L70,5 L80,5 L120,100 L40,100"
	style="stroke:#555;stroke-width:0;stroke-linecap:round;stroke-linejoin:round;stroke-dasharray:0px 0px;fill:none; transform: translate(390px,150px);">
	<animate id="second-letter-path-animate" attributeName="stroke-dashoffset" begin="1s" from="0" to="0" dur="4s" repeatCount="1" />
</path>



<path id="third-letter-path" d="M0,195 L90,195 L20,195 L20,5 L0,5 L90,5 L70,5 L70,195 L70,100 L130,100 L130,195 L110,195 L190,195 L180,195 L180,5 L190,5 L110,5 L130,5 L130,100"
	style="stroke:#555;stroke-width:0;stroke-linecap:round;stroke-linejoin:round;stroke-dasharray:0px 0px;fill:none; transform: translate(590px,150px);">
	<animate id="third-letter-path-animate" attributeName="stroke-dashoffset" begin="1s" from="0" to="0" dur="4s" repeatCount="1" />
</path>

<path id="fourth-letter-path" d="M10,195 L90,195 L20,195 L20,5 L10,5 L90,5 L70,5 L70,195 L70,100 L190,5 L102,76 L194,195 L200,195 L130,195 L140,195 L70,100"
	style="stroke:#555;stroke-width:0;stroke-linecap:round;stroke-linejoin:round;stroke-dasharray:0px 0px;fill:none; transform: translate(790px,150px);">
	<animate id="fourth-letter-path-animate" attributeName="stroke-dashoffset" begin="1s" from="0" to="0" dur="4s" repeatCount="1" />
</path>


<!--  O Outer arc -->
<path id="fifth-letter-outerpath" d="M100,195 A100,90 0 0,1 100,5 A100,90 0 0,1 100,195"
	style="stroke:#555;stroke-width:0;stroke-linecap:round;stroke-linejoin:round;stroke-dasharray:0px 0px;fill:none; transform: translate(990px,150px);">
	<animate id="fifth-letter-outerpath-animate" attributeName="stroke-dashoffset" begin="1s" from="0" to="0" dur="4s" repeatCount="1" />
</path>
<!--  O Inner arc -->
<path id="fifth-letter-innerpath" d="M100,180 A50,70 0 0,1 100,20 A50,70 0 0,1 100,180"
	style="stroke:#555;stroke-width:0;stroke-linecap:round;stroke-linejoin:round;stroke-dasharray:0px 0px;fill:none; transform: translate(990px,150px);">
	<animate id="fifth-letter-innerpath-animate" attributeName="stroke-dashoffset" begin="1s" from="0" to="0" dur="4s" repeatCount="1" />
</path>

<!--
TODO: Do a paint fill to letter O with some bright color!
-->


<path id="sixth-letter-path" d="M0,5 L80,195 L120,195 L200,5 L120,195 L40,5 L-250,5"
	style="stroke:#555;stroke-width:0;stroke-linecap:round;stroke-linejoin:round;stroke-dasharray:0px 0px;fill:none; transform: translate(1190px,150px);">
	<animate id="sixth-letter-path-animate" attributeName="stroke-dashoffset" begin="2s" from="0" to="0" dur="4s" repeatCount="1" />
</path>
<path id="seventh-letter-path" d="M0,195 L80,5 L160,195 L200,195 L120,5 L0,5 L80,5 L120,100 L40,100"
	style="stroke:#555;stroke-width:0;stroke-linecap:round;stroke-linejoin:round;stroke-dasharray:0px 0px;fill:none; transform: translate(1390px,150px);">
	<animate id="seventh-letter-path-animate" attributeName="stroke-dashoffset" begin="2s" from="0" to="0" dur="4s" repeatCount="1" />
</path>

<path id="eight-letter-path" d="M0,195 L80,5 L160,195 L200,195 L120,5 L70,5 L80,5 L120,100 L40,100"
	style="stroke:#555;stroke-width:0;stroke-linecap:round;stroke-linejoin:round;stroke-dasharray:0px 0px;fill:none; transform: translate(1590px,150px);">
	<animate id="eight-letter-path-animate" attributeName="stroke-dashoffset" begin="3s" from="0" to="0" dur="4s" repeatCount="1" />
</path>

<path id="ninth-letter-outerpath" d="M0,195 L90,195 L20,195 L20,5 L0,5 L130,5 A65,50 0 0,1 130,105 L120,105 L193,195 L220,195 L120,195 L140,195 L70,105 L70,195"
	style="stroke:#555;stroke-width:0;stroke-linecap:round;stroke-linejoin:round;stroke-dasharray:0px 0px;fill:none; transform: translate(1790px,150px);">
	<animate id="ninth-letter-outerpath-animate" attributeName="stroke-dashoffset" begin="3s" from="0" to="0" dur="4s" repeatCount="1" />
</path>
<path id="ninth-letter-innerpath" d="M70,25 L130,25 A27.5,27.5 0 0,1 130,85 L70,85 L70,25"
	style="stroke:#555;stroke-width:0;stroke-linecap:round;stroke-linejoin:round;stroke-dasharray:0px 0px;fill:none; transform: translate(1790px,150px);">
	<animate id="ninth-letter-innerpath-animate" attributeName="stroke-dashoffset" begin="3s" from="0" to="0" dur="4s" repeatCount="1" />
</path>


<path id="tenth-letter-path" d="M0,195 L80,5 L160,195 L210,195 L200,195 L120,5 L70,5 L80,5 L120,100 L40,100"
	style="stroke:#555;stroke-width:0;stroke-linecap:round;stroke-linejoin:round;stroke-dasharray:0px 0px;fill:none; transform: translate(1990px,150px);">
	<animate id="tenth-letter-path-animate" attributeName="stroke-dashoffset" begin="4s" from="0" to="0" dur="4s" repeatCount="1" />
</path>
<!--
<path id="underline-path" d="M400,380 L2200,380"
	style="stroke:#5a5;stroke-width:0;stroke-dasharray:0px 0px;fill:none;">
	<animate id="underline-path-animate" attributeName="stroke-dashoffset" begin="8s" from="0" to="0" dur="1s" repeatCount="1" />
</path>
-->


<!--
<path id="second-painting-path" d="M100,75 L200,75" style="stroke:#fff;stroke-width:0;fill:none;" />
-->




<!--
<path id="first-building-path" d="M0,0 L0,43 L16.5,49 L33,43 L33,0 L0,0 Z
		M39,0 L39,16 L52,16 L53,24 L39,24 L39,32 L55,32 L56,40 L39,40 L39,48 L58,48 L59,56 L39,56 L39,73 L80,95 L80,0 L39,0 Z"
	style="stroke:#51b0ce;stroke-width:2px;stroke-dasharray:0px 0px;fill:none;transform: scaleY(-2) scaleX(2) translate(-74px,-35px);">
	<animate id="first-building-path-animate" attributeName="stroke-dashoffset" from="0" to="0" dur="1s" repeatCount="1" />
</path>

<path id="first-painting-path" d="M5,0 L5,39 L16.5 44 L28,39 L28,5 L5,5 Z 
		M15,10 L15,38 L20,38 L20,10 
		M44,0 L44,11 L57,11 L65,60 L44,60 L44,71 L75,88 L75,5 L44,5 
		M39,44 L80,44 
		M39,28 L80,28 
		M66,0 L66,73 L48,65"
	style="stroke:#fff;stroke-width:0px;fill:none;transform: scaleY(-2) scaleX(2) translate(-74px,-35px);" />
-->
<!--
<svg x="0" y="0" width="400" height="400">
	<rect x="5" y="5" width="390" height="390" style="stroke-width:10; stroke:#000; fill:none; opacity:0.2" />
</svg>

<svg x="400" y="140" width="200" height="200">
	<rect x="5" y="5" width="190" height="190" style="stroke-width:10; stroke:#000; fill:none; opacity:0.2" />
</svg>

<svg x="600" y="140" width="200" height="200">
	<rect x="5" y="5" width="190" height="190" style="stroke-width:10; stroke:#000; fill:none; opacity:0.2" />
</svg>

<svg x="800" y="140" width="200" height="200">
	<rect x="5" y="5" width="190" height="190" style="stroke-width:10; stroke:#000; fill:none; opacity:0.2" />
</svg>

<svg x="1000" y="140" width="200" height="200">
	<rect x="5" y="5" width="190" height="190" style="stroke-width:10; stroke:#000; fill:none; opacity:0.2" />
	<ellipse cx="100" cy="100" rx="50" ry="80" style="stroke-width:8; stroke:#000; fill:none; opacity:1" />
	<circle cx="100" cy="100" r="90"           style="stroke-width:8; stroke:#000; fill:none; opacity:1" />
</svg>

<svg x="1200" y="140" width="200" height="200">
	<rect x="5" y="5" width="190" height="190" style="stroke-width:10; stroke:#000; fill:none; opacity:0.2" />
	<path d="M10,10 L80,190 L120,190 L190,10"  style="stroke-width:8; stroke:#000; fill:none; opacity:1" />
	<path d="M50,10 L120,190"                  style="stroke-width:8; stroke:#000; fill:none; opacity:1" />
	<path d="M170,10 L200,10"                  style="stroke-width:8; stroke:#000; fill:none; opacity:1" />
</svg>

<path d="M950,150 L1270,150" style="stroke-width:8; stroke:#000; fill:none; opacity:1" />

<svg x="1400" y="140" width="200" height="200">
	<rect x="5" y="5" width="190" height="190" style="stroke-width:10; stroke:#000; fill:none; opacity:0.2" />
	<path d="M10,190 L80,10 L120,10 L190,190 L150,190 L80,10 L0,10"  style="stroke-width:8; stroke:#000; fill:none; opacity:1" />
</svg>

<svg x="1600" y="140" width="200" height="200">
	<rect x="5" y="5" width="190" height="190" style="stroke-width:10; stroke:#000; fill:none; opacity:0.2" />
</svg>

<svg x="1800" y="140" width="200" height="200">
	<rect x="5" y="5" width="190" height="190" style="stroke-width:10; stroke:#000; fill:none; opacity:0.2" />
</svg>




<svg x="2000" y="140" width="200" height="200">
	<rect x="5" y="5" width="190" height="190" style="stroke-width:10; stroke:#000; fill:none; opacity:0.2" />
</svg>
-->

<!--
<path class="cartesian" d="M80,10 L300,10" style="stroke-width:10;stroke:#000;fill:none;" />
<path class="cartesian" d="M80,400 L30,400 L30,370 L10,370 L10,510 L520,510 L520,370 L500,370 L500,400 L300,400" style="stroke-width:10;stroke:#000;fill:none;" />
<circle class="cartesian" cx="180" cy="380" r="44" stroke-width="4" stroke="#ccc" fill="#fff" />
<circle class="cartesian" cx="180" cy="300" r="44" stroke-width="4" stroke="#ccc" fill="#fff" />
<circle class="cartesian" cx="180" cy="220" r="44" stroke-width="4" stroke="#ccc" fill="#fff" />
<circle class="cartesian" cx="180" cy="140" r="44" stroke-width="4" stroke="#ccc" fill="#fff" />
<circle class="cartesian" cx="180" cy="60" r="44" stroke-width="4" stroke="#ccc" fill="#fff" />
-->
</svg>
