<?xml version="1.0" encoding="UTF-8" standalone="no"?>
<svg width="2220" height="400" viewBox="0 0 2220 400" xmlns="http://www.w3.org/2000/svg" xmlns:xlink="http://www.w3.org/1999/xlink" preserveAspectRatio="xMinYMin meet">
<style>
.baseline {
	stroke:#000;
	stroke-width:10;
	stroke-linecap:round;
	stroke-linejoin:round;
	fill:none;
}
.thinnerline {
	stroke:#000;
	stroke-width:7;
	stroke-linecap:round;
	stroke-linejoin:round;
	fill:none;
}
.thinnestline {
	stroke:#000;
	stroke-width:5;
	stroke-linecap:round;
	stroke-linejoin:round;
	fill:none;
}
.circle { 
	stroke-width: 5;
	stroke: #000;
	fill: #fff;
}
</style>
<path class="baseline" d="M100,390 L340,390 L320,390 L320,90 L210,90 L480,90 L480,110 L500,110 L500,20 L30,20 L30,110 L50,110 L50,90 L210,90" />
<circle class="circle" cx="220" cy="90" r="40" />
<circle class="circle" cx="220" cy="153.5" r="40" />
<circle class="circle" cx="220" cy="217" r="40" />
<circle class="circle" cx="220" cy="280.5" r="40" />
<circle class="circle" cx="220" cy="344" r="40" />
<path class="thinnestline" d="M120,390 L120,344 L180,344 L120,344 L120,276 L180,276 L120,276 L120,214 L180,214 L120,214 L120,152 L180,152 L120,152 L120,90 L170,90 L120,90" />
<!-- A -->
<path class="baseline" d="M-70,195 L0,195 L80,5 L160,195 L200,195 L120,5 L70,5 L80,5 L120,100 L40,100" style="transform: translate(390px,150px);" />
<!-- H     Small modification done: H is now attached to K at upper line: ending from L190,5 L110,5 L130,5 L130,100  to   L210,5 L110,5 L130,5 L130,100 -->
<path class="baseline" d="M0,195 L90,195 L20,195 L20,5 L0,5 L90,5 L70,5 L70,195 L70,100 L130,100 L130,195 L110,195 L190,195 L180,195 L180,5 L210,5 L110,5 L130,5 L130,100" style="transform: translate(590px,150px);" />
<!-- K -->
<path class="baseline" d="M10,195 L90,195 L20,195 L20,5 L10,5 L90,5 L70,5 L70,195 L70,100 L190,5 L102,76 L194,195 L200,195 L130,195 L140,195 L70,100" style="transform: translate(790px,150px);" />
<!--  O Outer arc -->
<path class="baseline" d="M100,195 A100,95 0 0,1 100,5 A100,95 0 0,1 100,195" style="transform: translate(990px,150px);" />
<!--  O Inner arc -->
<path class="thinnerline" d="M100,180 A50,80 0 0,1 100,20 A50,80 0 0,1 100,180" style=" transform: translate(990px,150px);" />
<!-- V -->
<path class="baseline" d="M0,5 L80,195 L120,195 L200,5 L120,195 L40,5 L-250,5" style="transform: translate(1190px,150px);" />
<!-- A -->
<path class="baseline" d="M0,195 L80,5 L160,195 L200,195 L120,5 L0,5 L80,5 L120,100 L40,100" style="transform: translate(1390px,150px);" />
<!-- A -->
<path class="baseline" d="M0,195 L80,5 L160,195 L200,195 L120,5 L70,5 L80,5 L120,100 L40,100" style="transform: translate(1590px,150px);" />
<!-- R outer -->
<path class="baseline" d="M0,195 L90,195 L20,195 L20,5 L0,5 L130,5 A65,50 0 0,1 130,105 L120,105 L193,195 L220,195 L120,195 L140,195 L70,105 L70,195" style="transform: translate(1790px,150px);" />
<!-- R inner -->
<path class="thinnerline" d="M70,25 L130,25 A27.5,27.5 0 0,1 130,85 L70,85 L70,25" style="transform: translate(1790px,150px);" />
<!-- A -->
<path class="baseline" d="M0,195 L80,5 L160,195 L210,195 L200,195 L120,5 L70,5 L80,5 L120,100 L40,100" style="transform: translate(1990px,150px);" />
</svg>
