<?xml version="1.0" encoding="UTF-8" standalone="no"?>
<svg width="1000" height="900" viewBox="0 0 1000 900" xmlns="http://www.w3.org/2000/svg" xmlns:xlink="http://www.w3.org/1999/xlink" preserveAspectRatio="xMinYMin meet">
<style>
.hex {
	cursor: pointer;
	fill-opacity: 0.05;
	stroke: #fff;
	stroke-width: 1;
	fill: #012265;
}
.district-title {
	opacity: 0.75;
	font-family: "Arial, Helvetica, sans-serif";
	font-size: 52px;
	fill: #fff;
	stroke-width: 1;
}
.grid {
	stroke-width: 0.1;
	stroke: #fff;
}
.grid-head {
	opacity: 0.75;
	stroke-width: 2;
	stroke: #fff;
}
.back-button {
	cursor: pointer;
	opacity: 0.75;
}
</style>
	<defs>
		<radialGradient id="grad" cx="50%" cy="58%" r="75%"><!-- fx="50%" fy="50%">-->
			<stop offset="5%" style="stop-color:#b4dcf4; stop-opacity:1" />
			<stop offset="40%" style="stop-color:#4dace6; stop-opacity:1" />
			<stop offset="90%" style="stop-color:#012265; stop-opacity:1" />
		</radialGradient>
	</defs>
	<rect x="0" y="0" width="1000" height="900" fill="url(#grad)" stroke-width="0" stroke="#000" />
	
	<text x="160" y="110" opacity="0.75" font-family="Arial, Helvetica, sans-serif" font-size="128px" fill="#fff">Making City</text>
	<path class="grid-head" d="M0 19 H168" />
	<path class="grid-head" d="M566 110 H1000" />
	<text x="600" y="160" opacity="0.75" font-family="Arial, Helvetica, sans-serif" font-size="36px" fill="#fff">Positive Energy Districts</text>
	<!--
	<image x="400" y="210" width="200" height="100" xlink:href="schoolbuilding.svg" />
	<image x="480" y="180" width="55" height="50" xlink:href="solarpanel.svg" />
	<image x="520" y="180" width="55" height="50" xlink:href="solarpanel.svg" />
	-->
	
	<image x="350" y="220" width="300" height="75" xlink:href="smarket.svg" />
	<image x="365" y="230" width="121.43" height="27.14" xlink:href="S-marketin_logo.svg" />
	<image x="480" y="180" width="55" height="50" xlink:href="solarpanel.svg" />
	<image x="520" y="180" width="55" height="50" xlink:href="solarpanel.svg" />
	
	
	<image x="740" y="180" width="100" height="150" xlink:href="powerline.svg" />
	<image x="860" y="160" width="100" height="150" xlink:href="windturbine.svg" />
	
	<image x="660" y="420" width="50" height="65" xlink:href="house.svg" />
	<image x="710" y="420" width="50" height="65" xlink:href="house.svg" />
	<image x="760" y="420" width="50" height="65" xlink:href="house.svg" />
	
	<!-- Houses in District C -->
	<image x="610" y="700" width="50" height="65" xlink:href="house.svg" />
	<image x="660" y="700" width="50" height="65" xlink:href="house.svg" />
	<image x="710" y="700" width="50" height="65" xlink:href="house.svg" />
	
	<!-- Houses in District D -->
	<image x="240" y="700" width="50" height="65" xlink:href="house.svg" />
	<image x="290" y="700" width="50" height="65" xlink:href="house.svg" />
	<image x="340" y="700" width="50" height="65" xlink:href="house.svg" />
	
	<!-- Houses in District E -->
	<image x="180" y="420" width="50" height="65" xlink:href="house.svg" />
	<image x="230" y="420" width="50" height="65" xlink:href="house.svg" />
	<image x="280" y="420" width="50" height="65" xlink:href="house.svg" />
	
	<!--<g id="grid">
	<path class="grid" d="M0 100 H1000" />
	<path class="grid" d="M0 200 H1000" />
	<path class="grid" d="M0 300 H1000" />
	<path class="grid" d="M0 400 H1000" />
	<path class="grid" d="M0 500 H1000" />
	<path class="grid" d="M0 600 H1000" />
	<path class="grid" d="M0 700 H1000" />
	<path class="grid" d="M0 800 H1000" />
	<path class="grid" d="M0 900 H1000" />
	<path class="grid" d="M100 0 V1000" />
	<path class="grid" d="M200 0 V1000" />
	<path class="grid" d="M300 0 V1000" />
	<path class="grid" d="M400 0 V1000" />
	<path class="grid" d="M500 0 V1000" />
	<path class="grid" d="M600 0 V1000" />
	<path class="grid" d="M700 0 V1000" />
	<path class="grid" d="M800 0 V1000" />
	<path class="grid" d="M900 0 V1000" />
	</g>-->
	
	<!-- A rx ry x-axis-rotation large-arc-flag sweep-flag x y -->
	<g>
	<path d="M 500,360 A 148,110 0 0,1 500,780 A 148,110 0 0,1 500,360" style="opacity:0.75;stroke:#fff;stroke-width:1;stroke-dasharray:none;fill:none;" />
	<path d="M 500,400 A 110,80 0 0,1 500,740 A 110,80 0 0,1 500,400" style="opacity:0.75;stroke:#fff;stroke-width:1;stroke-dasharray:none;fill:none;" />
	
	<path d="M 500,372 A 135,100 0 0,1 500,770 A 135,100 0 0,1 500,372"
		style="opacity:0.4;stroke:#cf0;stroke-width:10px;stroke-dasharray:30px 10px;fill:none;">
		<animate attributeName="stroke-dashoffset" from="40" to="0" dur="1s" repeatCount="indefinite" />
	</path>
	
	<path d="M 500,750 A 123,90 0 0,0 500,390 A 123,90 0 0,0 500,750"
		style="opacity:0.4;stroke:#f80;stroke-width:10px;stroke-dasharray:30px 10px;fill:none;">
		<animate attributeName="stroke-dashoffset" from="40" to="0" dur="1s" repeatCount="indefinite" />
	</path>
	</g>
	
	<!-- Hexagon Labels: District A - Distict E -->
	<!-- Center TEXT within given sub-svg element -->
	<svg x="300" y="280" width="400px" height="130px">
		<!--<rect x="1" y="1" width="398" height="128" stroke="#fff" stroke-width="1" opacity="0.1" fill="#00f" />-->
		<text class="district-title" id="district-a" x="50%" y="50%" dominant-baseline="middle" text-anchor="middle">District A</text>
	</svg>
	<svg x="540" y="460" width="400px" height="130px">
		<!--<rect x="1" y="1" width="398" height="128" stroke="#fff" stroke-width="1" opacity="0.1" fill="#00f" />-->
		<text class="district-title" id="district-b" x="50%" y="50%" dominant-baseline="middle" text-anchor="middle">District B</text>
	</svg>
	<svg x="480" y="745" width="400px" height="130px">
		<!--<rect x="1" y="1" width="398" height="128" stroke="#fff" stroke-width="1" opacity="0.1" fill="#00f" />-->
		<text class="district-title" id="district-c" x="50%" y="50%" dominant-baseline="middle" text-anchor="middle">District C</text>
	</svg>
	<svg x="120" y="745" width="400px" height="130px">
		<!--<rect x="1" y="1" width="398" height="128" stroke="#fff" stroke-width="1" opacity="0.1" fill="#00f" />-->
		<text class="district-title" id="district-d" x="50%" y="50%" dominant-baseline="middle" text-anchor="middle">District D</text>
	</svg>
	<svg x="60" y="460" width="400px" height="130px">
		<!--<rect x="1" y="1" width="398" height="128" stroke="#fff" stroke-width="1" opacity="0.1" fill="#00f" />-->
		<text class="district-title" id="district-e" x="50%" y="50%" dominant-baseline="middle" text-anchor="middle">District E</text>
	</svg>
	<!--
	<text id="district-a" x="374" y="340" opacity="0.75" font-family="Arial, Helvetica, sans-serif" font-size="64px" fill="#fff" stroke="#555" stroke-width="1">District A</text>
	<text id="district-b" x="670" y="550" opacity="0.75" font-family="Arial, Helvetica, sans-serif" font-size="64px" fill="#fff" stroke="#555" stroke-width="1">District B</text>
	<text id="district-c" x="576" y="860" opacity="0.75" font-family="Arial, Helvetica, sans-serif" font-size="64px" fill="#fff" stroke="#555" stroke-width="1">District C</text>
	<text id="district-d" x="170" y="860" opacity="0.75" font-family="Arial, Helvetica, sans-serif" font-size="64px" fill="#fff" stroke="#555" stroke-width="1">District D</text>
	<text id="district-e" x="76" y="550" opacity="0.75" font-family="Arial, Helvetica, sans-serif" font-size="64px" fill="#fff" stroke="#555" stroke-width="1">District E</text>
	-->
	<!-- Hexagons -->
	<polygon class="hex" id="hex-a" points="150,0 75,130 -75,130 -150,0 -75,-130 75,-130" transform="translate(500,300) scale(1.0)" />
	<polygon class="hex" id="hex-b" points="150,0 75,130 -75,130 -150,0 -75,-130 75,-130" transform="translate(740,460) scale(1.0)" />
	<polygon class="hex" id="hex-c" points="150,0 75,130 -75,130 -150,0 -75,-130 75,-130" transform="translate(680,745) scale(1.0)" />
	<polygon class="hex" id="hex-d" points="150,0 75,130 -75,130 -150,0 -75,-130 75,-130" transform="translate(320,745) scale(1.0)" />
	<polygon class="hex" id="hex-e" points="150,0 75,130 -75,130 -150,0 -75,-130 75,-130" transform="translate(260,460) scale(1.0)" />
	
	<image id="back" class="back-button" x="30" y="40" width="105" height="70" xlink:href="backbutton.svg" />	
</svg>
