<?xml version="1.0" encoding="UTF-8" standalone="no"?>
<svg width="400" height="300" viewBox="0 0 400 300" xmlns="http://www.w3.org/2000/svg" xmlns:xlink="http://www.w3.org/1999/xlink" preserveAspectRatio="xMinYMin meet">
<defs>
	<g id="window" fill="#fff" stroke="#333" stroke-width="3">
		<path d="M0,0 L30,0 L30,30 L0,30 L0,0 Z" />
	</g>
</defs>
<!--
<rect x="1" y="1" width="398" height="298" style="stroke:#51b0ce;stroke-width:1px;fill:none;" />
-->
<!-- Walls -->
<!--<path d="M20,250 L20,70 L5,70 L100,10 L195,70 L180,70 L180,250 L20,250" fill="none" stroke-width="3" stroke="#333" />-->
<path d="M35,260 L35,20 L365,20 L365,260 L35,260 Z" fill="none" stroke-width="3" stroke="#333" />
<!-- Door -->
<path d="M180,260 L180,190 L220,190 L220,260" fill="none" stroke-width="3" stroke="#333" />
<!--
<path d="M80,250 L80,170 L120,170 L120,250" fill="none" stroke-width="3" stroke="#333" />
-->
<!-- Windows -->
<use x="65" y="40" xlink:href="#window" />
<use x="65" y="90" xlink:href="#window" />
<use x="65" y="140" xlink:href="#window" />
<use x="65" y="190" xlink:href="#window" />
<use x="125" y="40" xlink:href="#window" />
<use x="125" y="90" xlink:href="#window" />
<use x="125" y="140" xlink:href="#window" />
<use x="125" y="190" xlink:href="#window" />
<use x="185" y="40" xlink:href="#window" />
<use x="185" y="90" xlink:href="#window" />
<use x="185" y="140" xlink:href="#window" />
<!--<use x="185" y="190" xlink:href="#window" />-->
<use x="245" y="40" xlink:href="#window" />
<use x="245" y="90" xlink:href="#window" />
<use x="245" y="140" xlink:href="#window" />
<use x="245" y="190" xlink:href="#window" />
<use x="305" y="40" xlink:href="#window" />
<use x="305" y="90" xlink:href="#window" />
<use x="305" y="140" xlink:href="#window" />
<use x="305" y="190" xlink:href="#window" />
<!--
<use x="40" y="90" xlink:href="#window" />
<use x="40" y="130" xlink:href="#window" />
<use x="40" y="170" xlink:href="#window" />
<use x="85" y="90" xlink:href="#window" />
<use x="85" y="130" xlink:href="#window" />
<use x="130" y="90" xlink:href="#window" />
<use x="130" y="130" xlink:href="#window" />
<use x="130" y="170" xlink:href="#window" />
-->
</svg>
