<?xml version="1.0" encoding="UTF-8" standalone="no"?>
<!-- Created with Inkscape (http://www.inkscape.org/) -->
<svg xmlns:dc="http://purl.org/dc/elements/1.1/" xmlns:cc="http://creativecommons.org/ns#" xmlns:rdf="http://www.w3.org/1999/02/22-rdf-syntax-ns#" xmlns:svg="http://www.w3.org/2000/svg" xmlns="http://www.w3.org/2000/svg" xmlns:sodipodi="http://sodipodi.sourceforge.net/DTD/sodipodi-0.dtd" xmlns:inkscape="http://www.inkscape.org/namespaces/inkscape" version="1.1" id="svg2" xml:space="preserve" width="850.09998" height="189.79733" viewBox="0 0 850.09998 189.79733" sodipodi:docname="S-Market logo.svg" inkscape:version="0.92.4 (5da689c313, 2019-01-14)"><metadata id="metadata8"><rdf:RDF><cc:Work rdf:about=""><dc:format>image/svg+xml</dc:format><dc:type rdf:resource="http://purl.org/dc/dcmitype/StillImage"/><dc:title/></cc:Work></rdf:RDF></metadata><defs id="defs6"><clipPath clipPathUnits="userSpaceOnUse" id="clipPath18"><path d="M 0,142.348 H 637.575 V 0 H 0 Z" id="path16" inkscape:connector-curvature="0"/></clipPath></defs><sodipodi:namedview pagecolor="#ffffff" bordercolor="#666666" borderopacity="1" objecttolerance="10" gridtolerance="10" guidetolerance="10" inkscape:pageopacity="0" inkscape:pageshadow="2" inkscape:window-width="1920" inkscape:window-height="1017" id="namedview4" showgrid="false" inkscape:zoom="0.43759559" inkscape:cx="1197.6538" inkscape:cy="-187.15185" inkscape:window-x="-8" inkscape:window-y="-8" inkscape:window-maximized="1" inkscape:current-layer="g10"/><g id="g10" inkscape:groupmode="layer" inkscape:label="Smarket CMYK" transform="matrix(1.3333333,0,0,-1.3333333,0,189.79733)"><g id="g12"><g id="g14" clip-path="url(#clipPath18)"><g id="g20" transform="translate(176.0752,3.0195)"><path d="m 0,0 1.693,35.955 c 0.215,5.63 0.458,10.236 1.347,17.913 H 2.894 C 0.859,46.319 -0.386,41.841 -2.531,37.106 L -19.17,0 h -22.074 l -6.571,36.083 c -0.875,4.99 -1.459,9.98 -1.267,17.913 h -0.146 c -0.918,-7.933 -1.626,-12.795 -2.567,-18.425 L -57.945,0 h -26.141 l 19.179,89.183 h 31.805 l 6.806,-35.315 c 0.874,-4.99 1.343,-9.724 1.385,-16.889 h 0.145 c 1.657,6.781 3.032,11.131 6.024,18.169 L -5.51,89.183 H 25.279 L 25.27,0 Z M 91.758,0 88.515,17.146 H 64.552 L 57.049,0 H 29.746 L 72.192,89.183 H 99.204 L 119.932,0 Z M 82.854,51.053 C 82.267,54.764 82.118,59.754 82.358,63.08 81.682,59.754 80.132,55.148 78.014,49.39 L 72.259,34.803 H 85.33 Z M 174.835,0 167.122,24.951 c -3.025,9.94 -5.046,10.364 -10.708,10.364 L 152.326,0 H 126.33 l 10.32,89.183 h 34.857 c 28.404,0 36.902,-10.079 36.002,-25.463 -0.903,-15.426 -11.625,-23.159 -23.742,-24.949 3.38,-0.896 7.321,-4.991 9.259,-9.597 2.642,-6.014 9.3,-22.52 11.871,-29.174 z m -7.104,70.374 h -7.261 l -2.102,-18.169 h 7.406 c 8.858,0 13.355,3.71 14.051,9.724 0.738,6.398 -3.961,8.445 -12.094,8.445 M 214.765,0 225.086,89.183 h 25.997 L 240.761,0 Z m 55.384,0 -19.86,47.983 26.524,41.2 h 31.833 L 278.361,48.366 304.423,0 Z m 41.708,0 10.321,89.183 h 58.208 l -1.581,-18.809 h -32.808 l -1.732,-14.97 h 26.08 l -1.51,-18.169 h -26.673 l -2.102,-18.17 h 36.005 L 374.499,0 Z M 459.752,70.246 H 436.805 L 428.673,0 h -26.285 l 8.132,70.246 h -25.57 l 1.576,18.937 H 461.5 Z" style="fill:#0b3b6a;fill-opacity:1;fill-rule:nonzero;stroke:none" id="path22" inkscape:connector-curvature="0"/></g><g id="g24" transform="translate(0,50.1416)"><path d="m 0,0 c 0,0 10.018,0.022 10.225,0.035 1.736,0.087 3.666,1.203 5.291,3.06 2.103,2.409 2.236,5.943 2.236,5.943 0,0 -0.061,17.398 -0.082,23.669 -0.023,6.271 0.933,10.984 2.221,16.214 1.287,5.23 6.211,17.371 15.485,26.129 9.274,8.759 17.78,12.497 24.463,14.507 6.683,2.008 15.829,2.626 17.033,2.619 0.699,-0.009 8.728,0.03 8.728,0.03 l 0.083,-23.772 c 0,0 -8.205,-0.03 -9.356,-0.033 -1.675,-0.006 -7.318,-0.026 -13.111,-2.66 -6.387,-2.895 -11.735,-7.303 -15.43,-12.385 -3.692,-5.081 -6.529,-12.865 -6.502,-20.598 0.028,-7.951 0.034,-9.636 0.082,-23.637 0.004,-0.828 0.126,-3.062 -1.337,-8.98 -1.483,-6.028 -4.616,-10.522 -8.366,-14.245 -3.75,-3.724 -6.231,-5.321 -12.099,-7.638 -5.116,-2.027 -10.23,-1.73 -10.71,-1.741 -0.838,-0.016 -8.781,-0.03 -8.781,-0.03 z m 85.785,42.066 -0.073,23.513 c 0,0 -7.944,-0.016 -8.78,-0.03 -0.482,-0.012 -5.593,0.284 -10.71,-1.74 -5.866,-2.32 -8.348,-3.917 -12.1,-7.64 -3.75,-3.723 -6.878,-8.217 -8.365,-14.241 -1.464,-5.919 -1.342,-8.157 -1.339,-8.982 0.049,-14.003 0.054,-15.684 0.083,-23.638 0.027,-7.733 -2.811,-15.52 -6.502,-20.6 -3.693,-5.082 -9.04,-9.488 -15.428,-12.385 -5.792,-2.633 -11.439,-2.652 -13.11,-2.658 -1.149,-0.004 -9.357,-0.033 -9.357,-0.033 l 0.083,-23.774 c 0,0 8.026,0.038 8.729,0.032 1.201,-0.006 10.346,0.61 17.032,2.62 6.681,2.01 15.187,5.745 24.461,14.507 9.274,8.757 14.197,20.896 15.487,26.124 1.288,5.23 2.244,9.95 2.222,16.218 -0.021,6.27 -0.083,23.669 -0.083,23.669 0,0 0.133,3.534 2.237,5.945 1.623,1.853 3.555,2.969 5.29,3.058 0.21,0.012 10.223,0.035 10.223,0.035" style="fill:#0b3b6a;fill-opacity:1;fill-rule:nonzero;stroke:none" id="path26" inkscape:connector-curvature="0"/></g></g></g></g></svg>