<?xml version="1.0" encoding="UTF-8" standalone="no"?>
<svg width="400" height="300" viewBox="0 0 400 300" xmlns="http://www.w3.org/2000/svg" xmlns:xlink="http://www.w3.org/1999/xlink" preserveAspectRatio="xMinYMin meet">
<defs>
	<g id="window" fill="#fff" stroke="#333" stroke-width="3">
		<path d="M0,0 L40,0 L40,40 L0,40 Z" />
	</g>
</defs>
<!--
<rect x="1" y="1" width="398" height="298" style="stroke:#51b0ce;stroke-width:1px;fill:none;" />
-->
<path d="M35,250 L35,50 L365,50 L365,250 L35,250 Z" fill="none" stroke-width="3" stroke="#333" />
<!-- Roof -->
<path d="M35,50 L25,50 L25,30 L375,30 L375,50 Z" fill="none" stroke-width="3" stroke="#333" />
<!-- Roof Shadow -->
<path d="M36,55 L364,55" fill="none" stroke-width="8" stroke="#333" />
<!-- CLOCK -->
<circle cx="200" cy="110" r="38" style="stroke:#333;stroke-width:4;fill:#fff;opacity:1;"/>
<circle cx="200" cy="110" r="33" style="stroke:#333;stroke-width:1;fill:#fff;opacity:1;"/>
<!-- center dot -->
<circle cx="200" cy="110" r="4" style="stroke:#333;stroke-width:2;fill:#333;opacity:1;"/>
<!-- arms -->
<line x1="200" y1="110" x2="177" y2="110" stroke-width="4" stroke="#333" />
<line x1="200" y1="110" x2="200" y2="78" stroke-width="4" stroke="#333" />
<!-- Door -->
<path d="M180,250 L180,180 L220,180 L220,250" fill="#333" stroke-width="3" stroke="#333" />
<!-- Windows -->
<use x="60" y="70" xlink:href="#window" />
<use x="100" y="70" xlink:href="#window" />
<use x="60" y="110" xlink:href="#window" />
<use x="100" y="110" xlink:href="#window" />
<use x="60" y="160" xlink:href="#window" />
<use x="100" y="160" xlink:href="#window" />
<use x="60" y="200" xlink:href="#window" />
<use x="100" y="200" xlink:href="#window" />
<use x="260" y="70" xlink:href="#window" />
<use x="300" y="70" xlink:href="#window" />
<use x="260" y="110" xlink:href="#window" />
<use x="300" y="110" xlink:href="#window" />
<use x="260" y="160" xlink:href="#window" />
<use x="300" y="160" xlink:href="#window" />
<use x="260" y="200" xlink:href="#window" />
<use x="300" y="200" xlink:href="#window" />
</svg>
