<?xml version="1.0" encoding="UTF-8" standalone="no"?>
<svg width="400" height="300" viewBox="0 0 400 300" xmlns="http://www.w3.org/2000/svg" xmlns:xlink="http://www.w3.org/1999/xlink" preserveAspectRatio="xMinYMin meet">
<defs>
	<g id="window" fill="#fff" stroke="#333" stroke-width="2">
		<path d="M0,0 L120,0 L120,70 L0,70 Z" />
	</g>
</defs>
<!--
<rect x="1" y="1" width="398" height="298" style="stroke:#51b0ce;stroke-width:1px;fill:none;" />
-->
<!-- Walls -->
<!--<path d="M20,250 L20,70 L5,70 L100,10 L195,70 L180,70 L180,250 L20,250" fill="none" stroke-width="3" stroke="#333" />-->
<path d="M35,200 L35,100 L365,100 L365,200 L35,200 Z" fill="none" stroke-width="3" stroke="#333" />
<!-- Roof -->
<path d="M35,100 L25,100 L25,80 L375,80 L375,100 Z" fill="none" stroke-width="3" stroke="#333" />
<!-- Roof Shadow -->
<path d="M36,105 L364,105" fill="none" stroke-width="8" stroke="#333" />
<!-- Front door -->
<path d="M200,200 L200,100 L300,100 L300,200 Z" opacity="0.5" fill="#fdd835" stroke-width="2" stroke="#333" />
<path d="M210,200 L210,110 L290,110 L290,200 Z" opacity="0.5" fill="#fbc02d" stroke-width="2" stroke="#333" />
<path d="M220,200 L220,120 L280,120 L280,200 Z" opacity="0.5" fill="#fdd835" stroke-width="2" stroke="#333" />
<path d="M230,200 L230,130 L250,130 L250,200 Z" opacity="0.5" fill="#fff" stroke-width="2" stroke="#333" />
<path d="M250,200 L250,130 L270,130 L270,200 Z" opacity="0.5" fill="#fff" stroke-width="2" stroke="#333" />
<!-- Front door shadow -->
<path d="M230,133 L270,133" opacity="1" fill="none" stroke-width="6" stroke="#333" />
<!-- window -->
<use x="60" y="120" xlink:href="#window" />
</svg>
