<?xml version="1.0" encoding="UTF-8" standalone="no"?>
<svg width="800" height="800" viewBox="-400 -400 800 800" xmlns="http://www.w3.org/2000/svg" preserveAspectRatio="xMinYMin meet">
<style>
.line {
	fill: none;
	stroke: #f00;
	stroke-width: 10;
}
.triangle {
	fill: #f00;
	stroke: #f00;
	stroke-width: 10;
}
</style>
<g>
	<!-- W 300 -->
	<path class="line" d="M -200,-300 L 100,-300" />
	<path class="triangle" d="M 0,0 L0,-20 L50,0 L0,20 L0,0Z" transform="translate(100,-300)" />
	
	<!-- W 540 -->
	<path class="line" d="M -200,0 A 100 100 0 0 0 -100 100 L 300,100" />
	<path class="triangle" d="M 0,0 L0,-20 L50,0 L0,20 L0,0Z" transform="translate(300,100)" />
	
	<!--
	
	<path class="line" d="M -300,-200 A 100 100 0 0 1 -200 -300 L 100,-300" />
	
	<path class="line" d="M -250,-100 A 100 100 0 0 1 -150 -200 L 200,-200" />
	
	
	
	<path class="line" d="M -250,0 A 150 150 0 0 0 -150 150 L 200,-200" />
	-->
	
</g>
</svg>
