<?xml version="1.0" encoding="UTF-8" standalone="no"?>
<svg width="600" height="900" viewBox="0 0 600 900" xmlns="http://www.w3.org/2000/svg" xmlns:xlink="http://www.w3.org/1999/xlink" preserveAspectRatio="xMinYMin meet">
<style>
.target {
	cursor: pointer;
	fill: #009688;
	stroke-width: 1;
	stroke: #fff;
	fill-opacity: 0.05;
}
.section-title {
	opacity: 0.75;
	font-family: "Arial, Helvetica, sans-serif";
	font-size: 20px;
	fill: #000;
	stroke-width: 1;
}
.grid-head {
	opacity: 0.75;
	stroke-width: 1;
	stroke: #fff;
}
.back-button {
	cursor: pointer;
	opacity: 0.75;
}
</style>
<!--
<rect fill="#fff" stroke="#eee" stroke-width="10" x="5" y="5" width="1790" height="890"/>
#e0f2f1 teal lighten-5
#b2dfdb teal lighten-4
#80cbc4 teal lighten-3
#4db6ac teal lighten-2
#26a69a teal lighten-1
#009688 teal
#00897b teal darken-1
#00796b teal darken-2
#00695c teal darken-3
#004d40 teal darken-4
-->
<defs>
	<radialGradient id="grad" cx="50%" cy="50%" r="75%"><!-- fx="50%" fy="50%">-->
		<stop offset="10%" style="stop-color:#e0f2f1; stop-opacity:1" />
		<stop offset="50%" style="stop-color:#80cbc4; stop-opacity:1" />
		<stop offset="90%" style="stop-color:#009688; stop-opacity:1" />
	</radialGradient>
</defs>
<rect x="0" y="0" width="600" height="900" fill="url(#grad)" stroke-width="0" stroke="#000" />

<text x="90" y="100" opacity="0.75" font-family="Arial, Helvetica, sans-serif" font-size="82px" fill="#fff">Making City</text>
<path class="grid-head" d="M0 43 H94" />
<path class="grid-head" d="M350 100 H600" />
<text x="360" y="134" opacity="0.75" font-family="Arial, Helvetica, sans-serif" font-size="22px" fill="#fff">S-Market Kaukovainio</text>
<g>
	<path id="p1" d="M 130,400 L 330,400 
	M 240,400 L 240,520 
	M 240,520 L 140,520 A 50,50 0 0,0 90,570 L 90,580 
	M 240,520 L 240,580 
	M 240,520 L 350,520 A 50,50 0 0,1 400,570 L 400,580"
	style="opacity:0.5;stroke:#0a0;stroke-width:10px;stroke-dasharray:30px 10px;fill:none;">
		<animate attributeName="stroke-dashoffset" from="40" to="0" dur="1s" repeatCount="indefinite" />
	</path>
	
	<path id="solar-pipe" d="M 240,260 L 240,400" 
	style="opacity:0.5;stroke:#0a0;stroke-width:10px;stroke-dasharray:30px 10px;fill:none;">
		<animate attributeName="stroke-dashoffset" from="40" to="0" dur="1s" repeatCount="indefinite" />
	</path>
	
	<path id="kitchen-pipe" d="M 164,520 L 164,760" 
	style="opacity:0.5;stroke:#0a0;stroke-width:10px;stroke-dasharray:30px 10px;fill:none;">
		<animate attributeName="stroke-dashoffset" from="40" to="0" dur="1s" repeatCount="indefinite" />
	</path>
	
	<path id="others-pipe" d="M 312,520 L 312,760" 
	style="opacity:0.5;stroke:#0a0;stroke-width:10px;stroke-dasharray:30px 10px;fill:none;">
		<animate attributeName="stroke-dashoffset" from="40" to="0" dur="1s" repeatCount="indefinite" />
	</path>
	
	<path id="geothermal-pipe" d="M 380,260 L 380,350" 
	style="opacity:0.5;stroke:#f00;stroke-width:10px;stroke-dasharray:30px 10px;fill:none;">
		<animate attributeName="stroke-dashoffset" from="40" to="0" dur="1s" repeatCount="indefinite" />
	</path>
	
	<path d="M 380,450 L 380,490 A 20,20 0 0,0 400,510 L 450,510 
		A 20,20 0 0,1 470,530 L 470,760" 
	style="opacity:0.5;stroke:#0ff;stroke-width:10px;stroke-dasharray:30px 10px;fill:none;">
		<animate attributeName="stroke-dashoffset" from="40" to="0" dur="1s" repeatCount="indefinite" />
	</path>
	<path d="M 410,450 L 410,470 A 20,20 0 0,0 430,490 L 490,490 
		A 20,20 0 0,1 510,510 L 510,760" 
	style="opacity:0.5;stroke:#f00;stroke-width:10px;stroke-dasharray:30px 10px;fill:none;">
		<animate attributeName="stroke-dashoffset" from="40" to="0" dur="1s" repeatCount="indefinite" />
	</path>
	
	<!-- From Compressor to District Heating Network -->
	<path id="district-heating-pipe" d="M 430,400 L 480,400" 
	style="opacity:0.5;stroke:#f00;stroke-width:10px;stroke-dasharray:30px 10px;fill:none;">
		<animate attributeName="stroke-dashoffset" from="40" to="0" dur="1s" repeatCount="indefinite" />
	</path>
	
	<!-- Dynamically inserted POWER CONSUMPTION VALUES: -->
	<text id="grid-power" x="140" y="385" font-family="Arial, Helvetica, sans-serif" font-size="20px" fill="#f00"></text>
	<text id="solar-power" x="250" y="310" font-family="Arial, Helvetica, sans-serif" font-size="20px" fill="#0a0"></text>
	<text id="geothermal-power" x="390" y="310" font-family="Arial, Helvetica, sans-serif" font-size="20px" fill="#0a0"></text>
	
	<svg x="20" y="540" width="140px" height="40px">
		<!--<rect x="1" y="1" width="138" height="38" stroke="#fff" stroke-width="1" opacity="0.2" fill="#009688" />-->
		<text id="lights-power" font-family="Arial, Helvetica, sans-serif" font-size="20px" fill="#00a" x="50%" y="50%" dominant-baseline="middle" text-anchor="middle"></text>
	</svg>
	<svg x="90" y="720" width="140px" height="40px">
		<!--<rect x="1" y="1" width="138" height="38" stroke="#fff" stroke-width="1" opacity="0.2" fill="#009688" />-->
		<text id="kitchen-power" font-family="Arial, Helvetica, sans-serif" font-size="20px" fill="#00a" x="50%" y="50%" dominant-baseline="middle" text-anchor="middle"></text>
	</svg>
	<svg x="170" y="540" width="140px" height="40px">
		<!--<rect x="1" y="1" width="138" height="38" stroke="#fff" stroke-width="1" opacity="0.2" fill="#009688" />-->
		<text id="ventilation-power" font-family="Arial, Helvetica, sans-serif" font-size="20px" fill="#00a" x="50%" y="50%" dominant-baseline="middle" text-anchor="middle"></text>
	</svg>
	<svg x="240" y="720" width="140px" height="40px">
		<!--<rect x="1" y="1" width="138" height="38" stroke="#fff" stroke-width="1" opacity="0.2" fill="#009688" />-->
		<text id="other-power" font-family="Arial, Helvetica, sans-serif" font-size="20px" fill="#00a" x="50%" y="50%" dominant-baseline="middle" text-anchor="middle"></text>
	</svg>
	<svg x="330" y="540" width="140px" height="40px">
		<!--<rect x="1" y="1" width="138" height="38" stroke="#fff" stroke-width="1" opacity="0.2" fill="#009688" />-->
		<text id="cooler-equipments-power" font-family="Arial, Helvetica, sans-serif" font-size="20px" fill="#00a" x="50%" y="50%" dominant-baseline="middle" text-anchor="middle"></text>
	</svg>
	<svg x="220" y="360" width="140px" height="40px">
		<!--<rect x="1" y="1" width="138" height="38" stroke="#fff" stroke-width="1" opacity="0.2" fill="#009688" />-->
		<text id="cooler-machines-power" font-family="Arial, Helvetica, sans-serif" font-size="20px" fill="#00a" x="50%" y="50%" dominant-baseline="middle" text-anchor="middle"></text>
	</svg>
	<svg x="480" y="720" width="140px" height="40px">
		<!--<rect x="1" y="1" width="158" height="38" stroke="#fff" stroke-width="1" opacity="0.2" fill="#009688" />-->
		<text id="heating-devices-power" font-family="Arial, Helvetica, sans-serif" font-size="20px" fill="#00a" x="50%" y="50%" dominant-baseline="middle" text-anchor="middle"></text>
	</svg>
	<svg x="380" y="360" width="160px" height="40px">
		<!--<rect x="1" y="1" width="158" height="38" stroke="#fff" stroke-width="1" opacity="0.2" fill="#009688" />-->
		<text id="district-heating-power" font-family="Arial, Helvetica, sans-serif" font-size="20px" fill="#00a" x="50%" y="50%" dominant-baseline="middle" text-anchor="middle"></text>
	</svg>
	<svg x="350" y="720" width="160px" height="40px">
		<!--<rect x="1" y="1" width="158" height="38" stroke="#fff" stroke-width="1" opacity="0.2" fill="#009688" />-->
		<text id="cooling-power" font-family="Arial, Helvetica, sans-serif" font-size="20px" fill="#00a" x="50%" y="50%" dominant-baseline="middle" text-anchor="middle"></text>
	</svg>
	
	<!--<text id="lights-power" x="40" y="570" font-family="Arial, Helvetica, sans-serif" font-size="26px" fill="#00a"></text>
	<text id="kitchen-power" x="124" y="750" font-family="Arial, Helvetica, sans-serif" font-size="26px" fill="#00a"></text>
	<text id="ventilation-power" x="208" y="570" font-family="Arial, Helvetica, sans-serif" font-size="26px" fill="#00a"></text>
	<text id="other-power" x="292" y="750" font-family="Arial, Helvetica, sans-serif" font-size="26px" fill="#00a"></text>
	<text id="cooler-machines-power" x="376" y="570" font-family="Arial, Helvetica, sans-serif" font-size="26px" fill="#00a"></text>
	<text id="cooler-equipments-power" x="460" y="750" font-family="Arial, Helvetica, sans-serif" font-size="26px" fill="#00a"></text>-->
	
	<image x="40" y="345" width="80" height="120" xlink:href="powerline.svg" /> <!-- orig dim: 200 x 300-->
	<image x="190" y="164" width="110" height="100" xlink:href="solarpanel.svg" /> <!-- orig dim: 220 x 200 -->
	<image x="40" y="575" width="100" height="100" xlink:href="lightbulb.svg" />
	<image x="115" y="750" width="100" height="100" xlink:href="kitchen.svg" />
	<image x="185" y="580" width="100" height="100" xlink:href="ventilation.svg" />
	<image x="260" y="750" width="100" height="100" xlink:href="vehicle.svg" />
	
	<!--
	<image x="420" y="680" width="100" height="100" xlink:href="refrigmachines.svg" />
	<image x="460" y="760" width="100" height="100" xlink:href="refrigequipments.svg" />
	<image x="760" y="330" width="120" height="120" xlink:href="compressor.svg" />
	<image x="410" y="164" width="100" height="100" xlink:href="geothermal.svg" />
	-->
	<image x="346" y="580" width="100" height="100" xlink:href="refrigequipments.svg" />
	
	<image x="380" y="760" width="100" height="100" xlink:href="refrigmachines.svg" />
	<image x="330" y="350" width="100" height="100" xlink:href="compressor.svg" />
	<image x="330" y="164" width="100" height="100" xlink:href="geothermal.svg" />
	<image x="480" y="760" width="120" height="120" xlink:href="heating.svg" />
	
	
	<svg x="0" y="450" width="160px" height="40px">
		<!--<rect x="1" y="1" width="178" height="38" stroke="#fff" stroke-width="1" opacity="0.2" fill="#009688" />-->
		<text class="section-title" id="da-grid-title" x="50%" y="50%" dominant-baseline="middle" text-anchor="middle">Grid</text>
	</svg>
	<svg x="150" y="260" width="180px" height="40px">
		<!--<rect x="1" y="1" width="178" height="38" stroke="#fff" stroke-width="1" opacity="0.2" fill="#009688" />-->
		<text class="section-title" id="da-solar-title" x="50%" y="50%" dominant-baseline="middle" text-anchor="middle">Solar energy</text>
	</svg>
	<svg x="300" y="260" width="180px" height="40px">
		<!--<rect x="1" y="1" width="178" height="38" stroke="#fff" stroke-width="1" opacity="0.2" fill="#009688" />-->
		<text class="section-title" id="da-geothermal-title" x="50%" y="50%" dominant-baseline="middle" text-anchor="middle">Geothermal power</text>
	</svg>
	<svg x="0" y="680" width="180px" height="40px">
		<!--<rect x="1" y="1" width="178" height="38" stroke="#fff" stroke-width="1" opacity="0.2" fill="#009688" />-->
		<text class="section-title" id="da-light-title" x="50%" y="50%" dominant-baseline="middle" text-anchor="middle">Lights and appliances</text>
	</svg>
	<svg x="70" y="860" width="180px" height="40px">
		<!--<rect x="1" y="1" width="178" height="38" stroke="#fff" stroke-width="1" opacity="0.2" fill="#009688" />-->
		<text class="section-title" id="da-kitchen-title" x="50%" y="50%" dominant-baseline="middle" text-anchor="middle">Kitchen appliances</text>
	</svg>
	<svg x="150" y="680" width="180px" height="40px">
		<!--<rect x="1" y="1" width="178" height="38" stroke="#fff" stroke-width="1" opacity="0.2" fill="#009688" />-->
		<text class="section-title" id="da-hpac-title" x="50%" y="50%" dominant-baseline="middle" text-anchor="middle">HPAC</text>
	</svg>
	<svg x="220" y="860" width="180px" height="40px">
		<!--<rect x="1" y="1" width="178" height="38" stroke="#fff" stroke-width="1" opacity="0.2" fill="#009688" />-->
		<text class="section-title" id="da-other-title" x="50%" y="50%" dominant-baseline="middle" text-anchor="middle">Other</text>
	</svg>
	<svg x="300" y="450" width="180px" height="40px">
		<!--<rect x="1" y="1" width="238" height="38" stroke="#fff" stroke-width="1" opacity="0.2" fill="#009688" />-->
		<text class="section-title" id="da-cooler-machines-title" x="50%" y="50%" dominant-baseline="middle" text-anchor="middle">Compressors</text>
	</svg>
	<svg x="440" y="370" width="180px" height="20px">
		<text class="section-title" id="da-dhn-district-title" x="50%" y="50%" dominant-baseline="middle" text-anchor="middle">District</text>
	</svg>
	<svg x="440" y="390" width="180px" height="20px">
		<text class="section-title" id="da-dhn-heating-title" x="50%" y="50%" dominant-baseline="middle" text-anchor="middle">heating</text>
	</svg>
	<svg x="440" y="410" width="180px" height="20px">
		<text class="section-title" id="da-dhn-network-title" x="50%" y="50%" dominant-baseline="middle" text-anchor="middle">network</text>
	</svg>
	<svg x="300" y="680" width="180px" height="40px">
		<!--<rect x="1" y="1" width="178" height="38" stroke="#fff" stroke-width="1" opacity="0.2" fill="#009688" />-->
		<text class="section-title" id="da-cooler-equipment-title" x="50%" y="50%" dominant-baseline="middle" text-anchor="middle">Cooler equipment</text>
	</svg>
	<svg x="340" y="860" width="180px" height="40px">
		<!--<rect x="1" y="1" width="278" height="38" stroke="#fff" stroke-width="1" opacity="0.2" fill="#009688" />-->
		<text class="section-title" id="da-cooling-title" x="50%" y="50%" dominant-baseline="middle" text-anchor="middle">Cooling</text>
	</svg>
	<svg x="440" y="860" width="180px" height="40px">
		<!--<rect x="1" y="1" width="278" height="38" stroke="#fff" stroke-width="1" opacity="0.2" fill="#009688" />-->
		<text class="section-title" id="da-heating-title" x="50%" y="50%" dominant-baseline="middle" text-anchor="middle">Heating</text>
	</svg>
	
	<rect class="target" id="target-a-a" x="-50" y="-50" width="100" height="100" transform="translate(80,400) scale(1.0)" />
	<rect class="target" id="target-a-b" x="-50" y="-50" width="100" height="100" transform="translate(240,210) scale(1.0)" />
	<rect class="target" id="target-a-c" x="-50" y="-50" width="100" height="100" transform="translate(90,630) scale(1.0)" />
	<rect class="target" id="target-a-d" x="-50" y="-50" width="100" height="100" transform="translate(164,810) scale(1.0)" />
	<rect class="target" id="target-a-e" x="-50" y="-50" width="100" height="100" transform="translate(238,630) scale(1.0)" />
	<rect class="target" id="target-a-f" x="-50" y="-50" width="100" height="100" transform="translate(312,810) scale(1.0)" />
	<rect class="target" id="target-a-h" x="-50" y="-50" width="100" height="100" transform="translate(396,630) scale(1.0)" />
	<!--  Compressors: -->
	<rect class="target" id="target-a-g" x="-50" y="-50" width="100" height="100" transform="translate(380,400) scale(1.0)" />
	<rect class="target" id="target-a-p" x="-50" y="-50" width="100" height="100" transform="translate(530,400) scale(1.0)" />
	<!--  Geothermal energy: -->
	<rect class="target" id="target-a-i" x="-50" y="-50" width="100" height="100" transform="translate(380,210) scale(1.0)" />
	<!-- Two new blocks: Cooling devices and Heating devices -->
	<rect class="target" id="target-a-m" x="-50" y="-50" width="100" height="100" transform="translate(430,810) scale(1.0)" />
	<rect class="target" id="target-a-n" x="-50" y="-50" width="100" height="100" transform="translate(540,810) scale(1.0)" />
</g>
<image id="back" class="back-button" x="10" y="50" width="75" height="50" xlink:href="backbutton.svg" />
</svg>
