<?xml version="1.0" encoding="UTF-8" standalone="no"?>
<svg width="600" height="600" viewBox="-300 -300 600 600" xmlns="http://www.w3.org/2000/svg" preserveAspectRatio="xMinYMin meet">
<style>
.blade {
	fill: #fff;
	stroke-width: 8;
	stroke: #444;
}
</style>
<circle cx="0" cy="0" r="290" stroke-width="10" stroke="#fff" fill="none" />
<circle cx="0" cy="0" r="270" stroke-width="8" stroke="#fff" fill="none" />

<g>
	<path class="blade" d="M -20,140 
	A 120,150 0 0,1 20,-120 
	C 70,-130 85,-95 60,-70 
	C 0,0 -30,60 -10,130 L-20,140"
	transform="rotate(-90) translate(0,-170) " />
	
	<path class="blade" d="M -20,140 
	A 120,150 0 0,1 20,-120 
	C 70,-130 85,-95 60,-70 
	C 0,0 -30,60 -10,130 L-20,140"
	transform="rotate(0) translate(0,-170) " />
	
	<path class="blade" d="M -20,140 
	A 120,150 0 0,1 20,-120 
	C 70,-130 85,-95 60,-70 
	C 0,0 -30,60 -10,130 L-20,140"
	transform="rotate(90) translate(0,-170) " />
	
	<path class="blade" d="M -20,140 
	A 120,150 0 0,1 20,-120 
	C 70,-130 85,-95 60,-70 
	C 0,0 -30,60 -10,130 L-20,140"
	transform="rotate(180) translate(0,-170) " />
	
	<animateTransform attributeName="transform" 
						attributeType="XML" 
						dur="2s" 
						repeatCount="indefinite" 
						type="rotate" 
						from="0" 
						to="360" ></animateTransform>
</g>
<circle cx="0" cy="0" r="40" stroke-width="8" stroke="#444" fill="#fff" />
</svg>
