<?xml version="1.0" encoding="UTF-8" standalone="no"?>
<svg width="400" height="300" viewBox="-200 -150 400 300" xmlns="http://www.w3.org/2000/svg" xmlns:xlink="http://www.w3.org/1999/xlink" preserveAspectRatio="xMinYMin meet">

<!-- Building -->
<path d="M-150,140 L-150,-110 L0,-140 L150,-110 L150,140 Z" stroke="#1a488b" stroke-width="8" fill="#1a488b" fill-opacity="0.25" opacity="0.75" />

<!-- Door -->
<path d="M-25,140 L-25,75 L25,75 L25,140" stroke="#1a488b" stroke-width="6" fill="none" opacity="0.75" />

<!-- Windows -->
<path d="M-25,25 L-25,-25 L25,-25 L25,25 Z" stroke="#1a488b" stroke-width="6" fill="#fff" opacity="0.75" transform="translate(-100,90)" />
<path d="M-25,25 L-25,-25 L25,-25 L25,25 Z" stroke="#1a488b" stroke-width="6" fill="#fff" opacity="0.75" transform="translate(100,90)" />

<path d="M-25,25 L-25,-25 L25,-25 L25,25 Z" stroke="#1a488b" stroke-width="6" fill="#fff" opacity="0.75" transform="translate(-100,10)" />
<path d="M-25,25 L-25,-25 L25,-25 L25,25 Z" stroke="#1a488b" stroke-width="6" fill="#fff" opacity="0.75" transform="translate(0,10)" />
<path d="M-25,25 L-25,-25 L25,-25 L25,25 Z" stroke="#1a488b" stroke-width="6" fill="#fff" opacity="0.75" transform="translate(100,10)" />

<path d="M-25,25 L-25,-25 L25,-25 L25,25 Z" stroke="#1a488b" stroke-width="6" fill="#fff" opacity="0.75" transform="translate(-100,-70)" />
<path d="M-25,25 L-25,-25 L25,-25 L25,25 Z" stroke="#1a488b" stroke-width="6" fill="#fff" opacity="0.75" transform="translate(0,-70)" />
<path d="M-25,25 L-25,-25 L25,-25 L25,25 Z" stroke="#1a488b" stroke-width="6" fill="#fff" opacity="0.75" transform="translate(100,-70)" />

</svg>
