<?xml version="1.0" encoding="UTF-8" standalone="no"?>
<svg width="400" height="300" viewBox="0 0 400 300" xmlns="http://www.w3.org/2000/svg" preserveAspectRatio="xMinYMin meet">
<defs>
	<linearGradient id="gradSmileyCold" x1="0%" y1="0%" x2="0%" y2="100%">
		<stop offset="0%" style="stop-color:rgb(0,0,255);stop-opacity:1" />
		<stop offset="100%" style="stop-color:rgb(0,255,255);stop-opacity:1" />
	</linearGradient>
	<linearGradient id="gradSmileyHappy" x1="0%" y1="0%" x2="0%" y2="100%">
		<stop offset="0%" style="stop-color:rgb(0,170,0);stop-opacity:1" />
		<stop offset="100%" style="stop-color:rgb(0,170,0);stop-opacity:1" />
	</linearGradient>
	<linearGradient id="gradSmileyHot" x1="0%" y1="0%" x2="0%" y2="100%">
		<stop offset="0%" style="stop-color:rgb(255,0,0);stop-opacity:1" />
		<stop offset="100%" style="stop-color:rgb(255,255,0);stop-opacity:1" />
	</linearGradient>
</defs>

<path d="M40,95 L360,95 L200,225 Z" style="stroke:#ccc;stroke-width:1;fill:#eee;" />
<!--
<path d="M40,275 L360,275 L360,100 L200,225 L40,100 Z" style="stroke:#888;stroke-width:10;fill:#fff;" />
<path d="M50,275 L350,275 L230,190 L170,190 Z" style="stroke:#888;stroke-width:10;fill:#fff;" />
-->
<path d="M38,92 L362,92 L200,10 Z" style="stroke:#ccc;stroke-width:5;fill:#eee;" />

<g transform="translate(160,140) scale(0.55,0.55)">
	<circle x="0" y="0" r="100" fill="url(#gradSmileyCold)" stroke-width="3" stroke="#000" />
	<circle cx="-40" cy="-30" r="10" style="stroke:#fff;stroke-width:4;fill:#fff;opacity:1;" />
	<circle cx="40" cy="-30" r="10" style="stroke:#fff;stroke-width:4;fill:#fff;opacity:1;" />
	<path class="smile" d="M0 30 L-40 30 
		A 15,15 1 0,0 -40,60 
		L40 60 
		A 15,15 1 0,0 40 30
		L0 30" style="stroke:#fff;stroke-width:12;stroke-linecap:round;fill:#fff;opacity:1;" />
	<path class="teeth" d="M-40 30 L-40 60
		M-20 30 L-20 60
		M0 30 L0 60
		M20 30 L20 60
		M40 30 L40 60
		M-60 45 L60 45"
		style="stroke:#000;stroke-width:2;stroke-linecap:round;fill:none;opacity:1;" />
</g>

<g transform="translate(240,100) scale(0.55,0.55)">
	<circle x="0" y="0" r="100" fill="url(#gradSmileyHappy)" stroke-width="3" stroke="#000" />
	<circle cx="-40" cy="-30" r="10" style="stroke:#fff;stroke-width:4;fill:#fff;opacity:1;" />
	<circle cx="40" cy="-30" r="10" style="stroke:#fff;stroke-width:4;fill:#fff;opacity:1;" />
	<path d="M-60 25 A 65,65 1 0,0 60,25" style="stroke:#fff;stroke-width:12;stroke-linecap:round;fill:none;opacity:1;" />
</g>

<g transform="translate(320,60) scale(0.55,0.55)">
	<circle x="0" y="0" r="100" fill="url(#gradSmileyHot)" stroke-width="3" stroke="#000" />
	<circle cx="-40" cy="-30" r="10" style="stroke:#fff;stroke-width:4;fill:#fff;opacity:1;" />
	<circle cx="40" cy="-30" r="10" style="stroke:#fff;stroke-width:4;fill:#fff;opacity:1;" />
	<path class="smile" d="M0 30 L-40 30 
		A 15,15 1 0,0 -40,60 
		L40 60 
		A 15,15 1 0,0 40 30
		L0 30" style="stroke:#fff;stroke-width:12;stroke-linecap:round;fill:#fff;opacity:1;" />
	<path class="teeth" d="M-40 30 L-40 60
			M-20 30 L-20 60
			M0 30 L0 60
			M20 30 L20 60
			M40 30 L40 60
			M-60 45 L60 45"
			style="stroke:#000;stroke-width:2;stroke-linecap:round;fill:none;opacity:1;" />
</g>

<path d="M40,275 L360,275 L360,100 L200,225 L40,100 Z" style="stroke:#888;stroke-width:10;fill:#fff;" />
<path d="M50,275 L350,275 L230,190 L170,190 Z" style="stroke:#888;stroke-width:10;fill:#fff;" />

</svg>
