<?xml version="1.0" encoding="UTF-8" standalone="no"?>
<svg width="400" height="300" viewBox="-200 -150 400 300" xmlns="http://www.w3.org/2000/svg" preserveAspectRatio="xMinYMin meet">
<style>
.ele {
	opacity: 0.8;
	stroke-width: 4;
	stroke: #000;
	fill: #ff0;
}
.tem {
	opacity: 0.8;
	stroke-width: 4;
	stroke: #000;
	fill: url(#grad);
}
.co2 {
	opacity: 0.8;
	stroke-width: 4;
	stroke: #000;
	fill: #78c51b;
}
</style>
<defs>
	<linearGradient id="grad" x1="0%" y1="0%" x2="0%" y2="100%">
		<stop offset="0%" style="stop-color:rgb(255,0,0);stop-opacity:1" />
		<stop offset="100%" style="stop-color:rgb(0,0,255);stop-opacity:1" />
	</linearGradient>
</defs>
<line x1="-190" y1="-100" x2="190" y2="-100" style="fill:none;stroke-width:2px;stroke:#888;" />
<line x1="-190" y1="-50" x2="190" y2="-50" style="fill:none;stroke-width:2px;stroke:#888;" />
<line x1="-190" y1="0" x2="190" y2="0" style="fill:none;stroke-width:2px;stroke:#888;" />
<line x1="-190" y1="50" x2="190" y2="50" style="fill:none;stroke-width:2px;stroke:#888;" />
<line x1="-190" y1="100" x2="190" y2="100" style="fill:none;stroke-width:2px;stroke:#888;" />

<path class="ele" d="M-180,0  L-180,-100 L-60,-100 L-60,0  L-180,0" />
<path class="tem" d="M-60,50  L-60,-50   L60,-50   L60,50  L-60,50"/>
<path class="co2" d="M60,100  L60,0   L180,0   L180,100  L60,100" />

<!--
<path d="M-75,50  L-75,-50   L0,-50    L0,50   L-75,50" style="fill:#C0D6E5;stroke-width:1px;stroke:#000;" />
<path d="M0,75    L0,-25     L75,-25   L75,75  L0,75" style="fill:#35A1EE;stroke-width:1px;stroke:#000;" />
<path d="M75,85   L75,-10    L150,-10  L150,85 L75,85" style="fill:#005794;stroke-width:1px;stroke:#000;" />
-->

<path d="M-120,-120 L-120,-50" style="fill:#000;stroke-width:2px;stroke:#000;" />
<path d="M-10,0 L0,-20 L10,0 Z" style="fill:#000;stroke-width:2px;stroke:#000;" transform="translate(-120,-120)" />
<path d="M-10,0 L0,-20 L10,0 Z" style="fill:#000;stroke-width:2px;stroke:#000;" transform="rotate(180) translate(120,50)" />

<path d="M0,-90 L0,-20" style="fill:#000;stroke-width:2px;stroke:#000;" />
<path d="M-10,0 L0,-20 L10,0 Z" style="fill:#000;stroke-width:2px;stroke:#000;" transform="translate(0,-90)" />
<path d="M-10,0 L0,-20 L10,0 Z" style="fill:#000;stroke-width:2px;stroke:#000;" transform="rotate(180) translate(0,20)" />

<path d="M120,-60 L120,10" style="fill:#000;stroke-width:2px;stroke:#000;" />
<path d="M-10,0 L0,-20 L10,0 Z" style="fill:#000;stroke-width:2px;stroke:#000;" transform="translate(120,-60)" />
<path d="M-10,0 L0,-20 L10,0 Z" style="fill:#000;stroke-width:2px;stroke:#000;" transform="rotate(180) translate(-120,-10)" />

<!--

<path d="M112.5,-80  L112.5,-30" style="fill:#000;stroke-width:2px;stroke:#000;" />
<path d="M37.5,-100   L37.5,-50" style="fill:#000;stroke-width:2px;stroke:#000;" />
<path d="M-37.5,-120  L-37.5,-70" style="fill:#000;stroke-width:2px;stroke:#000;" />

<path d="M-10,0 L0,-20 L10,0 Z" style="fill:#000;stroke-width:2px;stroke:#000;" transform="translate(-37.5,-100)" />
<path d="M-10,0 L0,-20 L10,0 Z" style="fill:#000;stroke-width:2px;stroke:#000;" transform="rotate(180) translate(37.5,75)" />

<path d="M-10,0 L0,-20 L10,0 Z" style="fill:#000;stroke-width:2px;stroke:#000;" transform="translate(37.5,-85)" />
<path d="M-10,0 L0,-20 L10,0 Z" style="fill:#000;stroke-width:2px;stroke:#000;" transform="rotate(180) translate(-37.5,50)" />

<path d="M-10,0 L0,-20 L10,0 Z" style="fill:#000;stroke-width:2px;stroke:#000;" transform="translate(112.5,-75)" />
<path d="M-10,0 L0,-20 L10,0 Z" style="fill:#000;stroke-width:2px;stroke:#000;" transform="rotate(180) translate(-112.5,40)" />

-->
</svg>
