<?xml version="1.0" encoding="UTF-8" standalone="no"?>
<svg width="400" height="300" viewBox="-200 -150 400 300" xmlns="http://www.w3.org/2000/svg" xmlns:xlink="http://www.w3.org/1999/xlink" preserveAspectRatio="xMinYMin meet">
<!--
<path d="M0,-45 L50,-45 A20,20 0 0,1 70,-25 L70,25 A20,20 0 0,1 50,45 
		L-50,45 A20,20 0 0,1 -70,25 L-70,-25 A20,20 0 0,1 -50,-45 L0,-45" 
	style="stroke:#f00;stroke-width:5px;fill:#f00" />
-->

<circle cx="0" cy="0" r="148" style="stroke:#000;stroke-width:2px;fill:#f00;" />

<!-- White circle and white vertical line -->
<circle cx="0" cy="0" r="80" style="stroke:#fff;stroke-width:20px;fill:none;" />
<path d="M0,-20 L0,-100" style="stroke:#fff;stroke-width:20px;fill:none;stroke-linecap:round;" />
<!-- Vertical "shadows" in white circle -->
<path d="M-20,0 L-20,-120" style="stroke:#f00;stroke-width:20px;fill:none;" />
<path d="M20,0 L20,-120" style="stroke:#f00;stroke-width:20px;fill:none;" />
</svg>