<?xml version="1.0" encoding="UTF-8" standalone="no"?>
<svg width="1800" height="900" viewBox="0 0 1800 900" xmlns="http://www.w3.org/2000/svg" xmlns:xlink="http://www.w3.org/1999/xlink" preserveAspectRatio="xMinYMin meet">
<style>
path {
	fill: none;
	stroke: #16b65f;
	stroke-width: 10px;
	stroke-dasharray: 30px 10px;
}
</style>
<rect fill="#fff" stroke="#eee" stroke-width="10" x="5" y="5" width="1790" height="890"/>
<image x="100" y="250" width="200" height="300" xlink:href="powerline.svg" />
<g opacity="1.0">
	<path id="p1" d="M 300,400 L 1000,400 
	M 1000,310 L 1000,500 
	M 1000,500 L 500,500 L 500,620 
	M 700,500 L 700,740 
	M 900,500 L 900,620 
	M 1000,500 L 1100,500 L 1100,740 
	M 1100,500 L 1300,500 L 1300,620 
	M 1300,500 L 1500,500 L 1500,740">
		<animate attributeName="stroke-dashoffset" from="40" to="0" dur="1s" repeatCount="indefinite" />
	</path>
	<text id="grid-power" x="400" y="380" font-family="Arial, Helvetica, sans-serif" font-size="42px" fill="#f00">120.0 kW</text>
	
	<!--
	<rect x="800" y="100" width="400" height="200" fill="#fff" stroke-width="4" stroke="#000" />
	-->
	<image x="880" y="10" width="165" height="150" xlink:href="solarpanel.svg" />
	<image x="1010" y="10" width="165" height="150" xlink:href="solarpanel.svg" />
	<image x="780" y="140" width="165" height="150" xlink:href="solarpanel.svg" />
	<image x="910" y="140" width="165" height="150" xlink:href="solarpanel.svg" />
	<image x="1040" y="140" width="165" height="150" xlink:href="solarpanel.svg" />
	<text x="900" y="300" font-family="Arial, Helvetica, sans-serif" font-size="26px" fill="#000">SOLAR PANELS</text>
	
	<rect x="1350" y="740" width="300" height="100" fill="#fff" stroke-width="4" stroke="#000" />
	<rect x="1150" y="620" width="300" height="100" fill="#fff" stroke-width="4" stroke="#000" />
	<rect x="950" y="740" width="300" height="100" fill="#fff" stroke-width="4" stroke="#000" />
	<rect x="750" y="620" width="300" height="100" fill="#fff" stroke-width="4" stroke="#000" />
	<rect x="550" y="740" width="300" height="100" fill="#fff" stroke-width="4" stroke="#000" />
	<rect x="350" y="620" width="300" height="100" fill="#fff" stroke-width="4" stroke="#000" />
</g>
</svg>
