<?xml version="1.0" encoding="UTF-8" standalone="no"?>
<svg width="200" height="200" viewBox="-100 -100 200 200" xmlns="http://www.w3.org/2000/svg" preserveAspectRatio="xMinYMin meet">
<style>
.compressor {
	stroke-width: 3;
	stroke: #555;
	fill: #555;
}
</style>
<g opacity="0.75">
	<!-- A rx ry x-axis-rotation large-arc-flag sweep-flag x y -->
	
	
	
	<circle cx="0" cy="0" r="60" stroke-width="3" stroke="#555" fill="#444" />
	<circle cx="0" cy="0" r="30" stroke-width="3" stroke="#000" fill="#80cbc4" />
	
	<path class="compressor" d="M 60,0 L 80,0 L 80,-10 A 40 40 0 0 0 57,-15 M 60,0 L 80,0 L 80,10 A 40 40 0 0 1 57,15" />
	<path class="compressor" d="M 60,0 L 80,0 L 80,-10 A 40 40 0 0 0 57,-15 M 60,0 L 80,0 L 80,10 A 40 40 0 0 1 57,15" transform="rotate(-45)" />
	<path class="compressor" d="M 60,0 L 80,0 L 80,-10 A 40 40 0 0 0 57,-15 M 60,0 L 80,0 L 80,10 A 40 40 0 0 1 57,15" transform="rotate(-90)" />
	<path class="compressor" d="M 60,0 L 80,0 L 80,-10 A 40 40 0 0 0 57,-15 M 60,0 L 80,0 L 80,10 A 40 40 0 0 1 57,15" transform="rotate(-135)" />
	<path class="compressor" d="M 60,0 L 80,0 L 80,-10 A 40 40 0 0 0 57,-15 M 60,0 L 80,0 L 80,10 A 40 40 0 0 1 57,15" transform="rotate(-180)" />
	<path class="compressor" d="M 60,0 L 80,0 L 80,-10 A 40 40 0 0 0 57,-15 M 60,0 L 80,0 L 80,10 A 40 40 0 0 1 57,15" transform="rotate(-225)" />
	<path class="compressor" d="M 60,0 L 80,0 L 80,-10 A 40 40 0 0 0 57,-15 M 60,0 L 80,0 L 80,10 A 40 40 0 0 1 57,15" transform="rotate(-270)" />
	<path class="compressor" d="M 60,0 L 80,0 L 80,-10 A 40 40 0 0 0 57,-15 M 60,0 L 80,0 L 80,10 A 40 40 0 0 1 57,15" transform="rotate(-315)" />
	
	<animateTransform attributeName="transform" 
					attributeType="XML" 
					dur="8s" 
					repeatCount="indefinite" 
					type="rotate" 
					from="0" 
					to="360" >
	</animateTransform>
</g>
</svg>
