<?xml version="1.0" encoding="UTF-8" standalone="no"?>
<svg width="1800" height="900" viewBox="0 0 1800 900" xmlns="http://www.w3.org/2000/svg" xmlns:xlink="http://www.w3.org/1999/xlink" preserveAspectRatio="xMinYMin meet">
<style>
.target {
	cursor: pointer;
	fill: #009688;
	stroke-width: 1;
	stroke: #fff;
	fill-opacity: 0.05;
	transition: transform, fill-opacity, stroke-width;
	transition-duration: 0.5s;
}
.section-title {
	opacity: 0.75;
	font-family: "Arial, Helvetica, sans-serif";
	font-size: 28px;
	fill: #000;
	/*stroke: #555;*/
	stroke-width: 1;
}
</style>
<!--
<rect fill="#fff" stroke="#eee" stroke-width="10" x="5" y="5" width="1790" height="890"/>
#e0f2f1 teal lighten-5
#b2dfdb teal lighten-4
#80cbc4 teal lighten-3
#4db6ac teal lighten-2
#26a69a teal lighten-1
#009688 teal
#00897b teal darken-1
#00796b teal darken-2
#00695c teal darken-3
#004d40 teal darken-4
-->
<defs>
	<radialGradient id="grad" cx="50%" cy="50%" r="75%"><!-- fx="50%" fy="50%">-->
		<stop offset="10%" style="stop-color:#e0f2f1; stop-opacity:1" />
		<stop offset="50%" style="stop-color:#80cbc4; stop-opacity:1" />
		<stop offset="90%" style="stop-color:#009688; stop-opacity:1" />
	</radialGradient>
</defs>
<rect x="0" y="0" width="1800" height="900" fill="url(#grad)" stroke-width="0" stroke="#000" />
<svg x="100" y="20" width="1600px" height="120px">
	<rect x="1" y="1" width="1598" height="118" stroke="#fff" stroke-width="1" opacity="0.1" fill="#009688" />
	<text x="50%" y="50%" dominant-baseline="middle" text-anchor="middle" font-family="Arial, Helvetica, sans-serif" font-size="92px" fill="#fff">S-Market Kaukovainio</text>
</svg>

<g>
	<path id="p1" d="M 300,400 L 1000,400 
	M 1000,300 L 1000,500 
	M 1300,300 L 1300,350 
	A 50,50 0 0,1 1250,400 L1000,400 
	M 1000,500 L 550,500 
	A 50,50 0 0,0 500,550 L 500,600 
	M 700,500 L 700,720 
	M 900,500 L 900,600 
	M 1000,500 L 1100,500 L 1100,720 
	M 1100,500 L 1300,500 L 1300,600 
	M 1300,500 L 1450,500 A 50,50 0 0,1 1500,550 L 1500,720" 
	style="opacity:0.5;stroke:#0a0;stroke-width:15px;stroke-dasharray:30px 10px;fill:none;">
		<animate attributeName="stroke-dashoffset" from="40" to="0" dur="1s" repeatCount="indefinite" />
	</path>
	
	<!-- Dynamically inserted POWER CONSUMPTION VALUES: -->
	<text id="grid-power" x="400" y="380" font-family="Arial, Helvetica, sans-serif" font-size="32px" fill="#f00"></text>
	<text id="solar-power" x="1020" y="360" font-family="Arial, Helvetica, sans-serif" font-size="32px" fill="#0a0"></text>
	<text id="geothermal-power" x="1320" y="360" font-family="Arial, Helvetica, sans-serif" font-size="32px" fill="#0a0"></text>
	
	<svg x="420" y="560" width="160px" height="40px">
		<!--<rect x="1" y="1" width="158" height="38" stroke="#fff" stroke-width="1" opacity="0.2" fill="#009688" />-->
		<text id="lights-power" font-family="Arial, Helvetica, sans-serif" font-size="32px" fill="#00a" x="50%" y="50%" dominant-baseline="middle" text-anchor="middle"></text>
	</svg>
	<svg x="620" y="680" width="160px" height="40px">
		<!--<rect x="1" y="1" width="158" height="38" stroke="#fff" stroke-width="1" opacity="0.2" fill="#009688" />-->
		<text id="kitchen-power" font-family="Arial, Helvetica, sans-serif" font-size="32px" fill="#00a" x="50%" y="50%" dominant-baseline="middle" text-anchor="middle"></text>
	</svg>
	<svg x="820" y="560" width="160px" height="40px">
		<!--<rect x="1" y="1" width="158" height="38" stroke="#fff" stroke-width="1" opacity="0.2" fill="#009688" />-->
		<text id="ventilation-power" font-family="Arial, Helvetica, sans-serif" font-size="32px" fill="#00a" x="50%" y="50%" dominant-baseline="middle" text-anchor="middle"></text>
	</svg>
	<svg x="1020" y="680" width="160px" height="40px">
		<!--<rect x="1" y="1" width="158" height="38" stroke="#fff" stroke-width="1" opacity="0.2" fill="#009688" />-->
		<text id="other-power" font-family="Arial, Helvetica, sans-serif" font-size="32px" fill="#00a" x="50%" y="50%" dominant-baseline="middle" text-anchor="middle"></text>
	</svg>
	<svg x="1220" y="560" width="160px" height="40px">
		<!--<rect x="1" y="1" width="158" height="38" stroke="#fff" stroke-width="1" opacity="0.2" fill="#009688" />-->
		<text id="cooler-machines-power" font-family="Arial, Helvetica, sans-serif" font-size="32px" fill="#00a" x="50%" y="50%" dominant-baseline="middle" text-anchor="middle"></text>
	</svg>
	<svg x="1420" y="680" width="160px" height="40px">
		<!--<rect x="1" y="1" width="158" height="38" stroke="#fff" stroke-width="1" opacity="0.2" fill="#009688" />-->
		<text id="cooler-equipments-power" font-family="Arial, Helvetica, sans-serif" font-size="32px" fill="#00a" x="50%" y="50%" dominant-baseline="middle" text-anchor="middle"></text>
	</svg>
	
	<image x="170" y="330" width="100" height="150" xlink:href="powerline.svg" />
	<image x="930" y="170" width="147" height="133" xlink:href="solarpanel.svg" />
	<image x="450" y="620" width="100" height="100" xlink:href="lightbulb.svg" />
	<image x="635" y="720" width="130" height="130" xlink:href="kitchen.svg" />
	<image x="840" y="610" width="120" height="120" xlink:href="ventilation.svg" />
	<image x="1020" y="690" width="160" height="160" xlink:href="vehicle.svg" />
	<image x="1250" y="620" width="100" height="100" xlink:href="refrigmachines.svg" />
	<image x="1450" y="740" width="100" height="100" xlink:href="refrigequipments.svg" />
	
	<image x="1230" y="170" width="140" height="140" xlink:href="geothermal.svg" />
	
	<rect class="target" id="target-a-a" x="-80" y="-70" width="160" height="140" transform="translate(220,400) scale(1.0)" />
	<rect class="target" id="target-a-b" x="-80" y="-70" width="160" height="140" transform="translate(1000,230) scale(1.0)" />
	<rect class="target" id="target-a-c" x="-80" y="-70" width="160" height="140" transform="translate(500,670) scale(1.0)" />
	<rect class="target" id="target-a-d" x="-80" y="-70" width="160" height="140" transform="translate(700,790) scale(1.0)" />
	<rect class="target" id="target-a-e" x="-80" y="-70" width="160" height="140" transform="translate(900,670) scale(1.0)" />
	<rect class="target" id="target-a-f" x="-80" y="-70" width="160" height="140" transform="translate(1100,790) scale(1.0)" />
	<rect class="target" id="target-a-g" x="-80" y="-70" width="160" height="140" transform="translate(1300,670) scale(1.0)" />
	<rect class="target" id="target-a-h" x="-80" y="-70" width="160" height="140" transform="translate(1500,790) scale(1.0)" />
	
	<rect class="target" id="target-a-i" x="-80" y="-70" width="160" height="140" transform="translate(1300,230) scale(1.0)" />
	
	<svg x="80" y="470" width="280px" height="40px">
		<!--<rect x="1" y="1" width="278" height="38" stroke="#fff" stroke-width="1" opacity="0.2" fill="#009688" />-->
		<text class="section-title" id="da-grid-title" x="50%" y="50%" dominant-baseline="middle" text-anchor="middle"></text>
	</svg>
	<svg x="860" y="300" width="280px" height="40px">
		<!--<rect x="1" y="1" width="278" height="38" stroke="#fff" stroke-width="1" opacity="0.2" fill="#009688" />-->
		<text class="section-title" id="da-solar-title" x="50%" y="50%" dominant-baseline="middle" text-anchor="middle"></text>
	</svg>
	<svg x="1160" y="300" width="280px" height="40px">
		<!--<rect x="1" y="1" width="278" height="38" stroke="#fff" stroke-width="1" opacity="0.2" fill="#009688" />-->
		<text class="section-title" id="da-geothermal-title" x="50%" y="50%" dominant-baseline="middle" text-anchor="middle"></text>
	</svg>
	<svg x="350" y="740" width="280px" height="40px">
		<!--<rect x="1" y="1" width="278" height="38" stroke="#fff" stroke-width="1" opacity="0.2" fill="#009688" />-->
		<text class="section-title" id="da-light-title" x="50%" y="50%" dominant-baseline="middle" text-anchor="middle"></text>
	</svg>
	<svg x="560" y="860" width="280px" height="40px">
		<!--<rect x="1" y="1" width="278" height="38" stroke="#fff" stroke-width="1" opacity="0.2" fill="#009688" />-->
		<text class="section-title" id="da-kitchen-title" x="50%" y="50%" dominant-baseline="middle" text-anchor="middle"></text>
	</svg>
	<svg x="760" y="740" width="280px" height="40px">
		<!--<rect x="1" y="1" width="278" height="38" stroke="#fff" stroke-width="1" opacity="0.2" fill="#009688" />-->
		<text class="section-title" id="da-hpac-title" x="50%" y="50%" dominant-baseline="middle" text-anchor="middle"></text>
	</svg>
	<svg x="960" y="860" width="280px" height="40px">
		<!--<rect x="1" y="1" width="278" height="38" stroke="#fff" stroke-width="1" opacity="0.2" fill="#009688" />-->
		<text class="section-title" id="da-other-title" x="50%" y="50%" dominant-baseline="middle" text-anchor="middle"></text>
	</svg>
	<svg x="1160" y="740" width="280px" height="40px">
		<!--<rect x="1" y="1" width="278" height="38" stroke="#fff" stroke-width="1" opacity="0.2" fill="#009688" />-->
		<text class="section-title" id="da-cooler-machines-title" x="50%" y="50%" dominant-baseline="middle" text-anchor="middle"></text>
	</svg>
	<svg x="1360" y="860" width="280px" height="40px">
		<!--<rect x="1" y="1" width="278" height="38" stroke="#fff" stroke-width="1" opacity="0.2" fill="#009688" />-->
		<text class="section-title" id="da-cooler-equipment-title" x="50%" y="50%" dominant-baseline="middle" text-anchor="middle"></text>
	</svg>
	<!--
	<svg x="1400" y="860" width="400px" height="40px">
		<rect x="1" y="1" width="398" height="98" stroke="#000" stroke-width="1" opacity="1" fill="#009688" />
		<text id="da-auto-update-interval-text" x="50%" y="50%" dominant-baseline="middle" text-anchor="middle" font-family="Arial, Helvetica, sans-serif" fill="#fff" font-size="20px">values are updated once every 30 seconds</text>
	</svg>
	-->
</g>
</svg>
