<?xml version="1.0" encoding="UTF-8" standalone="no"?>
<svg width="1800" height="900" viewBox="0 0 1800 900" xmlns="http://www.w3.org/2000/svg" xmlns:xlink="http://www.w3.org/1999/xlink" preserveAspectRatio="xMinYMin meet">
<style>
.target {
	cursor: pointer;
	fill: #009688;
	stroke-width: 1;
	stroke: #fff;
	fill-opacity: 0.05;
	transition: transform, fill-opacity, stroke-width;
	transition-duration: 0.5s;
}
</style>
<!--
<rect fill="#fff" stroke="#eee" stroke-width="10" x="5" y="5" width="1790" height="890"/>
#e0f2f1 teal lighten-5
#b2dfdb teal lighten-4
#80cbc4 teal lighten-3
#4db6ac teal lighten-2
#26a69a teal lighten-1
#009688 teal
#00897b teal darken-1
#00796b teal darken-2
#00695c teal darken-3
#004d40 teal darken-4
-->
<defs>
	<radialGradient id="grad" cx="50%" cy="50%" r="75%"><!-- fx="50%" fy="50%">-->
		<stop offset="10%" style="stop-color:#e0f2f1; stop-opacity:1" />
		<stop offset="50%" style="stop-color:#80cbc4; stop-opacity:1" />
		<stop offset="90%" style="stop-color:#009688; stop-opacity:1" />
	</radialGradient>
</defs>
<rect x="0" y="0" width="1800" height="900" fill="url(#grad)" stroke-width="0" stroke="#000" />
<svg x="100" y="20" width="1600px" height="120px">
	<rect x="1" y="1" width="1598" height="118" stroke="#fff" stroke-width="1" opacity="0.1" fill="#009688" />
	<text x="50%" y="50%" dominant-baseline="middle" text-anchor="middle" font-family="Arial, Helvetica, sans-serif" font-size="92px" fill="#fff">S-Market Kaukovainio</text>
</svg>

<g>
	<path id="p1" d="M 300,400 L 1000,400 
	M 1000,300 L 1000,500 
	M 1000,500 L 550,500 
	A 50,50 0 0,0 500,550 L 500,600 
	M 700,500 L 700,720 
	M 900,500 L 900,600 
	M 1000,500 L 1100,500 L 1100,720 
	M 1100,500 L 1300,500 L 1300,600 
	M 1300,500 L 1450,500 A 50,50 0 0,1 1500,550 L 1500,720" 
	style="opacity:0.5;stroke:#0a0;stroke-width:15px;stroke-dasharray:30px 10px;fill:none;">
		<animate attributeName="stroke-dashoffset" from="40" to="0" dur="1s" repeatCount="indefinite" />
	</path>
	
	<text id="grid-power" x="400" y="380" font-family="Arial, Helvetica, sans-serif" font-size="32px" fill="#f00"></text>
	<text id="solar-power" x="1020" y="340" font-family="Arial, Helvetica, sans-serif" font-size="32px" fill="#0a0"></text>
	<text id="lights-power" x="440" y="580" font-family="Arial, Helvetica, sans-serif" font-size="32px" fill="#00a"></text>
	<text id="kitchen-power" x="640" y="700" font-family="Arial, Helvetica, sans-serif" font-size="32px" fill="#00a"></text>
	<text id="ventilation-power" x="840" y="580" font-family="Arial, Helvetica, sans-serif" font-size="32px" fill="#00a"></text>
	<text id="other-power" x="1040" y="700" font-family="Arial, Helvetica, sans-serif" font-size="32px" fill="#00a"></text>
	<text id="cooler-machines-power" x="1240" y="580" font-family="Arial, Helvetica, sans-serif" font-size="32px" fill="#00a"></text>
	<text id="cooler-equipments-power" x="1440" y="700" font-family="Arial, Helvetica, sans-serif" font-size="32px" fill="#00a"></text>
	
	<image x="170" y="330" width="100" height="150" xlink:href="powerline.svg" />
	<image x="930" y="170" width="147" height="133" xlink:href="solarpanel.svg" />
	
	<image x="450" y="620" width="100" height="100" xlink:href="lightbulb.svg" />
	<image x="1020" y="690" width="160" height="160" xlink:href="vehicle.svg" />
	<image x="1250" y="620" width="100" height="100" xlink:href="refrigmachines.svg" />
	<image x="1450" y="740" width="100" height="100" xlink:href="refrigequipments.svg" />
	
	<rect class="target" id="target-a-a" x="-80" y="-70" width="160" height="140" transform="translate(500,670) scale(1.0)" />
	<rect class="target" id="target-a-b" x="-80" y="-70" width="160" height="140" transform="translate(700,790) scale(1.0)" />
	<rect class="target" id="target-a-c" x="-80" y="-70" width="160" height="140" transform="translate(900,670) scale(1.0)" />
	<rect class="target" id="target-a-d" x="-80" y="-70" width="160" height="140" transform="translate(1100,790) scale(1.0)" />
	<rect class="target" id="target-a-e" x="-80" y="-70" width="160" height="140" transform="translate(1300,670) scale(1.0)" />
	<rect class="target" id="target-a-f" x="-80" y="-70" width="160" height="140" transform="translate(1500,790) scale(1.0)" />
	<rect class="target" id="target-a-g" x="-80" y="-70" width="160" height="140" transform="translate(1000,230) scale(1.0)" />
	<rect class="target" id="target-a-h" x="-80" y="-70" width="160" height="140" transform="translate(220,400) scale(1.0)" />
</g>
</svg>
