<?xml version="1.0" encoding="UTF-8" standalone="no"?>
<svg width="1800" height="900" viewBox="0 0 1800 900" xmlns="http://www.w3.org/2000/svg" xmlns:xlink="http://www.w3.org/1999/xlink" preserveAspectRatio="xMinYMin meet">
<style>
.target {
	cursor: pointer;
	fill: #009688;
	stroke-width: 1;
	stroke: #fff;
	fill-opacity: 0.05;
	transition: transform, fill-opacity, stroke-width;
	transition-duration: 0.5s;
}
.section-title {
	opacity: 0.75;
	font-family: "Arial, Helvetica, sans-serif";
	font-size: 28px;
	fill: #000;
	/*stroke: #555;*/
	stroke-width: 1;
}
.grid-head {
	opacity: 0.75;
	stroke-width: 2;
	stroke: #fff;
}
.back-button {
	cursor: pointer;
	opacity: 0.75;
}
</style>
<!--
<rect fill="#fff" stroke="#eee" stroke-width="10" x="5" y="5" width="1790" height="890"/>
#e0f2f1 teal lighten-5
#b2dfdb teal lighten-4
#80cbc4 teal lighten-3
#4db6ac teal lighten-2
#26a69a teal lighten-1
#009688 teal
#00897b teal darken-1
#00796b teal darken-2
#00695c teal darken-3
#004d40 teal darken-4
-->
<defs>
	<radialGradient id="grad" cx="50%" cy="50%" r="75%"><!-- fx="50%" fy="50%">-->
		<stop offset="10%" style="stop-color:#e0f2f1; stop-opacity:1" />
		<stop offset="50%" style="stop-color:#80cbc4; stop-opacity:1" />
		<stop offset="90%" style="stop-color:#009688; stop-opacity:1" />
	</radialGradient>
</defs>
<rect x="0" y="0" width="1800" height="900" fill="url(#grad)" stroke-width="0" stroke="#000" />

<text x="530" y="110" opacity="0.75" font-family="Arial, Helvetica, sans-serif" font-size="128px" fill="#fff">Making City</text>
<path class="grid-head" d="M0 19 H538" />
<path class="grid-head" d="M938 110 H1800" />
<text x="950" y="160" opacity="0.75" font-family="Arial, Helvetica, sans-serif" font-size="36px" fill="#fff">S-Market Kaukovainio</text>
<!--
<svg x="100" y="20" width="1600px" height="72px">
	<rect x="1" y="1" width="1598" height="118" stroke="#fff" stroke-width="1" opacity="0.1" fill="#009688" />
	<text x="50%" y="50%" dominant-baseline="middle" text-anchor="middle" font-family="Arial, Helvetica, sans-serif" font-size="72px" fill="#fff">S-Market Kaukovainio</text>
</svg>
-->
<!-- M 1300,500 L 1450,500 A 50,50 0 0,1 1500,550 L 1500,720" -->
<g>
	<path id="p1" d="M 220,450 L 1320,450 
	M 700,300 L 700,500 
	M 700,500 L 350,500 A 50,50 0 0,0 300,550 L 300,600 
	M 500,500 L 500,720 
	M 700,500 L 700,600 
	M 700,500 L 900,500 L 900,720 
	M 900,500 L 1050,500 A 50,50 0 0,1 1100,550 L 1100,600"
	style="opacity:0.5;stroke:#0a0;stroke-width:15px;stroke-dasharray:30px 10px;fill:none;">
		<animate attributeName="stroke-dashoffset" from="40" to="0" dur="1s" repeatCount="indefinite" />
	</path>
	<!--
	<path id="geothermal-pipe" d="M 1300,300 L 1300,350 A 50,50 0 0,1 1250,400 L1000,400" 
	style="opacity:0.5;stroke:#0a0;stroke-width:15px;stroke-dasharray:30px 10px;fill:none;">
		<animate attributeName="stroke-dashoffset" from="40" to="0" dur="1s" repeatCount="indefinite" />
	</path>
	-->
	<path id="geothermal-pipe" d="M 1400,300 L 1400,380" 
	style="opacity:0.5;stroke:#f00;stroke-width:15px;stroke-dasharray:30px 10px;fill:none;">
		<animate attributeName="stroke-dashoffset" from="40" to="0" dur="1s" repeatCount="indefinite" />
	</path>
	
	<path d="M 1450,520 L 1450,720" 
	style="opacity:0.5;stroke:#f00;stroke-width:15px;stroke-dasharray:30px 10px;fill:none;">
		<animate attributeName="stroke-dashoffset" from="40" to="0" dur="1s" repeatCount="indefinite" />
	</path>
	<path d="M 1350,520 L 1350,720" 
	style="opacity:0.5;stroke:#0ff;stroke-width:15px;stroke-dasharray:30px 10px;fill:none;">
		<animate attributeName="stroke-dashoffset" from="40" to="0" dur="1s" repeatCount="indefinite" />
	</path>
	<!-- From Compressor to District Heating Network -->
	<path d="M 1480,450 L 1590,450" 
	style="opacity:0.5;stroke:#f00;stroke-width:15px;stroke-dasharray:30px 10px;fill:none;">
		<animate attributeName="stroke-dashoffset" from="40" to="0" dur="1s" repeatCount="indefinite" />
	</path>
	
	<!-- Dynamically inserted POWER CONSUMPTION VALUES: -->
	<text id="grid-power" x="280" y="430" font-family="Arial, Helvetica, sans-serif" font-size="32px" fill="#f00">78.9 kW</text>
	<text id="solar-power" x="720" y="360" font-family="Arial, Helvetica, sans-serif" font-size="32px" fill="#0a0">1.0 kW</text>
	<text id="geothermal-power" x="1420" y="365" font-family="Arial, Helvetica, sans-serif" font-size="32px" fill="#0a0">1.5 kW</text>
	
	<svg x="220" y="560" width="160px" height="40px">
		<!--<rect x="1" y="1" width="158" height="38" stroke="#fff" stroke-width="1" opacity="0.2" fill="#009688" />-->
		<text id="lights-power" font-family="Arial, Helvetica, sans-serif" font-size="32px" fill="#00a" x="50%" y="50%" dominant-baseline="middle" text-anchor="middle">12.7 kW</text>
	</svg>
	<svg x="420" y="680" width="160px" height="40px">
		<!--<rect x="1" y="1" width="158" height="38" stroke="#fff" stroke-width="1" opacity="0.2" fill="#009688" />-->
		<text id="kitchen-power" font-family="Arial, Helvetica, sans-serif" font-size="32px" fill="#00a" x="50%" y="50%" dominant-baseline="middle" text-anchor="middle">0.1 kW</text>
	</svg>
	<svg x="620" y="560" width="160px" height="40px">
		<!--<rect x="1" y="1" width="158" height="38" stroke="#fff" stroke-width="1" opacity="0.2" fill="#009688" />-->
		<text id="ventilation-power" font-family="Arial, Helvetica, sans-serif" font-size="32px" fill="#00a" x="50%" y="50%" dominant-baseline="middle" text-anchor="middle">8.3 kW</text>
	</svg>
	<svg x="820" y="680" width="160px" height="40px">
		<!--<rect x="1" y="1" width="158" height="38" stroke="#fff" stroke-width="1" opacity="0.2" fill="#009688" />-->
		<text id="other-power" font-family="Arial, Helvetica, sans-serif" font-size="32px" fill="#00a" x="50%" y="50%" dominant-baseline="middle" text-anchor="middle">0.2 kW</text>
	</svg>
	<svg x="1120" y="400" width="160px" height="40px">
		<!--<rect x="1" y="1" width="158" height="38" stroke="#fff" stroke-width="1" opacity="0.2" fill="#009688" />-->
		<text id="cooler-machines-power" font-family="Arial, Helvetica, sans-serif" font-size="32px" fill="#00a" x="50%" y="50%" dominant-baseline="middle" text-anchor="middle">40.3 kW</text>
	</svg>
	<svg x="1020" y="560" width="160px" height="40px">
		<!--<rect x="1" y="1" width="158" height="38" stroke="#fff" stroke-width="1" opacity="0.2" fill="#009688" />-->
		<text id="cooler-equipments-power" font-family="Arial, Helvetica, sans-serif" font-size="32px" fill="#00a" x="50%" y="50%" dominant-baseline="middle" text-anchor="middle">0.0 kW</text>
	</svg>
	<svg x="1450" y="670" width="160px" height="40px">
		<!--<rect x="1" y="1" width="158" height="38" stroke="#fff" stroke-width="1" opacity="0.2" fill="#009688" />-->
		<text id="heating-devices-power" font-family="Arial, Helvetica, sans-serif" font-size="32px" fill="#00a" x="50%" y="50%" dominant-baseline="middle" text-anchor="middle">9.9 kW</text>
	</svg>
	
	<image x="90" y="380" width="100" height="150" xlink:href="powerline.svg" />
	<image x="630" y="170" width="147" height="133" xlink:href="solarpanel.svg" />
	<image x="250" y="620" width="100" height="100" xlink:href="lightbulb.svg" />
	<image x="435" y="720" width="130" height="130" xlink:href="kitchen.svg" />
	<image x="640" y="610" width="120" height="120" xlink:href="ventilation.svg" />
	<image x="820" y="690" width="160" height="160" xlink:href="vehicle.svg" />
	<!--
	<image x="1250" y="620" width="100" height="100" xlink:href="refrigmachines.svg" />
	<image x="1450" y="740" width="100" height="100" xlink:href="refrigequipments.svg" />
	-->
	<image x="1050" y="620" width="100" height="100" xlink:href="refrigequipments.svg" />
	<image x="1330" y="380" width="140" height="140" xlink:href="compressor.svg" />
	<image x="1330" y="170" width="140" height="140" xlink:href="geothermal.svg" />
	
	<image x="1250" y="740" width="100" height="100" xlink:href="refrigmachines.svg" />
	<image x="1430" y="740" width="140" height="140" xlink:href="heating.svg" />
	
	<svg x="0" y="520" width="280px" height="40px">
		<!--<rect x="1" y="1" width="278" height="38" stroke="#fff" stroke-width="1" opacity="0.2" fill="#009688" />-->
		<text class="section-title" id="da-grid-title" x="50%" y="50%" dominant-baseline="middle" text-anchor="middle">Grid</text>
	</svg>
	<svg x="560" y="300" width="280px" height="40px">
		<!--<rect x="1" y="1" width="278" height="38" stroke="#fff" stroke-width="1" opacity="0.2" fill="#009688" />-->
		<text class="section-title" id="da-solar-title" x="50%" y="50%" dominant-baseline="middle" text-anchor="middle">Solar energy</text>
	</svg>
	<svg x="1260" y="300" width="280px" height="40px">
		<!--<rect x="1" y="1" width="278" height="38" stroke="#fff" stroke-width="1" opacity="0.2" fill="#009688" />-->
		<text class="section-title" id="da-geothermal-title" x="50%" y="50%" dominant-baseline="middle" text-anchor="middle">Geothermal energy</text>
	</svg>
	<svg x="150" y="740" width="280px" height="40px">
		<!--<rect x="1" y="1" width="278" height="38" stroke="#fff" stroke-width="1" opacity="0.2" fill="#009688" />-->
		<text class="section-title" id="da-light-title" x="50%" y="50%" dominant-baseline="middle" text-anchor="middle">Lights and appliances</text>
	</svg>
	<svg x="360" y="860" width="280px" height="40px">
		<!--<rect x="1" y="1" width="278" height="38" stroke="#fff" stroke-width="1" opacity="0.2" fill="#009688" />-->
		<text class="section-title" id="da-kitchen-title" x="50%" y="50%" dominant-baseline="middle" text-anchor="middle">Kitchen appliances</text>
	</svg>
	<svg x="560" y="740" width="280px" height="40px">
		<!--<rect x="1" y="1" width="278" height="38" stroke="#fff" stroke-width="1" opacity="0.2" fill="#009688" />-->
		<text class="section-title" id="da-hpac-title" x="50%" y="50%" dominant-baseline="middle" text-anchor="middle">HPAC</text>
	</svg>
	<svg x="760" y="860" width="280px" height="40px">
		<!--<rect x="1" y="1" width="278" height="38" stroke="#fff" stroke-width="1" opacity="0.2" fill="#009688" />-->
		<text class="section-title" id="da-other-title" x="50%" y="50%" dominant-baseline="middle" text-anchor="middle">Other</text>
	</svg>
	<svg x="1260" y="520" width="280px" height="40px">
		<!--<rect x="1" y="1" width="278" height="38" stroke="#fff" stroke-width="1" opacity="0.2" fill="#009688" />-->
		<text class="section-title" id="da-cooler-machines-title" x="50%" y="50%" dominant-baseline="middle" text-anchor="middle">Compressors</text>
	</svg>
	<svg x="1530" y="410" width="280px" height="30px">
		<!--<rect x="1" y="1" width="278" height="38" stroke="#fff" stroke-width="1" opacity="0.2" fill="#009688" />-->
		<text class="section-title" id="da-dhn-district-title" x="50%" y="50%" dominant-baseline="middle" text-anchor="middle">District</text>
	</svg>
	<svg x="1530" y="440" width="280px" height="30px">
		<!--<rect x="1" y="1" width="278" height="38" stroke="#fff" stroke-width="1" opacity="0.2" fill="#009688" />-->
		<text class="section-title" id="da-dhn-heating-title" x="50%" y="50%" dominant-baseline="middle" text-anchor="middle">heating</text>
	</svg>
	<svg x="1530" y="470" width="280px" height="30px">
		<!--<rect x="1" y="1" width="278" height="38" stroke="#fff" stroke-width="1" opacity="0.2" fill="#009688" />-->
		<text class="section-title" id="da-dhn-network-title" x="50%" y="50%" dominant-baseline="middle" text-anchor="middle">network</text>
	</svg>
	<svg x="960" y="740" width="280px" height="40px">
		<!--<rect x="1" y="1" width="278" height="38" stroke="#fff" stroke-width="1" opacity="0.2" fill="#009688" />-->
		<text class="section-title" id="da-cooler-equipment-title" x="50%" y="50%" dominant-baseline="middle" text-anchor="middle">Cooler equipment</text>
	</svg>
	<svg x="1160" y="860" width="280px" height="40px">
		<!--<rect x="1" y="1" width="278" height="38" stroke="#fff" stroke-width="1" opacity="0.2" fill="#009688" />-->
		<text class="section-title" id="da-cooling-title" x="50%" y="50%" dominant-baseline="middle" text-anchor="middle">Cooling</text>
	</svg>
	<svg x="1360" y="860" width="280px" height="40px">
		<!--<rect x="1" y="1" width="278" height="38" stroke="#fff" stroke-width="1" opacity="0.2" fill="#009688" />-->
		<text class="section-title" id="da-heating-title" x="50%" y="50%" dominant-baseline="middle" text-anchor="middle">Heating</text>
	</svg>
	
	<rect class="target" id="target-a-a" x="-80" y="-70" width="160" height="140" transform="translate(140,450) scale(1.0)" />
	<rect class="target" id="target-a-b" x="-80" y="-70" width="160" height="140" transform="translate(700,230) scale(1.0)" />
	<rect class="target" id="target-a-c" x="-80" y="-70" width="160" height="140" transform="translate(300,670) scale(1.0)" />
	<rect class="target" id="target-a-d" x="-80" y="-70" width="160" height="140" transform="translate(500,790) scale(1.0)" />
	<rect class="target" id="target-a-e" x="-80" y="-70" width="160" height="140" transform="translate(700,670) scale(1.0)" />
	<rect class="target" id="target-a-f" x="-80" y="-70" width="160" height="140" transform="translate(900,790) scale(1.0)" />
	<rect class="target" id="target-a-h" x="-80" y="-70" width="160" height="140" transform="translate(1100,670) scale(1.0)" />
	<!--  Compressors: -->
	<rect class="target" id="target-a-g" x="-80" y="-70" width="160" height="140" transform="translate(1400,450) scale(1.0)" />
	<rect class="target" id="target-a-p" x="-80" y="-70" width="160" height="140" transform="translate(1670,450) scale(1.0)" />
	<!--  Geothermal energy: -->
	<rect class="target" id="target-a-i" x="-80" y="-70" width="160" height="140" transform="translate(1400,230) scale(1.0)" />
	<!-- Two new blocks: Cooling devices and Heating devices -->
	<rect class="target" id="target-a-m" x="-80" y="-70" width="160" height="140" transform="translate(1300,790) scale(1.0)" />
	<rect class="target" id="target-a-n" x="-80" y="-70" width="160" height="140" transform="translate(1500,790) scale(1.0)" />
</g>

<image id="back" class="back-button" x="350" y="30" width="120" height="80" xlink:href="backbutton.svg" />

</svg>
