<?xml version="1.0" encoding="UTF-8" standalone="no"?>
<svg width="1800" height="900" viewBox="0 0 1800 900" xmlns="http://www.w3.org/2000/svg" xmlns:xlink="http://www.w3.org/1999/xlink" preserveAspectRatio="xMinYMin meet">
<style>
.target {
	cursor: pointer;
	fill: #009688;
	stroke-width: 1;
	stroke: #fff;
	fill-opacity: 0.05;
	transition: transform, fill-opacity, stroke-width;
	transition-duration: 0.5s;
}
.section-title {
	opacity: 0.75;
	font-family: "Arial, Helvetica, sans-serif";
	font-size: 28px;
	fill: #000;
	/*stroke: #555;*/
	stroke-width: 1;
}
</style>
<!--
<rect fill="#fff" stroke="#eee" stroke-width="10" x="5" y="5" width="1790" height="890"/>
#e0f2f1 teal lighten-5
#b2dfdb teal lighten-4
#80cbc4 teal lighten-3
#4db6ac teal lighten-2
#26a69a teal lighten-1
#009688 teal
#00897b teal darken-1
#00796b teal darken-2
#00695c teal darken-3
#004d40 teal darken-4
-->
<defs>
	<radialGradient id="grad" cx="50%" cy="50%" r="75%"><!-- fx="50%" fy="50%">-->
		<stop offset="10%" style="stop-color:#e0f2f1; stop-opacity:1" />
		<stop offset="50%" style="stop-color:#80cbc4; stop-opacity:1" />
		<stop offset="90%" style="stop-color:#009688; stop-opacity:1" />
	</radialGradient>
</defs>
<rect x="0" y="0" width="1800" height="900" fill="url(#grad)" stroke-width="0" stroke="#000" />
<svg x="100" y="20" width="1600px" height="120px">
	<rect x="1" y="1" width="1598" height="118" stroke="#fff" stroke-width="1" opacity="0.1" fill="#009688" />
	<text x="50%" y="50%" dominant-baseline="middle" text-anchor="middle" font-family="Arial, Helvetica, sans-serif" font-size="92px" fill="#fff">S-Market Kaukovainio</text>
</svg>
<!-- M 1300,500 L 1450,500 A 50,50 0 0,1 1500,550 L 1500,720" -->
<g>
	<path id="p1" d="M 300,450 L 1420,450 
	M 800,300 L 800,500 
	M 800,500 L 450,500 
	A 50,50 0 0,0 400,550 L 400,600 
	M 600,500 L 600,720 
	M 800,500 L 800,600 
	M 800,500 L 1000,500 L 1000,720 
	M 1000,500 L 1150,500 A 50,50 0 0,1 1200,550 L 1200,600"
	style="opacity:0.5;stroke:#0a0;stroke-width:15px;stroke-dasharray:30px 10px;fill:none;">
		<animate attributeName="stroke-dashoffset" from="40" to="0" dur="1s" repeatCount="indefinite" />
	</path>
	<!--
	<path id="geothermal-pipe" d="M 1300,300 L 1300,350 A 50,50 0 0,1 1250,400 L1000,400" 
	style="opacity:0.5;stroke:#0a0;stroke-width:15px;stroke-dasharray:30px 10px;fill:none;">
		<animate attributeName="stroke-dashoffset" from="40" to="0" dur="1s" repeatCount="indefinite" />
	</path>
	-->
	<path id="geothermal-pipe" d="M 1500,300 L 1500,400" 
	style="opacity:0.5;stroke:#f00;stroke-width:15px;stroke-dasharray:30px 10px;fill:none;">
		<animate attributeName="stroke-dashoffset" from="40" to="0" dur="1s" repeatCount="indefinite" />
	</path>
	
	<path d="M 1550,520 L 1550,720" 
	style="opacity:0.5;stroke:#f00;stroke-width:15px;stroke-dasharray:30px 10px;fill:none;">
		<animate attributeName="stroke-dashoffset" from="40" to="0" dur="1s" repeatCount="indefinite" />
	</path>
	<path d="M 1450,520 L 1450,720" 
	style="opacity:0.5;stroke:#0ff;stroke-width:15px;stroke-dasharray:30px 10px;fill:none;">
		<animate attributeName="stroke-dashoffset" from="40" to="0" dur="1s" repeatCount="indefinite" />
	</path>
	
	<!-- Dynamically inserted POWER CONSUMPTION VALUES: -->
	<text id="grid-power" x="380" y="430" font-family="Arial, Helvetica, sans-serif" font-size="32px" fill="#f00">78.9 kW</text>
	<text id="solar-power" x="820" y="360" font-family="Arial, Helvetica, sans-serif" font-size="32px" fill="#0a0">1.0 kW</text>
	<text id="geothermal-power" x="1520" y="365" font-family="Arial, Helvetica, sans-serif" font-size="32px" fill="#0a0">1.5 kW</text>
	
	<svg x="320" y="560" width="160px" height="40px">
		<!--<rect x="1" y="1" width="158" height="38" stroke="#fff" stroke-width="1" opacity="0.2" fill="#009688" />-->
		<text id="lights-power" font-family="Arial, Helvetica, sans-serif" font-size="32px" fill="#00a" x="50%" y="50%" dominant-baseline="middle" text-anchor="middle">12.7 kW</text>
	</svg>
	<svg x="520" y="680" width="160px" height="40px">
		<!--<rect x="1" y="1" width="158" height="38" stroke="#fff" stroke-width="1" opacity="0.2" fill="#009688" />-->
		<text id="kitchen-power" font-family="Arial, Helvetica, sans-serif" font-size="32px" fill="#00a" x="50%" y="50%" dominant-baseline="middle" text-anchor="middle">0.1 kW</text>
	</svg>
	<svg x="720" y="560" width="160px" height="40px">
		<!--<rect x="1" y="1" width="158" height="38" stroke="#fff" stroke-width="1" opacity="0.2" fill="#009688" />-->
		<text id="ventilation-power" font-family="Arial, Helvetica, sans-serif" font-size="32px" fill="#00a" x="50%" y="50%" dominant-baseline="middle" text-anchor="middle">8.3 kW</text>
	</svg>
	<svg x="920" y="680" width="160px" height="40px">
		<!--<rect x="1" y="1" width="158" height="38" stroke="#fff" stroke-width="1" opacity="0.2" fill="#009688" />-->
		<text id="other-power" font-family="Arial, Helvetica, sans-serif" font-size="32px" fill="#00a" x="50%" y="50%" dominant-baseline="middle" text-anchor="middle">0.2 kW</text>
	</svg>
	<svg x="1220" y="400" width="160px" height="40px">
		<!--<rect x="1" y="1" width="158" height="38" stroke="#fff" stroke-width="1" opacity="0.2" fill="#009688" />-->
		<text id="cooler-machines-power" font-family="Arial, Helvetica, sans-serif" font-size="32px" fill="#00a" x="50%" y="50%" dominant-baseline="middle" text-anchor="middle">40.3 kW</text>
	</svg>
	<svg x="1120" y="560" width="160px" height="40px">
		<!--<rect x="1" y="1" width="158" height="38" stroke="#fff" stroke-width="1" opacity="0.2" fill="#009688" />-->
		<text id="cooler-equipments-power" font-family="Arial, Helvetica, sans-serif" font-size="32px" fill="#00a" x="50%" y="50%" dominant-baseline="middle" text-anchor="middle">0.0 kW</text>
	</svg>
	<svg x="1540" y="670" width="160px" height="40px">
		<!--<rect x="1" y="1" width="158" height="38" stroke="#fff" stroke-width="1" opacity="0.2" fill="#009688" />-->
		<text id="heating-devices-power" font-family="Arial, Helvetica, sans-serif" font-size="32px" fill="#00a" x="50%" y="50%" dominant-baseline="middle" text-anchor="middle">9.9 kW</text>
	</svg>
	
	<image x="170" y="380" width="100" height="150" xlink:href="powerline.svg" />
	<image x="730" y="170" width="147" height="133" xlink:href="solarpanel.svg" />
	<image x="350" y="620" width="100" height="100" xlink:href="lightbulb.svg" />
	<image x="535" y="720" width="130" height="130" xlink:href="kitchen.svg" />
	<image x="740" y="610" width="120" height="120" xlink:href="ventilation.svg" />
	<image x="920" y="690" width="160" height="160" xlink:href="vehicle.svg" />
	<!--
	<image x="1250" y="620" width="100" height="100" xlink:href="refrigmachines.svg" />
	<image x="1450" y="740" width="100" height="100" xlink:href="refrigequipments.svg" />
	-->
	<image x="1150" y="620" width="100" height="100" xlink:href="refrigequipments.svg" />
	<image x="1430" y="380" width="140" height="140" xlink:href="compressor.svg" />
	<image x="1430" y="170" width="140" height="140" xlink:href="geothermal.svg" />
	
	<image x="1350" y="740" width="100" height="100" xlink:href="refrigmachines.svg" />
	<image x="1530" y="740" width="140" height="140" xlink:href="heating.svg" />
	
	<rect class="target" id="target-a-a" x="-80" y="-70" width="160" height="140" transform="translate(220,450) scale(1.0)" />
	<rect class="target" id="target-a-b" x="-80" y="-70" width="160" height="140" transform="translate(800,230) scale(1.0)" />
	<rect class="target" id="target-a-c" x="-80" y="-70" width="160" height="140" transform="translate(400,670) scale(1.0)" />
	<rect class="target" id="target-a-d" x="-80" y="-70" width="160" height="140" transform="translate(600,790) scale(1.0)" />
	<rect class="target" id="target-a-e" x="-80" y="-70" width="160" height="140" transform="translate(800,670) scale(1.0)" />
	<rect class="target" id="target-a-f" x="-80" y="-70" width="160" height="140" transform="translate(1000,790) scale(1.0)" />
	<rect class="target" id="target-a-h" x="-80" y="-70" width="160" height="140" transform="translate(1200,670) scale(1.0)" />
	<!--  Compressors: -->
	<rect class="target" id="target-a-g" x="-80" y="-70" width="160" height="140" transform="translate(1500,450) scale(1.0)" />
	<!--  Geothermal energy: -->
	<rect class="target" id="target-a-i" x="-80" y="-70" width="160" height="140" transform="translate(1500,230) scale(1.0)" />
	<!-- Two new blocks: Cooling devices and Heating devices -->
	<rect class="target" id="target-a-m" x="-80" y="-70" width="160" height="140" transform="translate(1400,790) scale(1.0)" />
	<rect class="target" id="target-a-n" x="-80" y="-70" width="160" height="140" transform="translate(1600,790) scale(1.0)" />
	
	
	<svg x="80" y="520" width="280px" height="40px">
		<!--<rect x="1" y="1" width="278" height="38" stroke="#fff" stroke-width="1" opacity="0.2" fill="#009688" />-->
		<text class="section-title" id="da-grid-title" x="50%" y="50%" dominant-baseline="middle" text-anchor="middle">Total Consumption</text>
	</svg>
	<svg x="660" y="300" width="280px" height="40px">
		<!--<rect x="1" y="1" width="278" height="38" stroke="#fff" stroke-width="1" opacity="0.2" fill="#009688" />-->
		<text class="section-title" id="da-solar-title" x="50%" y="50%" dominant-baseline="middle" text-anchor="middle">Solar energy</text>
	</svg>
	<svg x="1360" y="300" width="280px" height="40px">
		<!--<rect x="1" y="1" width="278" height="38" stroke="#fff" stroke-width="1" opacity="0.2" fill="#009688" />-->
		<text class="section-title" id="da-geothermal-title" x="50%" y="50%" dominant-baseline="middle" text-anchor="middle">Geothermal energy</text>
	</svg>
	<svg x="250" y="740" width="280px" height="40px">
		<!--<rect x="1" y="1" width="278" height="38" stroke="#fff" stroke-width="1" opacity="0.2" fill="#009688" />-->
		<text class="section-title" id="da-light-title" x="50%" y="50%" dominant-baseline="middle" text-anchor="middle">Lights and appliances</text>
	</svg>
	<svg x="460" y="860" width="280px" height="40px">
		<!--<rect x="1" y="1" width="278" height="38" stroke="#fff" stroke-width="1" opacity="0.2" fill="#009688" />-->
		<text class="section-title" id="da-kitchen-title" x="50%" y="50%" dominant-baseline="middle" text-anchor="middle">Kitchen appliances</text>
	</svg>
	<svg x="660" y="740" width="280px" height="40px">
		<!--<rect x="1" y="1" width="278" height="38" stroke="#fff" stroke-width="1" opacity="0.2" fill="#009688" />-->
		<text class="section-title" id="da-hpac-title" x="50%" y="50%" dominant-baseline="middle" text-anchor="middle">HPAC</text>
	</svg>
	<svg x="860" y="860" width="280px" height="40px">
		<!--<rect x="1" y="1" width="278" height="38" stroke="#fff" stroke-width="1" opacity="0.2" fill="#009688" />-->
		<text class="section-title" id="da-other-title" x="50%" y="50%" dominant-baseline="middle" text-anchor="middle">Other</text>
	</svg>
	<svg x="1360" y="520" width="280px" height="40px">
		<!--<rect x="1" y="1" width="278" height="38" stroke="#fff" stroke-width="1" opacity="0.2" fill="#009688" />-->
		<text class="section-title" id="da-cooler-machines-title" x="50%" y="50%" dominant-baseline="middle" text-anchor="middle">Compressors</text>
	</svg>
	<svg x="1060" y="740" width="280px" height="40px">
		<!--<rect x="1" y="1" width="278" height="38" stroke="#fff" stroke-width="1" opacity="0.2" fill="#009688" />-->
		<text class="section-title" id="da-cooler-equipment-title" x="50%" y="50%" dominant-baseline="middle" text-anchor="middle">Cooler equipment</text>
	</svg>
	<svg x="1260" y="860" width="280px" height="40px">
		<!--<rect x="1" y="1" width="278" height="38" stroke="#fff" stroke-width="1" opacity="0.2" fill="#009688" />-->
		<text class="section-title" id="da-cooler-title" x="50%" y="50%" dominant-baseline="middle" text-anchor="middle">Cooling</text>
	</svg>
	<svg x="1460" y="860" width="280px" height="40px">
		<!--<rect x="1" y="1" width="278" height="38" stroke="#fff" stroke-width="1" opacity="0.2" fill="#009688" />-->
		<text class="section-title" id="da-heater-title" x="50%" y="50%" dominant-baseline="middle" text-anchor="middle">Heating</text>
	</svg>
</g>
</svg>
