<?xml version="1.0" encoding="UTF-8" standalone="no"?>
<svg width="600" height="900" viewBox="0 0 600 900" xmlns="http://www.w3.org/2000/svg" xmlns:xlink="http://www.w3.org/1999/xlink" preserveAspectRatio="xMinYMin meet">
<style>
.target {
	cursor: pointer;
	fill: #009688;
	stroke-width: 1;
	stroke: #fff;
	fill-opacity: 0.05;
	transition: transform, fill-opacity, stroke-width;
	transition-duration: 0.5s;
}
</style>
<!--
<rect fill="#fff" stroke="#eee" stroke-width="10" x="5" y="5" width="1790" height="890"/>
#e0f2f1 teal lighten-5
#b2dfdb teal lighten-4
#80cbc4 teal lighten-3
#4db6ac teal lighten-2
#26a69a teal lighten-1
#009688 teal
#00897b teal darken-1
#00796b teal darken-2
#00695c teal darken-3
#004d40 teal darken-4
-->
<defs>
	<radialGradient id="grad" cx="50%" cy="50%" r="75%"><!-- fx="50%" fy="50%">-->
		<stop offset="10%" style="stop-color:#e0f2f1; stop-opacity:1" />
		<stop offset="50%" style="stop-color:#80cbc4; stop-opacity:1" />
		<stop offset="90%" style="stop-color:#009688; stop-opacity:1" />
	</radialGradient>
</defs>
<rect x="0" y="0" width="600" height="900" fill="url(#grad)" stroke-width="0" stroke="#000" />

<svg x="10" y="30" width="580px" height="100px">
	<rect x="1" y="1" width="598" height="98" stroke="#fff" stroke-width="1" opacity="0.1" fill="#009688" />
	<text x="50%" y="50%" dominant-baseline="middle" text-anchor="middle" font-family="Arial, Helvetica, sans-serif" font-size="52px" fill="#fff">S-Market Kaukovainio</text>
</svg>
<g>
	<path id="p1" d="M 160,400 L 300,400 
	M 300,260 L 300,500 
	M 480,260 L 480,350 
	A 50,50 0 0,1 430,400 L 300,400 
	M 300,500 L 140,500 
	A 50,50 0 0,0 90,550 L 90,620 
	M 174,500 L 174,760 
	M 258,500 L 258,620 
	M 300,500 L 342,500 L 342,760 
	M 342,500 L 426,500 L 426,620
	M 426,500 L 460,500 A 50,50 0 0,1 510,550 L 510,760"
	style="opacity:0.5;stroke:#0a0;stroke-width:10px;stroke-dasharray:30px 10px;fill:none;">
		<animate attributeName="stroke-dashoffset" from="40" to="0" dur="1s" repeatCount="indefinite" />
	</path>
	<text id="grid-power" x="170" y="385" font-family="Arial, Helvetica, sans-serif" font-size="24px" fill="#f00"></text>
	<text id="solar-power" x="320" y="300" font-family="Arial, Helvetica, sans-serif" font-size="24px" fill="#0a0"></text>
	<text id="geothermal-power" x="490" y="300" font-family="Arial, Helvetica, sans-serif" font-size="24px" fill="#0a0"></text>
	
	<text id="lights-power" x="40" y="600" font-family="Arial, Helvetica, sans-serif" font-size="26px" fill="#00a"></text>
	<text id="kitchen-power" x="124" y="750" font-family="Arial, Helvetica, sans-serif" font-size="26px" fill="#00a"></text>
	<text id="ventilation-power" x="208" y="600" font-family="Arial, Helvetica, sans-serif" font-size="26px" fill="#00a"></text>
	<text id="other-power" x="292" y="750" font-family="Arial, Helvetica, sans-serif" font-size="26px" fill="#00a"></text>
	<text id="cooler-machines-power" x="376" y="600" font-family="Arial, Helvetica, sans-serif" font-size="26px" fill="#00a"></text>
	<text id="cooler-equipments-power" x="460" y="750" font-family="Arial, Helvetica, sans-serif" font-size="26px" fill="#00a"></text>
	
	<image x="50" y="345" width="80" height="120" xlink:href="powerline.svg" />
	<image x="250" y="164" width="110" height="100" xlink:href="solarpanel.svg" />
	<image x="40" y="615" width="100" height="100" xlink:href="lightbulb.svg" />
	<image x="125" y="750" width="100" height="100" xlink:href="kitchen.svg" />
	<image x="205" y="620" width="100" height="100" xlink:href="ventilation.svg" />
	<image x="280" y="740" width="120" height="120" xlink:href="vehicle.svg" />
	<image x="376" y="620" width="100" height="100" xlink:href="refrigmachines.svg" />
	<image x="460" y="760" width="100" height="100" xlink:href="refrigequipments.svg" />
	
	<image x="430" y="164" width="100" height="100" xlink:href="geothermal.svg" />
	
	<rect class="target" id="target-a-a" x="-60" y="-60" width="140" height="100" transform="translate(80,410) scale(1.0)" />
	<rect class="target" id="target-a-b" x="-60" y="-60" width="140" height="100" transform="translate(290,220) scale(1.0)" />
	<rect class="target" id="target-a-c" x="-70" y="-50" width="140" height="100" transform="translate(90,670) scale(1.0)" />
	<rect class="target" id="target-a-d" x="-70" y="-50" width="140" height="100" transform="translate(174,810) scale(1.0)" />
	<rect class="target" id="target-a-e" x="-70" y="-50" width="140" height="100" transform="translate(258,670) scale(1.0)" />
	<rect class="target" id="target-a-f" x="-70" y="-50" width="140" height="100" transform="translate(342,810) scale(1.0)" />
	<rect class="target" id="target-a-g" x="-70" y="-50" width="140" height="100" transform="translate(426,670) scale(1.0)" />
	<rect class="target" id="target-a-h" x="-70" y="-50" width="140" height="100" transform="translate(510,810) scale(1.0)" />
	
	<rect class="target" id="target-a-i" x="-60" y="-60" width="140" height="100" transform="translate(470,220) scale(1.0)" />
</g>
</svg>
