<?xml version="1.0" encoding="UTF-8" standalone="no"?>
<svg width="1000" height="900" viewBox="0 0 1000 900" xmlns="http://www.w3.org/2000/svg" xmlns:xlink="http://www.w3.org/1999/xlink" preserveAspectRatio="xMinYMin meet">
<style>
.target {
	cursor: pointer;
	fill: #009688;
	stroke-width: 1;
	stroke: #fff;
	fill-opacity: 0.05;
	transition: transform, fill-opacity, stroke-width;
	transition-duration: 0.5s;
}
</style>
<!--
<rect fill="#fff" stroke="#eee" stroke-width="10" x="5" y="5" width="1790" height="890"/>
#e0f2f1 teal lighten-5
#b2dfdb teal lighten-4
#80cbc4 teal lighten-3
#4db6ac teal lighten-2
#26a69a teal lighten-1
#009688 teal
#00897b teal darken-1
#00796b teal darken-2
#00695c teal darken-3
#004d40 teal darken-4
-->
<defs>
	<radialGradient id="grad" cx="50%" cy="50%" r="75%"><!-- fx="50%" fy="50%">-->
		<stop offset="10%" style="stop-color:#e0f2f1; stop-opacity:1" />
		<stop offset="50%" style="stop-color:#80cbc4; stop-opacity:1" />
		<stop offset="90%" style="stop-color:#009688; stop-opacity:1" />
	</radialGradient>
</defs>
<rect x="0" y="0" width="1000" height="900" fill="url(#grad)" stroke-width="0" stroke="#000" />

<image x="100" y="160" width="200" height="300" xlink:href="powerline.svg" />
<svg x="50" y="390" width="300px" height="100px">
	<!--<rect x="1" y="1" width="298" height="98" stroke="#fff" stroke-width="1" opacity="0.1" fill="#00f" />-->
	<text id="grid-text" x="50%" y="50%" dominant-baseline="middle" text-anchor="middle" font-family="Arial, Helvetica, sans-serif" font-size="26px" fill="#000">GRID</text>
</svg>

<!--
	M 570,500 L 570,740 
	M 1100,500 L 1300,500 L 1300,620 
	M 1300,500 L 1450,500 A 50,50 0 0,1 1500,550 L 1500,740" 
-->

<g>
	<path id="p1" d="M 300,400 L 500,400 
	M 500,310 L 500,500 
	M 500,500 L 200,500 
	A 50,50 0 0,0 150,550 L 150,610 
	M 290,500 L 290,730 
	M 430,500 L 430,610 
	M 570,500 L 570,730 
	M 710,500 L 710,610 
	M 500,500 L 800,500 
	A 50,50 0 0,1 850,550 L 850,730" 
	style="opacity:0.5;stroke:#0a0;stroke-width:12px;stroke-dasharray:30px 10px;fill:none;">
		<animate attributeName="stroke-dashoffset" from="40" to="0" dur="1s" repeatCount="indefinite" />
	</path>
	<text id="grid-power" x="300" y="380" font-family="Arial, Helvetica, sans-serif" font-size="32px" fill="#f00"></text>
	<!--
	<rect x="800" y="100" width="400" height="200" fill="#fff" stroke-width="4" stroke="#000" />
	-->
	<image x="425" y="20" width="147" height="133" xlink:href="solarpanel.svg" />
	<image x="525" y="20" width="147" height="133" xlink:href="solarpanel.svg" />
	<image x="350" y="140" width="147" height="133" xlink:href="solarpanel.svg" />
	<image x="450" y="140" width="147" height="133" xlink:href="solarpanel.svg" />
	<image x="550" y="140" width="147" height="133" xlink:href="solarpanel.svg" />
	
	<!--
	<image x="900" y="210" width="100" height="150" xlink:href="windturbine.svg" />
	<image x="800" y="170" width="150" height="225" xlink:href="windturbine.svg" />
	<image x="700" y="130" width="200" height="300" xlink:href="windturbine.svg" />
	-->
	
	<svg x="360" y="240" width="300px" height="100px">
		<!--<rect x="1" y="1" width="298" height="98" stroke="#fff" stroke-width="1" opacity="0.1" fill="#00f" />-->
		<text id="solar-panels" x="50%" y="50%" dominant-baseline="middle" text-anchor="middle" font-family="Arial, Helvetica, sans-serif" font-size="26px" fill="#000">SOLAR PANELS</text>
	</svg>
	<!--
	<svg x="50" y="620" width="200px" height="100px">
		<rect x="1" y="1" width="298" height="98" stroke="#fff" stroke-width="1" opacity="0.4" fill="#00f" />
		<text x="50%" y="50%" dominant-baseline="middle" text-anchor="middle" font-family="Arial, Helvetica, sans-serif" font-size="48px" fill="#00897b">click me</text>
	</svg>
	-->
	<image x="100" y="620" width="100" height="100" xlink:href="lightbulb.svg" />
	
	<image x="660" y="620" width="100" height="100" xlink:href="refrigmachines.svg" />
	<image x="800" y="740" width="100" height="100" xlink:href="refrigequipments.svg" />
	
	<rect class="target" id="target-a-a" x="-60" y="-60" width="120" height="120" transform="translate(150,670) scale(1.0)" />
	<rect class="target" id="target-a-b" x="-60" y="-60" width="120" height="120" transform="translate(290,790) scale(1.0)" />
	<rect class="target" id="target-a-c" x="-60" y="-60" width="120" height="120" transform="translate(430,670) scale(1.0)" />
	<rect class="target" id="target-a-d" x="-60" y="-60" width="120" height="120" transform="translate(570,790) scale(1.0)" />
	<rect class="target" id="target-a-e" x="-60" y="-60" width="120" height="120" transform="translate(710,670) scale(1.0)" />
	<rect class="target" id="target-a-f" x="-60" y="-60" width="120" height="120" transform="translate(850,790) scale(1.0)" />
</g>
<!--
https://www.youtube.com/watch?v=k6TWzfLGAKo
16b65f => 00ff00 => 0a0
-->
<g>
	<!-- center (50px) -->
	<!--
	<path d="
	M 1000,500 L 550,500 
	A 50,50 0 0,0 500,550 L 500,620 
	M 1000,500 L 1300,500 L 1300,620 M 1300,500 L 1450,500 
	A 50,50 0 0,1 1500,550 L 1500,740 
	M 700,525 L 700,740 
	M 900,525 L 900,620 
	M 1100,525 L 1100,740 
	M 300,400 L 975,400 
	M 1000,310 L 1000,475"
	style="opacity:0.25;stroke:#0a0;stroke-width:50;stroke-dasharray:none;fill:none;" 
	/>
	-->
	
	<!-- 
	upper border (4px) 
	<path d="M 1025,475 L 1450,475 
	A 75,75 0 0,1 1525,550 
	L 1525,740" 
	style="stroke:#0a0;stroke-width:4;fill:none;" 
	/>
	-->
	<!-- lower border (4px) 
	<path d="M 1125,525 L 1275,525 L 1275,620 M 1325,620 L 1325,525 L 1450,525 
	A 25,25 0 0,1 1475,550 
	L 1475,740" 
	style="stroke:#0a0;stroke-width:4;fill:none;" 
	/>
	-->
</g>
</svg>
