<?xml version="1.0" encoding="UTF-8" standalone="no"?>
<svg width="800" height="580" viewBox="-400 -290 800 580" xmlns="http://www.w3.org/2000/svg" preserveAspectRatio="xMinYMin meet">
<style>
.blade {
	stroke-width: 5;
	stroke: #880e4f;
}
.grid {
	fill: #fff;
	stroke-width: 1;
	stroke: #777;
}
.help {
	stroke: #f00;
	stroke-width: 1;
	fill: red;
}
</style>
<defs>
	<radialGradient id="grad" cx="50%" cy="50%" r="100%" fx="50%" fy="30%">
		<stop offset="10%" style="stop-color:#f06292; stop-opacity:1" />
		<stop offset="50%" style="stop-color:#e91e63; stop-opacity:1" />
		<stop offset="80%" style="stop-color:#c2185b; stop-opacity:1" />
	</radialGradient>
</defs>
<!--
<rect x="-399" y="-289" width="799" height="579" fill="none" stroke-width="2" stroke="#aaa" />
-->
<g>
	<path class="blade" d="M 0,290 L -175,0 C -300,-230 -20,-250 0,-150 C 20,-250 300,-230 175,0 L 0,290" fill="url(#grad)" 
	transform="rotate(-32) translate(-110,-110)" 
	/>
	<path class="blade" d="M 0,290 L -175,0 C -300,-230 -20,-250 0,-150 C 20,-250 300,-230 175,0 L 0,290" fill="url(#grad)" 
	transform="rotate(32) translate(110,-110)" 
	/>
	
	<!--
	<circle cx="-175" cy="0" r="7" fill="red"/>
	<circle cx="-300" cy="-230" r="7" fill="red"/>
	<path class="help" d="M -175,0 L -300,-230" />
	
	<circle cx="-20" cy="-250" r="7" fill="red"/>
	<circle cx="0" cy="-150" r="7" fill="red"/>
	<path class="help" d="M -20,-250 L 0,-150" />
	
	<circle cx="0" cy="-150" r="7" fill="red"/>
	<circle cx="20" cy="-250" r="7" fill="red"/>
	<path class="help" d="M 0,-150 L 20,-250" />
	
	<circle cx="300" cy="-230" r="7" fill="red"/>
	<circle cx="175" cy="0" r="7" fill="red"/>
	<path class="help" d="M 300,-230 L 175,0" />
	-->
	
</g>
<!--<circle cx="0" cy="0" r="295" stroke-width="10" stroke="#777" fill="none" />
<path class="grid" d="M 0,300 L 0,-300 M -300,0 L 300,0" />-->
</svg>
