<?xml version="1.0" encoding="UTF-8" standalone="no"?>
<svg width="400" height="400" viewBox="-200 -200 400 400" xmlns="http://www.w3.org/2000/svg" preserveAspectRatio="xMinYMin meet">
<style>
.box-outer {
	opacity: 0.5;
	fill: #fff;
	stroke-width: 10;
	stroke: #fff;
	stroke-linecap: round;
}
.box-handle {
	fill: none;
	stroke-width: 20;
	stroke: #555;
	stroke-linecap: round;
}
.box-window {
	fill: #80cbc4;
	stroke-width: 6;
	stroke: #555;
	stroke-linecap: round;
}
.box-bread {
	fill: #777;
	stroke-width: 12;
	stroke: #fff;
	stroke-linecap: round;
}
.heat {
	fill: none;
	stroke: #fff;
	stroke-width: 8;
}

</style>
<!--<rect x="-198" y="-248" width="398" height="398" fill="none" stroke-width="1" stroke="#000" />-->
<g>
	<rect x="-185" y="-95" width="370" height="280" fill="none" stroke-width="10" stroke="#000" />
	<path class="box-outer" d="M-180,-90 L-180,180 L180,180 L180,-90 L-180,-90" />
	<circle cx="-120" cy="-50" r="14" stroke-width="8" stroke="#333" fill="#fff" />
	<circle cx="-40" cy="-50" r="14" stroke-width="8" stroke="#333" fill="#fff" />
	<circle cx="40" cy="-50" r="14" stroke-width="8" stroke="#333" fill="#fff" />
	<circle cx="120" cy="-50" r="14" stroke-width="8" stroke="#333" fill="#fff" />
	<path class="box-handle" d="M-150,-10 L150,-10" />
	<path class="box-window" d="M-150,20 L150,20 L150,140 L-150,140 L-150,20" />
	
	<path class="box-bread" d="M-80,120 A 40 40 0 0 1 80,120 L-80,120" />
	
	<path class="heat" d="M 0 80 Q 52.5 40, 95 80 T 180 80"
	transform="rotate(-90) translate(-30,-30) " />
	
	<path class="heat" d="M 0 80 Q 52.5 40, 95 80 T 180 80"
	transform="rotate(-90) translate(-30,-70) " />
	
	<path class="heat" d="M 0 80 Q 52.5 40, 95 80 T 180 80"
	transform="rotate(-90) translate(-30,-110) " />
</g>
</svg>
