<?xml version="1.0" encoding="UTF-8" standalone="no"?>
<svg width="1800" height="900" viewBox="-900 -500 1800 900" xmlns="http://www.w3.org/2000/svg" xmlns:xlink="http://www.w3.org/1999/xlink" preserveAspectRatio="xMinYMin meet">
<style>
.line {
	fill: none;
	stroke-width: 1;
	stroke: #ccc;
}
.circle-district {
	cursor: pointer;
}
.grid-head {
	opacity: 0.5;
	stroke-width: 2.5;
	stroke: #444;
}
</style>
<defs>
	<radialGradient id="grad" cx="50%" cy="50%" r="100%">
		<stop offset="10%" style="stop-color:#fff; stop-opacity:1" />
		<stop offset="50%" style="stop-color:#eee; stop-opacity:1" />
		<stop offset="90%" style="stop-color:#ddd; stop-opacity:1" />
	</radialGradient>
</defs>
<rect x="-900" y="-500" width="1800" height="900" fill="url(#grad)" stroke-width="0" stroke="#000" />

<text x="-370" y="-370" opacity="0.5" font-family="Arial, Helvetica, sans-serif" font-size="128px" fill="#444">Making City</text>
<path class="grid-head" d="M-900 -461 H-361" />
<path class="grid-head" d="M36 -368 H900" />
<text x="65" y="-320" opacity="0.4" font-family="Arial, Helvetica, sans-serif" font-size="36px" fill="#444">Positive Energy Districts</text>

<path class="line" d="M125,-125 L247,-247" />
<path class="line" d="M125,125 L247,247" />
<path class="line" d="M-125,-125 L-247,-247" />
<path class="line" d="M-125,125 L-247,247" />

<circle cx="0" cy="0" r="350" stroke-width="1" stroke="#ccc" fill="none" />
<!--
<circle cx="0" cy="0" r="190" stroke-width="10" stroke="#fff" fill="none">
	<animate attributeName="r" begin="0s" dur="3s" repeatCount="indefinite" values="190;200;190" />
</circle>
<circle cx="0" cy="0" r="180" stroke-width="10" stroke="#eee" fill="none">
	<animate attributeName="r" begin="0s" dur="3s" repeatCount="indefinite" values="180;190;180" />
</circle>
<circle cx="0" cy="0" r="170" stroke-width="10" stroke="#eee" fill="none">
	<animate attributeName="r" begin="0s" dur="3s" repeatCount="indefinite" values="170;180;170" />
</circle>
-->
<!-- 
Animated line drawing in SVG:
http://bkaprt.com/psvg/07-17/
http://bkaprt.com/psvg/07-18/
NOTE: Values stroke-dasharray set to 0px 0px and animate from to 0.
These are filled with correct values in MenuView.js: addSVGEventHandlers -method.
-->
<path id="first-building-path" d="M0,0 L0,43 L16.5,49 L33,43 L33,0 L0,0 Z 
		M39,0 L39,16 L52,16 L53,24 L39,24 L39,32 L55,32 L56,40 L39,40 L39,48 L58,48 L59,56 L39,56 L39,73 L80,95 L80,0 L39,0 Z"
	style="stroke:#51b0ce;stroke-width:2px;stroke-dasharray:0px 0px;fill:none;transform: scaleY(-2) scaleX(2) translate(-74px,-35px);">
	<animate id="first-building-path-animate" attributeName="stroke-dashoffset" from="0" to="0" dur="2s" repeatCount="1" />
</path>
<path id="first-painting-path" d="M5,0 L5,39 L16.5 44 L28,39 L28,5 L5,5 Z 
		M15,10 L15,38 L20,38 L20,10 
		M44,0 L44,11 L57,11 L65,60 L44,60 L44,71 L75,88 L75,5 L44,5 
		M39,44 L80,44 
		M39,28 L80,28 
		M65,0 L65,73 L48,65" 
	style="stroke:#fff;stroke-width:0px;fill:none;transform: scaleY(-2) scaleX(2) translate(-74px,-35px);" />
<!--stroke-dasharray:0px 0px;
<animate id="first-painting-path-animate" attributeName="stroke-dashoffset" from="0" to="0" dur="2s" repeatCount="1" />
-->
<rect x="19" y="7" width="8" height="8" style="stroke:#51b0ce;stroke-width:2px;fill:#fff;transform: scaleY(-2) scaleX(2) translate(-74px,-35px);">
 	<animate attributeName="opacity" from="0" to="1" dur="2s" />
</rect>
<rect x="5" y="18" width="8" height="8" style="stroke:#51b0ce;stroke-width:2px;fill:#fff;transform: scaleY(-2) scaleX(2) translate(-74px,-35px);">
 	<animate attributeName="opacity" from="0" to="1" dur="2s" />
</rect>
<rect x="19" y="31" width="8" height="8" style="stroke:#51b0ce;stroke-width:2px;fill:#fff;transform: scaleY(-2) scaleX(2) translate(-74px,-35px);">
 	<animate attributeName="opacity" from="0" to="1" dur="2s" />
</rect>
<!--
first  = #51b0ce
second = #73d3ae
third  = #1fac78
-->
<path id="second-building-path" d="M87,0 L87,95 L95,95 L95,0 L87,0 Z M101,0 L101,82 L109,82 L109,0 L101,0 Z"
	style="stroke:#73d3ae;stroke-width:2px;stroke-dasharray:0px 0px;fill:none;transform: scaleY(-2) scaleX(2) translate(-74px,-35px);">
	<animate id="second-building-path-animate" attributeName="stroke-dashoffset" from="0" to="0" dur="2s" repeatCount="1" />
</path>
<path id="second-painting-path" d="M91,0 L91,95 M105,0 L105,82 Z" 
	style="stroke:#fff;stroke-width:0px;fill:none;transform: scaleY(-2) scaleX(2) translate(-74px,-35px);" />

<path id="third-building-path" d="M115,0 L115,65 L123,65 L123,55 L148,44 L148,0 L115,0 Z"
	style="stroke:#1fac78;stroke-width:2px;stroke-dasharray:0px 0px;fill:none;transform: scaleY(-2) scaleX(2) translate(-74px,-35px);">
	<animate id="third-building-path-animate" attributeName="stroke-dashoffset" from="0" to="0" dur="2s" repeatCount="1" />
</path>
<path id="third-painting-path" d="M120,0 L120,65 L120,52 L144,41 L144,4 L125,4 L125,45 L140,39 L140,4 L133,4 L133,39" 
	style="stroke:#fff;stroke-width:0px;fill:none;transform: scaleY(-2) scaleX(2) translate(-74px,-35px);" />


<rect x="120" y="9" width="8" height="11" style="stroke:#1fac78;stroke-width:2px;fill:#fff;transform: scaleY(-2) scaleX(2) translate(-74px,-35px);">
 	<animate attributeName="opacity" from="0" to="1" dur="2s" />
</rect>
<rect x="120" y="26" width="8" height="11" style="stroke:#1fac78;stroke-width:2px;fill:#fff;transform: scaleY(-2) scaleX(2) translate(-74px,-35px);">
 	<animate attributeName="opacity" from="0" to="1" dur="2s" />
</rect>
<rect x="134" y="9" width="8" height="11" style="stroke:#1fac78;stroke-width:2px;fill:#fff;transform: scaleY(-2) scaleX(2) translate(-74px,-35px);">
 	<animate attributeName="opacity" from="0" to="1" dur="2s" />
</rect>
<rect x="134" y="26" width="8" height="11" style="stroke:#1fac78;stroke-width:2px;fill:#fff;transform: scaleY(-2) scaleX(2) translate(-74px,-35px);">
 	<animate attributeName="opacity" from="0" to="1" dur="2s" />
</rect>

<circle id="outer-district" cx="0" cy="0" r="170" stroke-width="10" stroke="#eee" fill="none" transform="scale(1.0)">
	<animate attributeName="r" begin="0s" dur="3s" repeatCount="indefinite" values="170;180;170" />
</circle>
<circle class="circle-district" id="district" cx="0" cy="0" r="165" stroke-width="5" stroke="#777" fill="#fff" opacity="0.25" transform="scale(1.0)">
	<animate attributeName="r" begin="0s" dur="3s" repeatCount="indefinite" values="165;175;165" />
</circle>

<circle cx="247" cy="-247" r="70" stroke-width="5" stroke="#ccc" fill="#fff" opacity="0.75" />
<circle cx="247" cy="247" r="70" stroke-width="5" stroke="#ccc" fill="#fff" opacity="0.75" />
<circle cx="-247" cy="-247" r="70" stroke-width="5" stroke="#ccc" fill="#fff" opacity="0.75" />
<circle cx="-247" cy="247" r="70" stroke-width="5" stroke="#ccc" fill="#fff" opacity="0.75" />
<!--
<circle cx="0" cy="0" r="180" stroke-width="10" stroke="#888" fill="none">
	<animateTransform attributeName="transform"
		type="scale"
		from="0 0"
		to="1 1"
		begin="0s"
		dur="0.5s"
		repeatCount="1"
	/>
</circle>
-->
</svg>
