<?xml version="1.0" encoding="UTF-8" standalone="no"?>
<svg width="1800" height="900" viewBox="0 0 1800 900" xmlns="http://www.w3.org/2000/svg" xmlns:xlink="http://www.w3.org/1999/xlink" preserveAspectRatio="xMinYMin meet">
<style>
.hex {
	cursor: pointer;
	fill-opacity: 0.05;
	stroke: #fff;
	stroke-width: 1;
	fill: #012265;
	transition: transform, fill-opacity, stroke-width;
	transition-duration: 0.5s;
}
.district-title {
	opacity: 0.75;
	font-family: "Arial, Helvetica, sans-serif";
	font-size: 52px;
	fill: #fff;
	/*stroke: #555;*/
	stroke-width: 1;
}
.grid {
	stroke-width: 0.1;
	stroke: #fff;
}
.grid-head {
	opacity: 0.5;
	stroke-width: 2.5;
	stroke: #fff;
}
</style>
	<defs>
		<radialGradient id="grad" cx="50%" cy="58%" r="75%">
			<stop offset="5%" style="stop-color:#b4dcf4; stop-opacity:1" />
			<stop offset="40%" style="stop-color:#4dace6; stop-opacity:1" />
			<stop offset="90%" style="stop-color:#012265; stop-opacity:1" />
		</radialGradient>
	</defs>
	<rect x="0" y="0" width="1800" height="900" fill="url(#grad)" stroke-width="0" stroke="#000" />
	
	<text x="530" y="130" opacity="0.5" font-family="Arial, Helvetica, sans-serif" font-size="128px" fill="#fff">Making City</text>
	<path class="grid-head" d="M0 39 H538" />
	<path class="grid-head" d="M938 130 H1800" />
	<text x="970" y="180" opacity="0.4" font-family="Arial, Helvetica, sans-serif" font-size="36px" fill="#fff">Positive Energy Districts</text>
	
	<image x="720" y="220" width="300" height="75" xlink:href="smarket.svg" />
	<image x="735" y="230" width="121.43" height="27.14" xlink:href="S-marketin_logo.svg" />
	<image x="850" y="180" width="55" height="50" xlink:href="solarpanel.svg" />
	<image x="890" y="180" width="55" height="50" xlink:href="solarpanel.svg" />
	
	<image x="1120" y="180" width="100" height="150" xlink:href="powerline.svg" />
	<image x="1250" y="160" width="100" height="150" xlink:href="windturbine.svg" />
	
	<image x="1040" y="410" width="50" height="65" xlink:href="house.svg" />
	<image x="1090" y="410" width="50" height="65" xlink:href="house.svg" />
	<image x="1140" y="410" width="50" height="65" xlink:href="house.svg" />
	
	<!-- Houses in District C -->
	<image x="980" y="690" width="50" height="65" xlink:href="house.svg" />
	<image x="1030" y="690" width="50" height="65" xlink:href="house.svg" />
	<image x="1080" y="690" width="50" height="65" xlink:href="house.svg" />
	
	<!-- Houses in District D -->
	<image x="610" y="690" width="50" height="65" xlink:href="house.svg" />
	<image x="660" y="690" width="50" height="65" xlink:href="house.svg" />
	<image x="710" y="690" width="50" height="65" xlink:href="house.svg" />
	
	<!-- Houses in District E -->
	<image x="550" y="410" width="50" height="65" xlink:href="house.svg" />
	<image x="600" y="410" width="50" height="65" xlink:href="house.svg" />
	<image x="650" y="410" width="50" height="65" xlink:href="house.svg" />
	
	<g>
		<path d="M 870,360 A 148,110 0 0,1 870,780 A 148,110 0 0,1 870,360" style="opacity:0.75;stroke:#fff;stroke-width:1;stroke-dasharray:none;fill:none;" />
		<path d="M 870,400 A 110,80 0 0,1 870,740 A 110,80 0 0,1 870,400" style="opacity:0.75;stroke:#fff;stroke-width:1;stroke-dasharray:none;fill:none;" />
		
		<path d="M 870,372 A 135,100 0 0,1 870,770 A 135,100 0 0,1 870,372"
			style="opacity:0.4;stroke:#cf0;stroke-width:10px;stroke-dasharray:30px 10px;fill:none;">
			<animate attributeName="stroke-dashoffset" from="40" to="0" dur="1s" repeatCount="indefinite" />
		</path>
		
		<path d="M 870,750 A 123,90 0 0,0 870,390 A 123,90 0 0,0 870,750"
			style="opacity:0.4;stroke:#f80;stroke-width:10px;stroke-dasharray:30px 10px;fill:none;">
			<animate attributeName="stroke-dashoffset" from="40" to="0" dur="1s" repeatCount="indefinite" />
		</path>
	</g>
	
	<!-- Hexagon Labels: District A - Distict E -->
	<!-- Center TEXT within given sub-svg element -->
	<svg x="670" y="300" width="400px" height="130px">
		<text class="district-title" id="district-a" x="50%" y="50%" dominant-baseline="middle" text-anchor="middle">District A</text>
	</svg>
	<svg x="910" y="460" width="400px" height="130px">
		<text class="district-title" id="district-b" x="50%" y="50%" dominant-baseline="middle" text-anchor="middle">District B</text>
	</svg>
	<svg x="850" y="745" width="400px" height="130px">
		<text class="district-title" id="district-c" x="50%" y="50%" dominant-baseline="middle" text-anchor="middle">District C</text>
	</svg>
	<svg x="490" y="745" width="400px" height="130px">
		<text class="district-title" id="district-d" x="50%" y="50%" dominant-baseline="middle" text-anchor="middle">District D</text>
	</svg>
	<svg x="430" y="460" width="400px" height="130px">
		<text class="district-title" id="district-e" x="50%" y="50%" dominant-baseline="middle" text-anchor="middle">District E</text>
	</svg>
	
	<!-- Hexagons -->
	<polygon class="hex" id="hex-a" points="150,0 75,130 -75,130 -150,0 -75,-130 75,-130" transform="translate(870,300) scale(1.0)" />
	<polygon class="hex" id="hex-b" points="150,0 75,130 -75,130 -150,0 -75,-130 75,-130" transform="translate(1110,460) scale(1.0)" />
	<polygon class="hex" id="hex-c" points="150,0 75,130 -75,130 -150,0 -75,-130 75,-130" transform="translate(1050,745) scale(1.0)" />
	<polygon class="hex" id="hex-d" points="150,0 75,130 -75,130 -150,0 -75,-130 75,-130" transform="translate(690,745) scale(1.0)" />
	<polygon class="hex" id="hex-e" points="150,0 75,130 -75,130 -150,0 -75,-130 75,-130" transform="translate(630,460) scale(1.0)" />
	<!--
	<image x="1460" y="770" width="164.87" height="110" xlink:href="640px-Flag_of_Europe.svg.png" />
	<image x="1650" y="770" width="110" height="110" xlink:href="MC.png" />
	-->
</svg>
