<?xml version="1.0" encoding="UTF-8" standalone="no"?>
<svg width="1800" height="900" viewBox="0 0 1800 900" xmlns="http://www.w3.org/2000/svg" xmlns:xlink="http://www.w3.org/1999/xlink" preserveAspectRatio="xMinYMin meet">
<style>
.hex {
	cursor: pointer;
	fill-opacity: 0.05;
	stroke: #fff;
	stroke-width: 1;
	fill: #012265;
	transition: transform, fill-opacity, stroke-width;
	transition-duration: 0.5s;
}
.district-title {
	opacity: 0.75;
	font-family: "Arial, Helvetica, sans-serif";
	font-size: 52px;
	fill: #fff;
	/*stroke: #555;*/
	stroke-width: 1;
}
.grid {
	stroke-width: 0.1;
	stroke: #fff;
}
.grid-head {
	opacity: 0.5;
	stroke-width: 2.5;
	stroke: #fff;
}
</style>
	<defs>
		<radialGradient id="grad" cx="50%" cy="58%" r="75%"><!-- fx="50%" fy="50%">-->
			<stop offset="5%" style="stop-color:#b4dcf4; stop-opacity:1" />
			<stop offset="40%" style="stop-color:#4dace6; stop-opacity:1" />
			<stop offset="90%" style="stop-color:#012265; stop-opacity:1" />
		</radialGradient>
	</defs>
	<rect x="0" y="0" width="1800" height="900" fill="url(#grad)" stroke-width="0" stroke="#000" />
	
	<text x="530" y="130" opacity="0.5" font-family="Arial, Helvetica, sans-serif" font-size="128px" fill="#fff">Making City</text>
	<path class="grid-head" d="M0 39 H538" />
	<path class="grid-head" d="M938 130 H1800" />
	<text x="970" y="180" opacity="0.4" font-family="Arial, Helvetica, sans-serif" font-size="36px" fill="#fff">Positive Energy Districts</text>
	<!--
	<image x="770" y="220" width="200" height="100" xlink:href="schoolbuilding.svg" />
	<image x="890" y="190" width="55" height="50" xlink:href="solarpanel.svg" />
	<image x="930" y="190" width="55" height="50" xlink:href="solarpanel.svg" />
	-->
	<image x="770" y="220" width="200" height="50" xlink:href="smarket.svg" />
	<image x="780" y="225" width="85" height="19" xlink:href="S-marketin_logo.svg" />
	<image x="850" y="180" width="55" height="50" xlink:href="solarpanel.svg" />
	<image x="890" y="180" width="55" height="50" xlink:href="solarpanel.svg" />
	
	
	<image x="1100" y="180" width="100" height="150" xlink:href="powerline.svg" />
	<image x="1200" y="160" width="100" height="150" xlink:href="windturbine.svg" />
	
	<!-- Shopping Center in District B -->
	<image x="1020" y="380" width="185" height="100" xlink:href="shoppingcenter.svg" />
	<image x="1090" y="340" width="55" height="50" xlink:href="solarpanel.svg" />
	<image x="1120" y="340" width="55" height="50" xlink:href="solarpanel.svg" />
	
	<!-- Houses in District C -->
	<image x="980" y="690" width="50" height="65" xlink:href="house.svg" />
	<image x="1030" y="690" width="50" height="65" xlink:href="house.svg" />
	<image x="1080" y="690" width="50" height="65" xlink:href="house.svg" />
	
	<!-- Houses in District D -->
	<image x="610" y="690" width="50" height="65" xlink:href="house.svg" />
	<image x="660" y="690" width="50" height="65" xlink:href="house.svg" />
	<image x="710" y="690" width="50" height="65" xlink:href="house.svg" />
	
	<!-- Houses in District E -->
	<image x="550" y="420" width="50" height="65" xlink:href="house.svg" />
	<image x="600" y="420" width="50" height="65" xlink:href="house.svg" />
	<image x="650" y="420" width="50" height="65" xlink:href="house.svg" />
	
	<!--
	<g id="grid">
	<path class="grid" d="M0 100 H1800" />
	<path class="grid" d="M0 200 H1800" />
	<path class="grid" d="M0 300 H1800" />
	<path class="grid" d="M0 400 H1800" />
	<path class="grid" d="M0 500 H1800" />
	<path class="grid" d="M0 600 H1800" />
	<path class="grid" d="M0 700 H1800" />
	<path class="grid" d="M0 800 H1800" />
	<path class="grid" d="M0 900 H1800" />
	<path class="grid" d="M100 0 V1000" />
	<path class="grid" d="M200 0 V1000" />
	<path class="grid" d="M300 0 V1000" />
	<path class="grid" d="M400 0 V1000" />
	<path class="grid" d="M500 0 V1000" />
	<path class="grid" d="M600 0 V1000" />
	<path class="grid" d="M700 0 V1000" />
	<path class="grid" d="M800 0 V1000" />
	<path class="grid" d="M900 0 V1000" />
	<path class="grid" d="M1000 0 V1000" />
	<path class="grid" d="M1100 0 V1000" />
	<path class="grid" d="M1200 0 V1000" />
	<path class="grid" d="M1300 0 V1000" />
	<path class="grid" d="M1400 0 V1000" />
	<path class="grid" d="M1500 0 V1000" />
	<path class="grid" d="M1600 0 V1000" />
	<path class="grid" d="M1700 0 V1000" />
	</g> -->
	<!-- A rx ry x-axis-rotation large-arc-flag sweep-flag x y -->
	<g>
	<path d="M 870,360 A 148,110 0 0,1 870,780 A 148,110 0 0,1 870,360" style="opacity:0.75;stroke:#fff;stroke-width:1;stroke-dasharray:none;fill:none;" />
	<path d="M 870,400 A 110,80 0 0,1 870,740 A 110,80 0 0,1 870,400" style="opacity:0.75;stroke:#fff;stroke-width:1;stroke-dasharray:none;fill:none;" />
	
	<path d="M 870,372 A 135,100 0 0,1 870,770 A 135,100 0 0,1 870,372"
		style="opacity:0.4;stroke:#cf0;stroke-width:10px;stroke-dasharray:30px 10px;fill:none;">
		<animate attributeName="stroke-dashoffset" from="40" to="0" dur="1s" repeatCount="indefinite" />
	</path>
	
	<path d="M 870,750 A 123,90 0 0,0 870,390 A 123,90 0 0,0 870,750"
		style="opacity:0.4;stroke:#f80;stroke-width:10px;stroke-dasharray:30px 10px;fill:none;">
		<animate attributeName="stroke-dashoffset" from="40" to="0" dur="1s" repeatCount="indefinite" />
	</path>
	</g>
	
	<!-- Hexagon Labels: District A - Distict E -->
	<!-- Center TEXT within given sub-svg element -->
	<svg x="670" y="300" width="400px" height="130px">
		<!--<rect x="1" y="1" width="398" height="128" stroke="#fff" stroke-width="1" opacity="0.1" fill="#00f" />-->
		<text class="district-title" id="district-a" x="50%" y="50%" dominant-baseline="middle" text-anchor="middle">District A</text>
	</svg>
	<svg x="910" y="460" width="400px" height="130px">
		<!--<rect x="1" y="1" width="398" height="128" stroke="#fff" stroke-width="1" opacity="0.1" fill="#00f" />-->
		<text class="district-title" id="district-b" x="50%" y="50%" dominant-baseline="middle" text-anchor="middle">District B</text>
	</svg>
	<svg x="850" y="745" width="400px" height="130px">
		<!--<rect x="1" y="1" width="398" height="128" stroke="#fff" stroke-width="1" opacity="0.1" fill="#00f" />-->
		<text class="district-title" id="district-c" x="50%" y="50%" dominant-baseline="middle" text-anchor="middle">District C</text>
	</svg>
	<svg x="490" y="745" width="400px" height="130px">
		<!--<rect x="1" y="1" width="398" height="128" stroke="#fff" stroke-width="1" opacity="0.1" fill="#00f" />-->
		<text class="district-title" id="district-d" x="50%" y="50%" dominant-baseline="middle" text-anchor="middle">District D</text>
	</svg>
	<svg x="430" y="460" width="400px" height="130px">
		<!--<rect x="1" y="1" width="398" height="128" stroke="#fff" stroke-width="1" opacity="0.1" fill="#00f" />-->
		<text class="district-title" id="district-e" x="50%" y="50%" dominant-baseline="middle" text-anchor="middle">District E</text>
	</svg>
	<!--<text id="district-a" x="744" y="360" opacity="0.75" font-family="Arial, Helvetica, sans-serif" font-size="64px" fill="#fff" stroke="#555" stroke-width="1">District A</text>
	<text id="district-b" x="1046" y="550" opacity="0.75" font-family="Arial, Helvetica, sans-serif" font-size="64px" fill="#fff" stroke="#555" stroke-width="1">District B</text>
	<text id="district-c" x="940" y="860" opacity="0.75" font-family="Arial, Helvetica, sans-serif" font-size="64px" fill="#fff" stroke="#555" stroke-width="1">District C</text>
	<text id="district-d" x="548" y="860" opacity="0.75" font-family="Arial, Helvetica, sans-serif" font-size="64px" fill="#fff" stroke="#555" stroke-width="1">District D</text>
	<text id="district-e" x="440" y="550" opacity="0.75" font-family="Arial, Helvetica, sans-serif" font-size="64px" fill="#fff" stroke="#555" stroke-width="1">District E</text>-->
	
	<!-- Hexagons -->
	<polygon class="hex" id="hex-a" points="150,0 75,130 -75,130 -150,0 -75,-130 75,-130" transform="translate(870,300) scale(1.0)" />
	<polygon class="hex" id="hex-b" points="150,0 75,130 -75,130 -150,0 -75,-130 75,-130" transform="translate(1110,460) scale(1.0)" />
	<polygon class="hex" id="hex-c" points="150,0 75,130 -75,130 -150,0 -75,-130 75,-130" transform="translate(1050,745) scale(1.0)" />
	<polygon class="hex" id="hex-d" points="150,0 75,130 -75,130 -150,0 -75,-130 75,-130" transform="translate(690,745) scale(1.0)" />
	<polygon class="hex" id="hex-e" points="150,0 75,130 -75,130 -150,0 -75,-130 75,-130" transform="translate(630,460) scale(1.0)" />
	<!--
	<text id="update-counter" x="1600" y="990" font-family="Arial, Helvetica, sans-serif" font-size="22px" fill="#fff"></text>
	-->
</svg>
