<?xml version="1.0" encoding="UTF-8" standalone="no"?>
<svg width="400" height="200" viewBox="0 0 400 200" xmlns="http://www.w3.org/2000/svg" xmlns:xlink="http://www.w3.org/1999/xlink" preserveAspectRatio="xMinYMin meet">
<defs>
	<g id="window" fill="#fff" stroke="#333" stroke-width="3">
		<path d="M0,0 L30,0 L30,30 L0,30 L0,0" /> 
		<path d="M15,30 L15,0 M0,15 L30,15" />
	</g>
</defs>

<!-- Walls -->
<path d="M10,190 L10,70 L150,70 L200,30 L250,70 L390,70 L390,190 L10,190 z" fill="none" stroke-width="3" stroke="#333" />
<!-- Roof -->
<path d="M10,70 L5,70 L40,40 L186,40 M214,40 L360,40 L395,70 L390,70" fill="none" stroke-width="3" stroke="#333" />
<!-- Flag -->
<path d="M200,30 L200,4 L220,4 A10,10 0 0,0 220,16 L200,16" fill="none" stroke-width="3" stroke="#333" />

<!-- Door -->
<path d="M170,190 L170,120 L230,120 L230,190 M170,130 L230,130 M200,190 L200,130" fill="none" stroke-width="3" stroke="#333" />

<!-- Clock -->
<circle cx="200" cy="70" r="20" stroke-width="3" stroke="#333" fill="none" />
<circle cx="200" cy="70" r="2" stroke-width="3" stroke="#333" fill="none" />
<path d="M200,70 L186,68 M200,70 L212 58" fill="none" stroke-width="3" stroke="#333" />

<!-- Windows (6 + 6) -->
<use x="30" y="100" xlink:href="#window" />
<use x="30" y="140" xlink:href="#window" />
<use x="75" y="100" xlink:href="#window" />
<use x="75" y="140" xlink:href="#window" />
<use x="120" y="100" xlink:href="#window" />
<use x="120" y="140" xlink:href="#window" />

<use x="250" y="100" xlink:href="#window" />
<use x="250" y="140" xlink:href="#window" />
<use x="295" y="100" xlink:href="#window" />
<use x="295" y="140" xlink:href="#window" />
<use x="340" y="100" xlink:href="#window" />
<use x="340" y="140" xlink:href="#window" />
</svg>
