<?xml version="1.0" encoding="UTF-8" standalone="no"?>
<svg width="1000" height="900" viewBox="-500 -500 1000 900" xmlns="http://www.w3.org/2000/svg" xmlns:xlink="http://www.w3.org/1999/xlink" preserveAspectRatio="xMinYMin meet">
<defs>
	<radialGradient id="grad" cx="50%" cy="50%" r="100%">
		<stop offset="10%" style="stop-color:#fff; stop-opacity:1" />
		<stop offset="50%" style="stop-color:#eee; stop-opacity:1" />
		<stop offset="90%" style="stop-color:#ddd; stop-opacity:1" />
	</radialGradient>
</defs>
<rect x="-500" y="-500" width="1000" height="900" fill="url(#grad)" stroke-width="0" stroke="#000" />
<text x="-170" y="-370" opacity="0.5" font-family="Arial, Helvetica, sans-serif" font-size="128px" fill="#444">Home</text>

<!--<circle cx="0" cy="0" r="340" stroke-width="1" stroke="#ccc" fill="none" />-->

<path d="M-50,50 L50,50 
		M-40,50 L-40,-20 M40,-20 L40,50
		M-50,-10 L0,-50 L50,-10
		M-40,-20 L-40,-50 L-20,-50 L-20,-35
		M-30,20 L-30,0 L-10,0 L-10,20 L-30,20 Z
		M0,50 L0,0 L30,0 L30,50 Z"
	style="stroke:#1fac78;stroke-width:7px;fill:none;transform: scale(2.0) translateY(-100px);" />


<text x="-400" y="20" opacity="0.5" font-family="Arial, Helvetica, sans-serif" font-size="52px" fill="#444">Here you will find values for your:</text>

<text x="-350" y="120" opacity="0.5" font-family="Arial, Helvetica, sans-serif" font-size="52px" fill="#444">- electricity consumption</text>
<text x="-350" y="180" opacity="0.5" font-family="Arial, Helvetica, sans-serif" font-size="52px" fill="#444">- heating consumption</text>
<text x="-350" y="240" opacity="0.5" font-family="Arial, Helvetica, sans-serif" font-size="52px" fill="#444">- water consumption</text>

</svg>
