<?xml version="1.0" encoding="UTF-8" standalone="no"?>
<svg width="1800" height="900" viewBox="-900 -500 1800 900" xmlns="http://www.w3.org/2000/svg" xmlns:xlink="http://www.w3.org/1999/xlink" preserveAspectRatio="xMinYMin meet">
<style>
.logout {
	cursor: pointer;
	opacity: 0.75;
}
.grid-head {
	opacity: 0.75;
	stroke-width: 2;
	stroke: #444;
}
.back-button {
	cursor: pointer;
	opacity: 0.75;
}
</style>
<defs>
	<radialGradient id="grad" cx="50%" cy="50%" r="100%">
		<stop offset="10%" style="stop-color:#fff; stop-opacity:1" />
		<stop offset="50%" style="stop-color:#eee; stop-opacity:1" />
		<stop offset="90%" style="stop-color:#ddd; stop-opacity:1" />
	</radialGradient>
</defs>
<rect x="-900" y="-500" width="1800" height="900" fill="url(#grad)" stroke-width="0" stroke="#000" />

<text x="-370" y="-390" opacity="0.75" font-family="Arial, Helvetica, sans-serif" font-size="128px" fill="#444">Making City</text>
<path class="grid-head" d="M-900 -481 H-361" />
<path class="grid-head" d="M36 -388 H900" />
<text x="115" y="-340" opacity="0.75" font-family="Arial, Helvetica, sans-serif" font-size="36px" fill="#444">Your Home Page</text>

<!-- Center TEXT within given sub-svg element -->
<!--<svg x="-400" y="-470" width="800px" height="92px">
	<rect x="1" y="1" width="798" height="92" stroke="#fff" stroke-width="1" opacity="0.1" fill="#00f" />
	<text id="user-home-title" x="50%" y="50%" dominant-baseline="middle" text-anchor="middle" opacity="0.5" font-family="Arial, Helvetica, sans-serif" font-size="92px" fill="#444">Home</text>
</svg>
-->
<path d="M-45,50 L-45,-20 
		M-55,-10 L0,-60 L55,-10 
		M45,-20 L45,50 L-45,50 
		M-30,30 A30,30 0 0,1 30,30 L-30,30"
	style="stroke:#1fac78;stroke-width:5px;fill:none;transform: scale(2) translateY(-100px);" />
<circle class="" cx="0" cy="-10" r="20" 
	style="stroke:#1fac78;stroke-width:5px;fill:#fff;transform: scale(2) translateY(-100px);" />

<image id="back" class="back-button" x="-540" y="-470" width="120" height="80" xlink:href="backbutton.svg" />
<image id="logout" class="logout" x="400" y="-470" width="120" height="80" xlink:href="logout.svg" />

<text id="user-home-description" x="-500" y="50" opacity="0.5" font-family="Arial, Helvetica, sans-serif" font-size="64px" fill="#444">Here you will find values for your:</text>
<text id="user-home-bullet-1" x="-450" y="150" opacity="0.5" font-family="Arial, Helvetica, sans-serif" font-size="64px" fill="#444">- electricity consumption</text>
<text id="user-home-bullet-2" x="-450" y="220" opacity="0.5" font-family="Arial, Helvetica, sans-serif" font-size="64px" fill="#444">- heating consumption</text>
<text id="user-home-bullet-3" x="-450" y="290" opacity="0.5" font-family="Arial, Helvetica, sans-serif" font-size="64px" fill="#444">- water consumption</text>

</svg>
