<?xml version="1.0" encoding="UTF-8" standalone="no"?>
<svg width="1000" height="900" viewBox="-500 -500 1000 900" xmlns="http://www.w3.org/2000/svg" xmlns:xlink="http://www.w3.org/1999/xlink" preserveAspectRatio="xMinYMin meet">
<style>
.logout {
	cursor: pointer;
	opacity: 0.75;
}
.grid-head {
	opacity: 0.75;
	stroke-width: 2.5;
	stroke: #444;
}
.back-button {
	cursor: pointer;
	opacity: 0.75;
}
</style>
<defs>
	<radialGradient id="grad" cx="50%" cy="50%" r="100%">
		<stop offset="10%" style="stop-color:#fff; stop-opacity:1" />
		<stop offset="50%" style="stop-color:#eee; stop-opacity:1" />
		<stop offset="90%" style="stop-color:#ddd; stop-opacity:1" />
	</radialGradient>
</defs>
<rect x="-500" y="-500" width="1000" height="900" fill="url(#grad)" stroke-width="0" stroke="#000" />


<text x="-340" y="-390" opacity="0.75" font-family="Arial, Helvetica, sans-serif" font-size="128px" fill="#444">Making City</text>
<path class="grid-head" d="M-500 -481 H-332" />
<path class="grid-head" d="M66 -388 H500" />
<text x="140" y="-340" opacity="0.75" font-family="Arial, Helvetica, sans-serif" font-size="36px" fill="#444">Your Home Page</text>
<!-- Center TEXT within given sub-svg element -->
<!--
<svg x="-400" y="-470" width="800px" height="72px">
	<rect x="1" y="1" width="398" height="128" stroke="#fff" stroke-width="1" opacity="0.1" fill="#00f" />
	<text id="user-home-title" x="50%" y="50%" dominant-baseline="middle" text-anchor="middle" opacity="0.5" font-family="Arial, Helvetica, sans-serif" font-size="72px" fill="#444">Home</text>
</svg>
-->
<!--
<text id="user-home-title" x="-170" y="-370" opacity="0.5" font-family="Arial, Helvetica, sans-serif" font-size="128px" fill="#444">Home</text>
-->
<!--<circle cx="0" cy="0" r="340" stroke-width="1" stroke="#ccc" fill="none" />-->
<!--
<path d="M-50,50 L50,50 
		M-40,50 L-40,-20 M40,-20 L40,50
		M-50,-10 L0,-50 L50,-10
		M-40,-20 L-40,-50 L-20,-50 L-20,-35
		M-30,20 L-30,0 L-10,0 L-10,20 L-30,20 Z
		M0,50 L0,0 L30,0 L30,50 Z"
	style="stroke:#1fac78;stroke-width:5px;fill:none;transform: scale(2.0) translateY(-100px);" />
-->
<path d="M-45,50 L-45,-20 
		M-55,-10 L0,-60 L55,-10 
		M45,-20 L45,50 L-45,50 
		M-30,30 A30,30 0 0,1 30,30 L-30,30"
	style="stroke:#1fac78;stroke-width:5px;fill:none;transform: scale(2) translateY(-100px);" />
<circle class="" cx="0" cy="-10" r="20" 
	style="stroke:#1fac78;stroke-width:5px;fill:#fff;transform: scale(2) translateY(-100px);" />

<image id="back" class="back-button" x="-460" y="-465" width="105" height="70" xlink:href="backbutton.svg" />
<image id="logout" class="logout" x="360" y="-465" width="105" height="70" xlink:href="logout.svg" />

<text id="user-home-description" x="-400" y="20" opacity="0.5" font-family="Arial, Helvetica, sans-serif" font-size="52px" fill="#444">Here you will find values for your:</text>
<text id="user-home-bullet-1" x="-350" y="120" opacity="0.5" font-family="Arial, Helvetica, sans-serif" font-size="52px" fill="#444">- electricity consumption</text>
<text id="user-home-bullet-2" x="-350" y="180" opacity="0.5" font-family="Arial, Helvetica, sans-serif" font-size="52px" fill="#444">- heating consumption</text>
<text id="user-home-bullet-3" x="-350" y="240" opacity="0.5" font-family="Arial, Helvetica, sans-serif" font-size="52px" fill="#444">- water consumption</text>

</svg>
