<?xml version="1.0" encoding="UTF-8" standalone="no"?>
<svg width="600" height="900" viewBox="-300 -500 600 900" xmlns="http://www.w3.org/2000/svg" xmlns:xlink="http://www.w3.org/1999/xlink" preserveAspectRatio="xMinYMin meet">
<style>
.logout-bottom {
	stroke-width: 2px;
	stroke: #fff;
	opacity: 0.5;
	fill: #f00;
	transform: scale(0.5,0.5) translate(300px,-500px);
}
.logout-shadow {
	stroke-width: 8px;
	stroke: #000;
	opacity: 0.25;
	fill: none;
	transform: scale(0.5,0.5) translate(300px,-500px);
}
.logout-icon {
	stroke-width: 8;
	stroke-linecap: round;
	stroke: #fff;
	fill: none;
	opacity:1;
	transform: scale(0.5,0.5) translate(300px,-500px);
}
.logout-top {
	cursor: pointer;
	stroke-width: 1;
	fill: #fff;
	opacity:0;
	transform: scale(0.5,0.5) translate(300px,-500px);
}
</style>
<defs>
	<radialGradient id="grad" cx="50%" cy="50%" r="100%">
		<stop offset="10%" style="stop-color:#fff; stop-opacity:1" />
		<stop offset="50%" style="stop-color:#eee; stop-opacity:1" />
		<stop offset="90%" style="stop-color:#ddd; stop-opacity:1" />
	</radialGradient>
</defs>
<rect x="-300" y="-500" width="600" height="900" fill="url(#grad)" stroke-width="0" stroke="#000" />

<!--<circle cx="0" cy="0" r="280" stroke-width="1" stroke="#ccc" fill="none" />-->

<!-- Center TEXT within given sub-svg element -->
<svg x="-300" y="-470" width="600px" height="64px">
	<!--<rect x="1" y="1" width="398" height="82" stroke="#fff" stroke-width="1" opacity="0.1" fill="#00f" />-->
	<text id="user-home-title" x="50%" y="50%" dominant-baseline="middle" text-anchor="middle" opacity="0.5" font-family="Arial, Helvetica, sans-serif" font-size="64px" fill="#444">Home</text>
</svg>
<!--
<text id="user-home-title" x="-110" y="-380" opacity="0.5" font-family="Arial, Helvetica, sans-serif" font-size="82px" fill="#444">Home</text>
-->
<!--
<path d="M-50,50 L50,50 
		M-40,50 L-40,-20 M40,-20 L40,50
		M-50,-10 L0,-50 L50,-10
		M-40,-20 L-40,-50 L-20,-50 L-20,-35
		M-30,20 L-30,0 L-10,0 L-10,20 L-30,20 Z
		M0,50 L0,0 L30,0 L30,50 Z"
	style="stroke:#1fac78;stroke-width:5px;fill:none;transform: scale(1.5) translateY(-180px);" />
-->
<path d="M-45,50 L-45,-20 
		M-55,-10 L0,-60 L55,-10 
		M45,-20 L45,50 L-45,50 
		M-30,30 A30,30 0 0,1 30,30 L-30,30"
	style="stroke:#1fac78;stroke-width:5px;fill:none;transform: scale(1.5) translateY(-180px);" />
<circle class="" cx="0" cy="-10" r="20" 
	style="stroke:#1fac78;stroke-width:5px;fill:#fff;transform: scale(1.5) translateY(-180px);" />

<rect class="logout-bottom" x="-75" y="-50" width="150" height="100" />
<path class="logout-shadow" d="M-75,50 L75,50 L75,-50" />
<circle class="logout-icon" cx="0" cy="0" r="30" />
<path class="logout-icon" d="M0,0 L0,-40" />
<rect id="logout" class="logout-top" x="-75" y="-50" width="150" height="100" />

<text id="user-home-description" x="-240" y="-30" opacity="0.5" font-family="Arial, Helvetica, sans-serif" font-size="32px" fill="#444">Here you will find values for your:</text>
<text id="user-home-bullet-1" x="-190" y="40" opacity="0.5" font-family="Arial, Helvetica, sans-serif" font-size="32px" fill="#444">- electricity consumption</text>
<text id="user-home-bullet-2" x="-190" y="80" opacity="0.5" font-family="Arial, Helvetica, sans-serif" font-size="32px" fill="#444">- heating consumption</text>
<text id="user-home-bullet-3" x="-190" y="120" opacity="0.5" font-family="Arial, Helvetica, sans-serif" font-size="32px" fill="#444">- water consumption</text>

</svg>
