<?xml version="1.0" encoding="UTF-8" standalone="no"?>
<svg width="400" height="200" viewBox="-200 -100 400 200" xmlns="http://www.w3.org/2000/svg" xmlns:xlink="http://www.w3.org/1999/xlink" preserveAspectRatio="xMinYMin meet">
<rect id="button-frame" x="-150" y="-75" width="300" height="150" style="stroke:#000;stroke-width:0;fill:none;" />
<path d="M0 75 
	C 0 0, 90 50, 90 -60 
	C 90 -20, 0 -70, 0 75 
	C 0 0, -90 50, -90 -60 
	C -90 -20, 0 -70, 0 75"
	style="stroke:#5a5;stroke-width:2;fill:#cfc;" />
<path d="M38.30,-32.14 A50,50 0 0,0 -50,-15 L34,-15 L29,-5 L-51,-5 
	A50,50 0 0,0 -51,5 L25,5 L20,15 L-50,15 
	A50,50 0 0,0 38.30,32.14 L38.30,50 
	A60,60 0 0,1 -60,15 
	L-75,15 L-70,5 L-61,5 
	A60,60 0 0,1 -61,-5 
	L-75,-5 L-70,-15 L-61,-15 
	A60,60 0 0,1 44,-41 L38.30,-32.14" 
	style="stroke:#333;stroke-width:2;fill:#484;" />
</svg>
