<?xml version="1.0" encoding="UTF-8" standalone="no"?>
<svg
   xmlns:dc="http://purl.org/dc/elements/1.1/"
   xmlns:cc="http://creativecommons.org/ns#"
   xmlns:rdf="http://www.w3.org/1999/02/22-rdf-syntax-ns#"
   xmlns:svg="http://www.w3.org/2000/svg"
   xmlns="http://www.w3.org/2000/svg"
   id="svg3447"
   version="1.0"
   height="16cm"
   width="19.5cm">
  <defs
     id="defs3449">
    <marker
       style="overflow:visible"
       id="Arrow1Mend"
       refX="0"
       refY="0"
       orient="auto">
      <path
         transform="scale(-0.4,-0.4)"
         style="fill-rule:evenodd;stroke:#000000;stroke-width:1pt;marker-start:none"
         d="M 0,0 5,-5 -12.5,0 5,5 0,0 Z"
         id="path2808" />
    </marker>
  </defs>
  <metadata
     id="metadata3453">
    <rdf:RDF>
      <cc:Work
         rdf:about="">
        <dc:format>image/svg+xml</dc:format>
        <dc:type
           rdf:resource="http://purl.org/dc/dcmitype/StillImage" />
        <dc:title></dc:title>
      </cc:Work>
    </rdf:RDF>
  </metadata>
  <g
     style="display:inline"
     transform="translate(-17.716532,4.3253258e-6)"
     id="layer1">
    <path
       style="opacity:1;fill:#000000;fill-opacity:1;fill-rule:nonzero;stroke:none"
       d="m 96.819637,531.60494 0,1.25 248.773983,0.0385 0,-1.25 z"
       id="path2871" />
    <path
       id="path3636"
       d="m 96.815977,532.22601 2.5,2.5 -8.75,-2.5 8.75,-2.5 z"
       style="opacity:1;fill:#000000;fill-rule:evenodd;stroke:#000000;stroke-width:0.4pt;marker-start:none" />
    <path
       style="display:inline;overflow:visible;visibility:visible;opacity:1;fill:#000000;fill-opacity:1;fill-rule:nonzero;stroke:#000000;stroke-width:1.25;stroke-linecap:butt;stroke-linejoin:round;stroke-miterlimit:8.60000038;stroke-dasharray:none;stroke-dashoffset:0;stroke-opacity:1;marker:none;marker-start:none;marker-mid:none;marker-end:none"
       d="m 88.582677,513.25947 0,35.43307"
       id="path3632" />
    <g
       id="g1970">
      <path
         id="path2642"
         d="m 512.89284,157.76333 -0.96393,0.77162 c 22.1917,35.99158 33.08381,72.88539 34.53146,116.77192 l 1.19074,-0.0643 c -1.45499,-44.10909 -12.45404,-81.30515 -34.75827,-117.47924 z"
         style="fill:#000000;fill-opacity:1;fill-rule:nonzero;stroke:none" />
      <path
         id="path1976"
         d="m 512.39849,158.12658 3.26921,0.65624 -6.63237,-6.11079 2.78448,9.16193 0.57868,-3.70738 z"
         style="fill-rule:evenodd;stroke:#000000;stroke-width:0.4pt;marker-start:none" />
      <path
         id="path1978"
         d="m 547.07164,275.28831 -2.43374,-2.5609 2.65313,9.21193 2.03883,-9.41096 -2.25822,2.75993 z"
         style="fill-rule:evenodd;stroke:#000000;stroke-width:0.4pt;marker-start:none" />
    </g>
    <path
       id="path2590"
       d="m 637.34531,283.46457 -619.628778,0"
       style="display:inline;overflow:visible;visibility:visible;fill:none;fill-opacity:1;fill-rule:nonzero;stroke:#000000;stroke-width:1;stroke-linecap:butt;stroke-linejoin:round;stroke-miterlimit:8.60000038;stroke-dasharray:4, 2, 1, 2;stroke-dashoffset:0;stroke-opacity:1;marker:none;marker-start:none;marker-mid:none;marker-end:none" />
    <path
       id="path2592"
       d="m 353.83058,53.630975 0,459.666985"
       style="display:inline;overflow:visible;visibility:visible;fill:none;fill-opacity:1;fill-rule:nonzero;stroke:#000000;stroke-width:1;stroke-linecap:butt;stroke-linejoin:round;stroke-miterlimit:8.60000038;stroke-dasharray:4, 2, 1, 2;stroke-dashoffset:0;stroke-opacity:1;marker:none;marker-start:none;marker-mid:none;marker-end:none" />
    <path
       id="path2594"
       d="M 690.94488,4.325326e-6 353.83058,283.46457 690.94488,566.92914"
       style="display:inline;overflow:visible;visibility:visible;fill:none;fill-opacity:1;fill-rule:nonzero;stroke:#000000;stroke-width:1;stroke-linecap:butt;stroke-linejoin:round;stroke-miterlimit:8.60000038;stroke-dasharray:1, 1;stroke-dashoffset:0;stroke-opacity:1;marker:none;marker-start:none;marker-mid:none;marker-end:none" />
    <path
       id="path2620"
       d="M 544.7735,36.135979 345.44873,518.48807"
       style="display:inline;overflow:visible;visibility:visible;fill:none;fill-opacity:1;fill-rule:nonzero;stroke:#000000;stroke-width:1;stroke-linecap:butt;stroke-linejoin:round;stroke-miterlimit:8.60000038;stroke-dasharray:6, 1;stroke-dashoffset:0;stroke-opacity:1;marker:none;marker-start:none;marker-mid:none;marker-end:none" />
    <path
       id="path2622"
       d="m 489.875,169.05414 0,338.125"
       style="display:inline;overflow:visible;visibility:visible;fill:none;fill-opacity:1;fill-rule:nonzero;stroke:#000000;stroke-width:1;stroke-linecap:butt;stroke-linejoin:round;stroke-miterlimit:8.60000038;stroke-dasharray:1, 1;stroke-dashoffset:0;stroke-opacity:1;marker:none;marker-start:none;marker-mid:none;marker-end:none" />
    <path
       style="display:inline;overflow:visible;visibility:visible;fill:none;fill-opacity:1;fill-rule:nonzero;stroke:#000000;stroke-width:1;stroke-linecap:butt;stroke-linejoin:round;stroke-miterlimit:8.60000038;stroke-dasharray:6, 1;stroke-dashoffset:0;stroke-opacity:1;marker:none;marker-start:none;marker-mid:none;marker-end:none"
       d="M 194.88363,88.588709 44.291344,445.0915"
       id="path2624" />
    <path
       id="path2626"
       d="M 158.94878,102.40261 44.660495,375.43494"
       style="display:inline;overflow:visible;visibility:visible;fill:none;fill-opacity:1;fill-rule:nonzero;stroke:#000000;stroke-width:1;stroke-linecap:butt;stroke-linejoin:round;stroke-miterlimit:8.60000038;stroke-dasharray:6, 1;stroke-dashoffset:0;stroke-opacity:1;marker:none;marker-start:none;marker-mid:none;marker-end:none" />
    <path
       id="path2628"
       d="m 88.582677,70.886363 0,442.373107"
       style="display:inline;overflow:visible;visibility:visible;fill:none;fill-opacity:1;fill-rule:nonzero;stroke:#000000;stroke-width:1;stroke-linecap:butt;stroke-linejoin:round;stroke-miterlimit:8.60000038;stroke-dasharray:1, 1;stroke-dashoffset:0;stroke-opacity:1;marker:none;marker-start:none;marker-mid:none;marker-end:none" />
    <path
       id="path2630"
       d="m 354.33071,70.866146 283.46457,0"
       style="display:inline;overflow:visible;visibility:visible;fill:none;fill-opacity:1;fill-rule:nonzero;stroke:#000000;stroke-width:1;stroke-linecap:butt;stroke-linejoin:round;stroke-miterlimit:8.60000038;stroke-dasharray:1, 1;stroke-dashoffset:0;stroke-opacity:1;marker:none;marker-start:none;marker-mid:none;marker-end:none" />
    <path
       id="path2632"
       d="m 354.33071,496.063 283.46457,0"
       style="display:inline;overflow:visible;visibility:visible;fill:none;fill-opacity:1;fill-rule:nonzero;stroke:#000000;stroke-width:1;stroke-linecap:butt;stroke-linejoin:round;stroke-miterlimit:8.60000038;stroke-dasharray:1, 1;stroke-dashoffset:0;stroke-opacity:1;marker:none;marker-start:none;marker-mid:none;marker-end:none" />
    <path
       id="path2634"
       d="m 141.73228,283.50101 c 0,-114.944 0,-229.887994 0,-229.887994"
       style="display:inline;overflow:visible;visibility:visible;fill:none;fill-opacity:1;fill-rule:nonzero;stroke:#000000;stroke-width:1;stroke-linecap:butt;stroke-linejoin:round;stroke-miterlimit:8.60000038;stroke-dasharray:1, 1;stroke-dashoffset:0;stroke-opacity:1;marker:none;marker-start:none;marker-mid:none;marker-end:none" />
    <g
       id="g1980">
      <path
         id="path2826"
         d="m 548.7701,290.74148 -1.2985,-0.0607 c -1.75564,42.00475 -16.05683,77.33573 -44.37806,109.6933 l 0.99412,0.81024 c 28.4791,-32.53794 42.91701,-68.20391 44.68244,-110.44282 z"
         style="fill:#000000;fill-opacity:1;fill-rule:nonzero;stroke:none" />
      <path
         id="path1986"
         d="m 548.11084,290.73666 2.46462,2.52795 -2.21053,-8.60706 -2.92198,8.41445 2.66789,-2.33534 z"
         style="fill-rule:evenodd;stroke:#000000;stroke-width:0.4pt;marker-start:none" />
      <path
         id="path1988"
         d="m 503.60565,400.77155 -0.33735,-3.42668 -3.76142,8.10961 7.71515,-5.00259 -3.61638,0.31966 z"
         style="fill-rule:evenodd;stroke:#000000;stroke-width:0.4pt;marker-start:none" />
    </g>
    <path
       id="path2828"
       d="m 141.73228,53.77461 0,-35.43307"
       style="display:inline;overflow:visible;visibility:visible;fill:none;fill-opacity:1;fill-rule:nonzero;stroke:#000000;stroke-width:1.25;stroke-linecap:butt;stroke-linejoin:round;stroke-miterlimit:8.60000038;stroke-dasharray:none;stroke-dashoffset:0;stroke-opacity:1;marker:none;marker-start:none;marker-mid:none;marker-end:none" />
    <path
       id="path2830"
       d="m 353.70571,53.14961 c 0,-17.716535 0,-35.43307 0,-35.43307"
       style="display:inline;overflow:visible;visibility:visible;fill:none;fill-opacity:1;fill-rule:nonzero;stroke:#000000;stroke-width:1.25;stroke-linecap:butt;stroke-linejoin:round;stroke-miterlimit:8.60000038;stroke-dasharray:none;stroke-dashoffset:0;stroke-opacity:1;marker:none;marker-start:none;marker-mid:none;marker-end:none" />
    <g
       id="g1960">
      <path
         id="path2832"
         d="m 150.59375,34.8125 0,1.25 196.90625,0 0,-1.25 -196.90625,0 z"
         style="fill:#000000;fill-opacity:1;fill-rule:nonzero;stroke:none" />
      <path
         id="path1966"
         d="m 347.48513,35.433075 -2.5,2.5 8.75,-2.5 -8.75,-2.5 2.5,2.5 z"
         style="fill-rule:evenodd;stroke:#000000;stroke-width:0.4pt;marker-start:none" />
      <path
         id="path1968"
         d="m 150.59061,35.433075 2.5,-2.5 -8.75,2.5 8.75,2.5 -2.5,-2.5 z"
         style="fill-rule:evenodd;stroke:#000000;stroke-width:0.4pt;marker-start:none" />
    </g>
    <path
       id="path2869"
       d="m 353.83058,513.29796 0,35.43307"
       style="display:inline;overflow:visible;visibility:visible;opacity:1;fill:none;fill-opacity:1;fill-rule:nonzero;stroke:#000000;stroke-width:1.25;stroke-linecap:butt;stroke-linejoin:round;stroke-miterlimit:8.60000038;stroke-dasharray:none;stroke-dashoffset:0;stroke-opacity:1;marker:none;marker-start:none;marker-mid:none;marker-end:none" />
    <path
       style="opacity:1;fill-rule:evenodd;stroke:#000000;stroke-width:0.4pt;marker-start:none"
       d="m 345.59728,532.2645 -2.5,2.5 8.75,-2.5 -8.75,-2.5 z"
       id="path1996" />
    <path
       id="path2875"
       d="m 301.1811,212.43382 0,13.04802 0,0"
       style="display:inline;overflow:visible;visibility:visible;fill:none;fill-opacity:1;fill-rule:nonzero;stroke:#000000;stroke-width:1.25;stroke-linecap:butt;stroke-linejoin:round;stroke-miterlimit:8.60000038;stroke-dasharray:none;stroke-dashoffset:0;stroke-opacity:1;marker:none;marker-start:none;marker-mid:none" />
    <g
       id="g2056">
      <path
         id="path2883"
         d="m 300.5625,212.4375 0,13.03125 1.25,0 0,-13.03125 -1.25,0 z"
         style="fill:#000000;fill-opacity:1;fill-rule:nonzero;stroke:none" />
      <path
         id="path2062"
         d="m 301.1811,225.48184 -2.5,-2.5 2.5,8.75 2.5,-8.75 -2.5,2.5 z"
         style="fill-rule:evenodd;stroke:#000000;stroke-width:0.4pt;marker-start:none" />
    </g>
    <g
       id="g2032">
      <path
         id="path2891"
         d="m 336,283.3125 0,13.03125 1.25,0 0,-13.03125 -1.25,0 z"
         style="fill:#000000;fill-opacity:1;fill-rule:nonzero;stroke:none" />
      <path
         id="path2038"
         d="m 336.61417,296.34778 -2.5,-2.5 2.5,8.75 2.5,-8.75 -2.5,2.5 z"
         style="fill-rule:evenodd;stroke:#000000;stroke-width:0.4pt;marker-start:none" />
    </g>
    <g
       id="g2024">
      <path
         id="path2893"
         d="m 336,341.4375 0,13.0625 1.25,0 0,-13.0625 -1.25,0 z"
         style="fill:#000000;fill-opacity:1;fill-rule:nonzero;stroke:none" />
      <path
         id="path2030"
         d="m 336.61417,341.44754 2.5,2.5 -2.5,-8.75 -2.5,8.75 2.5,-2.5 z"
         style="fill-rule:evenodd;stroke:#000000;stroke-width:0.4pt;marker-start:none" />
    </g>
    <g
       id="g2008" />
    <g
       transform="matrix(0.99315978,-0.1167633,0.1167633,0.99315978,-49.626574,30.651314)"
       id="g2000">
      <g
         id="g3668">
        <path
           style="fill:#000000;fill-opacity:1;fill-rule:nonzero;stroke:none"
           d="M 270.25,402.78125 252.53125,420.5 l 0.90625,0.90625 17.6875,-17.71875 -0.875,-0.90625 z"
           id="path2895" />
        <path
           style="fill-rule:evenodd;stroke:#000000;stroke-width:0.4pt;marker-start:none"
           d="m 252.98125,420.95421 0,-3.53553 -4.41942,7.95495 7.95495,-4.41942 -3.53553,0 z"
           id="path2014" />
        <path
           style="fill:#000000;fill-opacity:1;fill-rule:nonzero;stroke:none"
           d="m 220.1875,456.40625 -17.71875,17.71875 0.875,0.875 17.71875,-17.71875 -0.875,-0.875 z"
           id="path2897" />
        <path
           style="fill-rule:evenodd;stroke:#000000;stroke-width:0.4pt;marker-start:none"
           d="m 220.63329,456.8377 0,3.53553 4.41942,-7.95495 -7.95495,4.41942 3.53553,0 z"
           id="path2006" />
      </g>
    </g>
    <path
       id="path2924"
       d="m 673.22835,496.063 -35.43307,0"
       style="display:inline;overflow:visible;visibility:visible;fill:none;fill-opacity:1;fill-rule:nonzero;stroke:#000000;stroke-width:1.25;stroke-linecap:butt;stroke-linejoin:round;stroke-miterlimit:8.60000038;stroke-dasharray:none;stroke-dashoffset:0;stroke-opacity:1;marker:none;marker-start:none;marker-mid:none;marker-end:none" />
    <path
       id="path2926"
       d="m 673.22835,283.46457 -35.43307,0"
       style="display:inline;overflow:visible;visibility:visible;fill:none;fill-opacity:1;fill-rule:nonzero;stroke:#000000;stroke-width:1.25;stroke-linecap:butt;stroke-linejoin:round;stroke-miterlimit:8.60000038;stroke-dasharray:none;stroke-dashoffset:0;stroke-opacity:1;marker:none;marker-start:none;marker-mid:none;marker-end:none" />
    <path
       id="path2928"
       d="m 673.22835,70.866146 -35.43307,0"
       style="display:inline;overflow:visible;visibility:visible;fill:none;fill-opacity:1;fill-rule:nonzero;stroke:#000000;stroke-width:1.25;stroke-linecap:butt;stroke-linejoin:round;stroke-miterlimit:8.60000038;stroke-dasharray:none;stroke-dashoffset:0;stroke-opacity:1;marker:none;marker-start:none;marker-mid:none;marker-end:none" />
    <g
       id="g1950">
      <path
         id="path2930"
         d="m 654.875,79.71875 0,194.875 1.25,0 0,-194.875 -1.25,0 z"
         style="fill:#000000;fill-opacity:1;fill-rule:nonzero;stroke:none" />
      <path
         id="path1956"
         d="m 655.51181,79.724414 2.5,2.5 -2.5,-8.75 -2.5,8.75 2.5,-2.5 z"
         style="fill-rule:evenodd;stroke:#000000;stroke-width:0.4pt;marker-start:none" />
      <path
         id="path1958"
         d="m 655.51181,274.6063 -2.5,-2.5 2.5,8.75 2.5,-8.75 -2.5,2.5 z"
         style="fill-rule:evenodd;stroke:#000000;stroke-width:0.4pt;marker-start:none" />
    </g>
    <g
       id="g2949">
      <path
         id="path2934"
         d="m 654.875,292.3125 0,194.90625 1.25,0 0,-194.90625 -1.25,0 z"
         style="fill:#000000;fill-opacity:1;fill-rule:nonzero;stroke:none" />
      <path
         id="path2955"
         d="m 655.51181,292.32284 2.5,2.5 -2.5,-8.75 -2.5,8.75 2.5,-2.5 z"
         style="fill-rule:evenodd;stroke:#000000;stroke-width:0.4pt;marker-start:none" />
      <path
         id="path2957"
         d="m 655.51181,487.20473 -2.5,-2.5 2.5,8.75 2.5,-8.75 -2.5,2.5 z"
         style="fill-rule:evenodd;stroke:#000000;stroke-width:0.4pt;marker-start:none" />
    </g>
    <path
       id="text2959"
       d="m 35.433071,398.62204 0,-20.04297 2.652343,0 0,20.04297 -2.652343,0 z"
       style="fill:#000000;fill-opacity:1;stroke:none" />
    <path
       id="text2963"
       d="m 38.113865,461.62686 0,-2.35156 8.490235,-0.0137 0,7.4375 c -1.303404,1.03906 -2.647804,1.82064 -4.033203,2.34472 -1.385432,0.52409 -2.807305,0.78614 -4.265625,0.78614 -1.96876,0 -3.757495,-0.42155 -5.366211,-1.26465 -1.608729,-0.8431 -2.823246,-2.06217 -3.643555,-3.65723 -0.820314,-1.59504 -1.23047,-3.37694 -1.230469,-5.3457 -1e-6,-1.95051 0.407876,-3.77115 1.223633,-5.46192 0.815752,-1.69073 1.989253,-2.94627 3.520508,-3.7666 1.531242,-0.82029 3.294912,-1.23045 5.291015,-1.23047 1.449206,2e-5 2.759426,0.23472 3.930664,0.70411 1.171208,0.46942 2.089501,1.12339 2.754883,1.96191 0.665346,0.83856 1.171205,1.93231 1.517578,3.28125 l -2.392578,0.65625 c -0.300798,-1.02082 -0.674496,-1.8229 -1.121093,-2.40625 -0.446631,-0.58332 -1.084651,-1.05044 -1.914063,-1.40137 -0.829441,-0.35089 -1.750013,-0.52635 -2.761719,-0.52636 -1.21225,1e-5 -2.260426,0.18458 -3.144531,0.55371 -0.884122,0.36915 -1.597337,0.85451 -2.139648,1.45605 -0.542324,0.60158 -0.963873,1.26239 -1.264649,1.98242 -0.510421,1.2396 -0.765629,2.584 -0.765625,4.03321 -4e-6,1.78646 0.307613,3.28125 0.922852,4.48437 0.615228,1.20313 1.510735,2.09636 2.686523,2.67969 1.175772,0.58333 2.424469,0.875 3.746094,0.875 1.148425,0 2.269517,-0.22103 3.363281,-0.66309 1.093734,-0.44205 1.92316,-0.91373 2.488281,-1.41504 l 0,-3.73242 -5.892578,0 z"
       style="fill:#000000;fill-opacity:1;stroke:none" />
    <path
       id="text2967"
       d="m 135.68065,93.753448 2.39258,-0.328125 c 0.0638,1.531255 0.3509,2.579431 0.86133,3.144532 0.51041,0.565106 1.21679,0.847658 2.11914,0.847656 0.66535,2e-6 1.23957,-0.152667 1.72265,-0.458008 0.48307,-0.305336 0.81575,-0.720049 0.99805,-1.24414 0.18228,-0.524085 0.27343,-1.360347 0.27344,-2.50879 l 0,-13.808593 2.65234,0 0,13.658203 c -10e-6,1.677088 -0.20281,2.975915 -0.6084,3.896484 -0.40561,0.920575 -1.04819,1.622393 -1.92773,2.105473 -0.87957,0.48307 -1.91179,0.7246 -3.09668,0.7246 -1.75912,0 -3.1058,-0.50585 -4.04004,-1.51757 -0.93425,-1.011719 -1.38314,-2.515624 -1.34668,-4.511722 l 0,0 z"
       style="fill:#000000;fill-opacity:1;stroke:none" />
    <path
       id="text2971"
       d="m 170.30096,78.192581 0,-20.042969 2.65235,0 0,8.230469 10.41797,0 0,-8.230469 2.65234,0 0,20.042969 -2.65234,0 0,-9.447265 -10.41797,0 0,9.447265 -2.65235,0 z"
       style="fill:#000000;fill-opacity:1;stroke:none" />
    <path
       id="text2975"
       d="m 538.27362,28.901241 0,-20.0429684 14.49219,0 0,2.3652344 -11.83985,0 0,6.138672 11.08789,0 0,2.351562 -11.08789,0 0,6.822266 12.30469,0 0,2.365234 -14.95703,0 z"
       style="fill:#000000;fill-opacity:1;stroke:none" />
    <path
       id="text2979"
       d="m 372.00623,292.32285 7.69726,-20.04297 2.85742,0 8.20313,20.04297 -3.02149,0 -2.33789,-6.07032 -8.38086,0 -2.20117,6.07032 -2.8164,0 z m 5.7832,-8.23047 6.79492,0 -2.0918,-5.55078 c -0.63803,-1.68619 -1.11198,-3.0716 -1.42187,-4.15625 -0.25522,1.28517 -0.61524,2.56121 -1.08008,3.82812 l -2.20117,5.87891 z"
       style="fill:#000000;fill-opacity:1;stroke:none" />
    <path
       id="text3868"
       d="m 540.35431,132.87402 0,-20.04297 13.52148,0 0,2.36524 -10.86914,0 0,6.20703 9.40625,0 0,2.36523 -9.40625,0 0,9.10547 -2.65234,0 z"
       style="fill:#000000;fill-opacity:1;stroke:none" />
    <path
       id="text3872"
       d="m 373.28595,515.26868 2.65234,0.66992 c -0.556,2.17839 -1.55633,3.83952 -3.00097,4.9834 -1.44468,1.14388 -3.21063,1.71582 -5.29785,1.71582 -2.16017,0 -3.917,-0.43978 -5.27051,-1.31934 -1.35352,-0.87955 -2.38347,-2.15332 -3.08985,-3.82129 -0.70638,-1.66796 -1.05957,-3.45897 -1.05957,-5.37304 0,-2.08723 0.39876,-3.90787 1.19629,-5.46192 0.79753,-1.55402 1.93229,-2.73436 3.4043,-3.54101 1.472,-0.80662 3.09211,-1.20994 4.86035,-1.20997 2.0052,3e-5 3.69139,0.51044 5.05859,1.53125 1.36717,1.02086 2.31965,2.4564 2.85743,4.30665 l -2.61133,0.61523 c -0.46486,-1.45832 -1.13934,-2.52017 -2.02344,-3.18555 -0.88413,-0.66534 -1.9961,-0.99803 -3.33594,-0.99804 -1.54037,10e-6 -2.8278,0.36915 -3.8623,1.10742 -1.03451,0.7383 -1.7614,1.72951 -2.18067,2.97363 -0.41927,1.24415 -0.62891,2.52703 -0.6289,3.84863 -10e-6,1.70444 0.24837,3.19239 0.74512,4.46387 0.49674,1.27149 1.2692,2.22168 2.31738,2.85059 1.04817,0.62891 2.18293,0.94336 3.4043,0.94336 1.48566,0 2.74347,-0.42839 3.77343,-1.28516 1.02994,-0.85677 1.7272,-2.12825 2.0918,-3.81445 l 0,0 z"
       style="fill:#000000;fill-opacity:1;stroke:none" />
    <path
       id="text3876"
       d="m 325.19107,524.96423 0,-20.04297 7.51953,0 c 1.53124,2e-5 2.75943,0.20282 3.68457,0.6084 0.92512,0.40562 1.64973,1.02997 2.17383,1.87305 0.52407,0.84312 0.78612,1.72495 0.78613,2.64551 -10e-6,0.85678 -0.23243,1.66342 -0.69726,2.41992 -0.46486,0.75652 -1.16668,1.3672 -2.10547,1.83203 1.21222,0.35548 2.14419,0.9616 2.7959,1.81836 0.65167,0.85678 0.97752,1.8685 0.97754,3.03516 -2e-5,0.9388 -0.19826,1.81152 -0.59473,2.61816 -0.3965,0.80664 -0.88641,1.42871 -1.46973,1.86621 -0.58334,0.4375 -1.31479,0.76791 -2.19433,0.99121 -0.87957,0.22331 -1.95737,0.33496 -3.2334,0.33496 l -7.64258,0 z m 2.65234,-11.62109 4.33399,0 c 1.17577,1e-5 2.01887,-0.0775 2.5293,-0.23242 0.67446,-0.20051 1.1826,-0.53319 1.52441,-0.99805 0.34178,-0.46483 0.51268,-1.04816 0.51269,-1.75 -1e-5,-0.66535 -0.15951,-1.25096 -0.47851,-1.75684 -0.31902,-0.50584 -0.77475,-0.85219 -1.36719,-1.03906 -0.59246,-0.18683 -1.60873,-0.28025 -3.04883,-0.28027 l -4.00586,0 0,6.05664 z m 0,9.25586 4.99024,0 c 0.85676,0 1.45832,-0.0319 1.80469,-0.0957 0.61066,-0.10938 1.12108,-0.29167 1.53125,-0.54688 0.41014,-0.2552 0.74738,-0.62662 1.01171,-1.11426 0.26431,-0.48762 0.39647,-1.05045 0.39649,-1.68847 -2e-5,-0.74739 -0.19142,-1.39681 -0.57422,-1.94825 -0.38283,-0.55142 -0.91375,-0.93879 -1.59277,-1.16211 -0.67905,-0.22329 -1.65659,-0.33495 -2.93262,-0.33496 l -4.63477,0 0,6.89063 z"
       style="opacity:1;fill:#000000;fill-opacity:1;stroke:none" />
    <path
       id="text3880"
       d="m 456.93182,179.49179 0,-20.04297 6.9043,0 c 1.55858,2e-5 2.74804,0.0957 3.56836,0.28711 1.14842,0.26434 2.12824,0.74286 2.93945,1.43555 1.05728,0.89324 1.84797,2.03485 2.37207,3.4248 0.52407,1.38999 0.78612,2.9782 0.78614,4.76465 -2e-5,1.52215 -0.17776,2.8711 -0.53321,4.04688 -0.35548,1.17578 -0.81121,2.14876 -1.36718,2.91894 -0.55601,0.77019 -1.16441,1.37631 -1.8252,1.81836 -0.66082,0.44206 -1.45835,0.77702 -2.39258,1.00488 -0.93425,0.22787 -2.0075,0.3418 -3.21972,0.3418 l -7.23243,0 z m 2.65235,-2.36523 4.27929,0 c 1.32161,0 2.35839,-0.12305 3.11036,-0.36914 0.75194,-0.24609 1.35122,-0.59245 1.79785,-1.03907 0.62889,-0.6289 1.1188,-1.47428 1.46972,-2.53613 0.3509,-1.06184 0.52636,-2.34927 0.52637,-3.8623 -1e-5,-2.09635 -0.34409,-3.70735 -1.03223,-4.83301 -0.68816,-1.12564 -1.52442,-1.87987 -2.50878,-2.2627 -0.71095,-0.27342 -1.85483,-0.41014 -3.43165,-0.41015 l -4.21093,0 0,15.3125 z"
       style="fill:#000000;fill-opacity:1;stroke:none" />
  </g>
  <g
     style="display:inline"
     transform="translate(-17.716532,4.3253258e-6)"
     id="layer3">
    <path
       id="path2596"
       d="M 351.59375,70.875 C 253.80172,72.115095 171.84638,139.50018 148.4375,230.3125 l -43.62721,0 -15.218753,35.4375 52.845963,0 c -0.4827,5.84148 -0.71875,11.75347 -0.71875,17.71875 0,5.96997 0.23528,11.87287 0.71875,17.71875 l -38.87721,0 -14.625003,35.4375 59.470963,0 c 23.62289,91.66531 106.93044,159.4375 205.9375,159.4375 51.43726,0 98.61921,-18.28668 135.40625,-48.71875 l 0,-49.6875 c -32.50483,38.49976 -81.11253,62.96875 -135.40625,62.96875 -79.2746,-2e-5 -146.45962,-52.15668 -169.0625,-124 l 235.09375,0 14.65625,-35.4375 -257,0 c -0.58001,-5.8294 -0.875,-11.73749 -0.875,-17.71875 0,-5.9801 0.29538,-11.89034 0.875,-17.71875 l 164.20843,0 107.41657,0 14.625,-35.4375 -279.03125,0 c 22.28574,-70.88667 87.99219,-122.61593 165.875,-124 0.30542,-0.005 0.60045,0.004 0.90625,0 0.76175,-0.01 1.54847,0 2.3125,0 54.1905,0 102.71462,24.37673 135.21875,62.75 l 14.90625,-36.125 C 466.00129,94.583962 412.91601,70.875 354.34375,70.875 c -0.91683,0 -1.8359,-0.01159 -2.75,0 z"
       style="display:inline;overflow:visible;visibility:visible;fill:#e6e6e6;fill-opacity:1;fill-rule:nonzero;stroke:#000000;stroke-width:3.5;stroke-linecap:butt;stroke-linejoin:miter;stroke-miterlimit:8.60000038;stroke-dashoffset:0;stroke-opacity:1;marker:none;marker-start:none;marker-mid:none;marker-end:none" />
    <g
       id="g2040">
      <path
         id="path2881"
         d="m 300.5625,270.59375 0,13.03125 1.25,0 0,-13.03125 -1.25,0 z"
         style="fill:#000000;fill-opacity:1;fill-rule:nonzero;stroke:none" />
      <path
         id="path2046"
         d="m 301.1811,270.58135 2.5,2.5 -2.5,-8.75 -2.5,8.75 2.5,-2.5 z"
         style="fill-rule:evenodd;stroke:#000000;stroke-width:0.4pt;marker-start:none" />
    </g>
    <g
       id="g2048">
      <path
         id="path2887"
         d="m 247.40625,247.875 0,13.03125 1.25,0 0,-13.03125 -1.25,0 z"
         style="fill:#000000;fill-opacity:1;fill-rule:nonzero;stroke:none" />
      <path
         id="path2054"
         d="m 248.0315,260.91473 -2.5,-2.5 2.5,8.75 2.5,-8.75 -2.5,2.5 z"
         style="fill-rule:evenodd;stroke:#000000;stroke-width:0.4pt;marker-start:none" />
    </g>
    <g
       id="g2016">
      <path
         id="path2889"
         d="m 247.40625,306 0,13.0625 1.25,0 0,-13.0625 -1.25,0 z"
         style="fill:#000000;fill-opacity:1;fill-rule:nonzero;stroke:none" />
      <path
         id="path2022"
         d="m 248.0315,306.01444 2.5,2.5 -2.5,-8.75 -2.5,8.75 2.5,-2.5 z"
         style="fill-rule:evenodd;stroke:#000000;stroke-width:0.4pt;marker-start:none" />
    </g>
  </g>
  <g
     style="display:inline"
     transform="translate(-17.716532,4.3253258e-6)"
     id="layer4">
    <rect
       ry="0.35355338"
       y="274.60629"
       x="239.17323"
       height="17.716536"
       width="17.716536"
       id="rect2908"
       style="display:inline;overflow:visible;visibility:visible;fill:#ffffff;fill-opacity:1;fill-rule:nonzero;stroke:none" />
    <rect
       ry="0.35355338"
       y="26.574808"
       x="239.17323"
       height="17.716536"
       width="17.716536"
       id="rect2910"
       style="display:inline;overflow:visible;visibility:visible;fill:#ffffff;fill-opacity:1;fill-rule:nonzero;stroke:none" />
    <rect
       ry="0.52366233"
       y="207.9828"
       x="531.49603"
       height="26.240683"
       width="17.716536"
       id="rect2912"
       style="display:inline;overflow:visible;visibility:visible;fill:#ffffff;fill-opacity:1;fill-rule:nonzero;stroke:none" />
    <rect
       ry="0.55110896"
       y="331.66443"
       x="522.63782"
       height="27.61603"
       width="26.574781"
       id="rect2918"
       style="display:inline;overflow:visible;visibility:visible;fill:#ffffff;fill-opacity:1;fill-rule:nonzero;stroke:none" />
    <rect
       ry="0.35355338"
       y="522.63782"
       x="191.01224"
       height="17.716536"
       width="39.302723"
       id="rect2920"
       style="display:inline;overflow:visible;visibility:visible;opacity:1;fill:#ffffff;fill-opacity:1;fill-rule:nonzero;stroke:none" />
    <rect
       ry="0.52288657"
       y="164.06445"
       x="646.65356"
       height="26.201811"
       width="17.716536"
       id="rect2938"
       style="display:inline;overflow:visible;visibility:visible;fill:#ffffff;fill-opacity:1;fill-rule:nonzero;stroke:none" />
    <rect
       ry="0.53699785"
       y="376.66287"
       x="646.65356"
       height="26.908924"
       width="17.716536"
       id="rect2940"
       style="display:inline;overflow:visible;visibility:visible;fill:#ffffff;fill-opacity:1;fill-rule:nonzero;stroke:none" />
    <rect
       ry="0.55110896"
       y="154.68588"
       x="345.47244"
       height="26.870058"
       width="17.716536"
       id="rect3010"
       style="display:inline;overflow:visible;visibility:visible;fill:#ffffff;fill-opacity:1;fill-rule:nonzero;stroke:none;stroke-width:1.25;stroke-linecap:butt;stroke-linejoin:round;stroke-miterlimit:8.60000038;stroke-dasharray:none;stroke-dashoffset:0;stroke-opacity:1;marker:none;marker-start:none;marker-mid:none;marker-end:none" />
    <text
       id="text3544"
       style="font-style:normal;font-variant:normal;font-weight:normal;font-stretch:normal;font-size:24px;line-height:100%;font-family:Arial;text-indent:0;text-align:start;text-decoration:none;text-decoration-line:none;letter-spacing:normal;word-spacing:normal;text-transform:none;direction:ltr;block-progression:tb;writing-mode:lr-tb;text-anchor:start;display:inline;overflow:visible;visibility:visible;opacity:1;fill:#000000;fill-opacity:1;fill-rule:nonzero;stroke:none">
      <tspan
         y="291.85629"
         x="241.41821"
         id="tspan2944">1</tspan>
      <tspan
         id="tspan2958"
         y="256.50925"
         x="296.27774">1</tspan>
      <tspan
         y="328.63416"
         x="330.34018"
         id="tspan2968">1</tspan>
      <tspan
         y="447.4281"
         x="230.23183"
         id="tspan2972">1</tspan>
      <tspan
         y="42.963013"
         x="241.7092"
         id="tspan2980">6</tspan>
      <tspan
         y="186.50569"
         x="648.41693"
         id="tspan2984">6</tspan>
      <tspan
         y="398.63773"
         x="647.70984"
         id="tspan2988">6</tspan>
      <tspan
         y="540.35431"
         x="194.8819"
         id="tspan2992">7,5</tspan>
      <tspan
         y="229.63921"
         x="527.15851"
         id="tspan2996">40°</tspan>
      <tspan
         y="353.86417"
         x="527.50165"
         id="tspan3000">40°</tspan>
      <tspan
         y="176.69882"
         x="336.61417"
         id="tspan3014">3,5</tspan>
    </text>
  </g>
</svg>
