<?xml version="1.0" encoding="UTF-8" standalone="no"?>
<svg width="2400" height="1200" viewBox="0 0 2400 1200" xmlns="http://www.w3.org/2000/svg" xmlns:xlink="http://www.w3.org/1999/xlink" preserveAspectRatio="xMinYMin meet">
<style>
.arrow {
	opacity: 1;
	stroke:#000;
	stroke-width:2px;
	fill:#0f0;
}
.frame {
	stroke: #aaa;
	stroke-width: 5px;
	fill: #ccc;
	opacity: 0.5;
	cursor: pointer;
}
.frame:hover {
	opacity: 0;
}
</style>
<defs>
	<radialGradient id="grad" cx="50%" cy="50%" r="100%">
		<stop offset="10%" style="stop-color:#fff; stop-opacity:1" />
		<stop offset="50%" style="stop-color:#ddd; stop-opacity:1" />
		<stop offset="90%" style="stop-color:#bbb; stop-opacity:1" />
	</radialGradient>
</defs>
<rect x="0" y="0" width="2400" height="1200" fill="url(#grad)" stroke-width="0" stroke="#000" />

<!-- Up arrow -->
<path class="arrow" d="M0,-20 L20,20 L-20,20 L0,-20Z" style="transform: translate(200px,200px) scale(2.0);" />
<!-- Grey Frame -->
<path id="one-up" class="frame" d="M-35,-45 L35,-45 A10,10 0 0,1 45,-35 L45,35 
		A10,10 0 0,1 35,45 L-35,45
		A10,10 0 0,1 -45,35 L-45,-35
		A10,10 0 0,1 -35,-45"
		style="transform: translate(200px,200px) scale(2.0);" />
		
<path class="arrow" d="M0,-20 L20,20 L-20,20 L0,-20Z" style="transform: translate(400px,200px) scale(2.0);" />
<path id="two-up" class="frame" d="M-35,-45 L35,-45 A10,10 0 0,1 45,-35 L45,35 
		A10,10 0 0,1 35,45 L-35,45
		A10,10 0 0,1 -45,35 L-45,-35
		A10,10 0 0,1 -35,-45"
		style="transform: translate(400px,200px) scale(2.0);" />

</svg>
