<?xml version="1.0" encoding="UTF-8" standalone="no"?>
<svg width="100" height="100" viewBox="-50 -50 100 100" xmlns="http://www.w3.org/2000/svg" xmlns:xlink="http://www.w3.org/1999/xlink" preserveAspectRatio="xMinYMin meet">
<style>
.arrow {
	opacity: 1;
	stroke:#000;
	stroke-width:2px;
	fill:#0f0;
}
.frame {
	stroke: #aaa;
	stroke-width: 5px;
	fill: #ccc;
	opacity: 0.5;
	cursor: pointer;
}
.frame:hover {
	opacity: 0;
}
</style>

<!--
<path d="M0,-45 L50,-45 A20,20 0 0,1 70,-25 L70,25 A20,20 0 0,1 50,45 
		L-50,45 A20,20 0 0,1 -70,25 L-70,-25 A20,20 0 0,1 -50,-45 L0,-45" 
	style="stroke:#1fac78;stroke-width:5px;fill:#1fac78" />
-->
<!--
<path d="M0,-45 L50,-45 A20,20 0 0,1 70,-25 L70,25 A20,20 0 0,1 50,45 
		L-50,45 A20,20 0 0,1 -70,25 L-70,-25 A20,20 0 0,1 -50,-45 L0,-45" 
	style="stroke:#ccc;stroke-width:5px;fill:#fff;" />
	
	
-->
<!-- White left arrow -->
<!--<path d="M-40,0 L0,-30 L0,-10 L50,-10 L50,10 L0,10 L0,30 L-40,0 Z" style="stroke:#fff;stroke-width:5px;fill:#fff;" />-->

<!--
<path d="M-40,0 L0,-30 L0,-10 L50,-10 L50,10 L0,10 L0,30 L-40,0 Z" style="stroke:#444;stroke-width:5px;fill:#444;" />
-->
<!-- Up arrow -->
<path class="arrow" d="M0,-20 L20,20 L-20,20 L0,-20Z" />
<!-- Grey Frames -->
<path class="frame" d="M-35,-45 L35,-45 A10,10 0 0,1 45,-35 L45,35 
		A10,10 0 0,1 35,45 L-35,45
		A10,10 0 0,1 -45,35 L-45,-35
		A10,10 0 0,1 -35,-45" />
<!-- Transparent overlay on top of all others -->
<!--<path class="button" d="M-50,-50 L50,-50 L50,50 L-50,50 L-50,-50Z" />-->
</svg>
