<?xml version="1.0" encoding="UTF-8" standalone="no"?>
<svg width="1000" height="900" viewBox="-500 -500 1000 900" xmlns="http://www.w3.org/2000/svg" xmlns:xlink="http://www.w3.org/1999/xlink" preserveAspectRatio="xMinYMin meet">
<style>
.logout {
	cursor: pointer;
	opacity: 0.75;
}
.grid-head {
	opacity: 0.75;
	stroke-width: 2;
	stroke: #444;
}
.back-button {
	cursor: pointer;
	opacity: 0.75;
}
.active-button {
	cursor: pointer;
}
.small-text {
	opacity: 1;
	font-family: "Arial, Helvetica, sans-serif";
	font-size: 24px;
	fill: #000;
}
.medium-text {
	opacity: 1;
	font-family: "Arial, Helvetica, sans-serif";
	font-size: 32px;
	fill: #000;
}
</style>
<defs>
	<radialGradient id="grad" cx="50%" cy="50%" r="100%">
		<stop offset="10%" style="stop-color:#fff; stop-opacity:1" />
		<stop offset="50%" style="stop-color:#eee; stop-opacity:1" />
		<stop offset="90%" style="stop-color:#ddd; stop-opacity:1" />
	</radialGradient>
</defs>
<rect x="-500" y="-500" width="1000" height="900" fill="url(#grad)" stroke-width="0" stroke="#000" />


<text x="-340" y="-390" opacity="0.75" font-family="Arial, Helvetica, sans-serif" font-size="128px" fill="#444">Making City</text>
<path class="grid-head" d="M-500 -481 H-332" />
<path class="grid-head" d="M66 -388 H500" />
<text x="140" y="-340" opacity="0.75" font-family="Arial, Helvetica, sans-serif" font-size="36px" fill="#444">Your Home Page</text>

<image id="back" class="back-button" x="-460" y="-465" width="105" height="70" xlink:href="backbutton.svg" />
<image id="logout" class="logout" x="360" y="-465" width="105" height="70" xlink:href="logout.svg" />

<!-- Test changing circle colors -->
<image id="TheHomeColorTest" x="-120" y="-120" width="240" height="240" xlink:href="Home.svg" />

<svg x="-160" y="-230" width="320px" height="32px">
	<!--<rect x="1" y="1" width="318" height="30" stroke="#fff" stroke-width="1" opacity="0.2" fill="#009688" />-->
	<text class="small-text" id="user-email" x="50%" y="50%" dominant-baseline="middle" text-anchor="middle"></text>
</svg>
<svg x="-340" y="10" width="200px" height="32px">
	<!--<rect x="1" y="1" width="198" height="30" stroke="#fff" stroke-width="1" opacity="0.2" fill="#009688" />-->
	<text class="medium-text" id="user-electricity" x="50%" y="50%" dominant-baseline="middle" text-anchor="middle">0.25 kWh</text>
</svg>
<svg x="-100" y="240" width="200px" height="32px">
	<!--<rect x="1" y="1" width="198" height="30" stroke="#fff" stroke-width="1" opacity="0.2" fill="#009688" />-->
	<text class="small-text" id="user-heating" x="50%" y="50%" dominant-baseline="middle" text-anchor="middle">Climate Comfort:</text>
</svg>
<image x="-30" y="270" width="60" height="60" xlink:href="SmileyHappy.svg" />

<image x="160" y="0" width="40" height="30" xlink:href="watercold.svg" />
<image x="160" y="30" width="40" height="30" xlink:href="waterhot.svg" />
<svg x="190" y="5" width="120px" height="32px">
	<!--<rect x="1" y="1" width="118" height="30" stroke="#fff" stroke-width="1" opacity="0.2" fill="#009688" />-->
	<text class="medium-text" id="user-water-cold" x="50%" y="50%" dominant-baseline="middle" text-anchor="middle">5 L</text>
</svg>
<svg x="190" y="35" width="120px" height="32px">
	<!--<rect x="1" y="1" width="118" height="30" stroke="#fff" stroke-width="1" opacity="0.2" fill="#009688" />-->
	<text class="medium-text" id="user-water-hot" x="50%" y="50%" dominant-baseline="middle" text-anchor="middle">10 L</text>
</svg>


<!-- The User X:-50; Y: -->
<image x="-50" y="-315" width="100" height="75" xlink:href="user.svg" />
<circle class="active-button" id="user-button" cx="0" cy="0" r="100" style="stroke:#0a0;stroke-width:5px;fill:#fff;opacity:0.25;transform: translateY(-240px) scale(1.0);">
	<animate attributeName="r" begin="0s" dur="3s" repeatCount="indefinite" values="100;110;100" />
</circle>

<!-- The Electricity X: -(240+50) = -290 -->
<image x="-290" y="-75" width="100" height="75" xlink:href="electricity.svg" />
<circle class="active-button" id="electricity-button" cx="0" cy="0" r="100" style="stroke:#0a0;stroke-width:5px;fill:#fff;opacity:0.25;transform: translateX(-240px) scale(1.0);">
	<animate attributeName="r" begin="0s" dur="3s" repeatCount="indefinite" values="100;110;100" />
</circle>

<!-- The Heating X:-50; Y:240-60 = 180 -->
<image x="-50" y="165" width="100" height="75" xlink:href="radiator.svg" />
<circle class="active-button" id="heating-button" cx="0" cy="0" r="100" style="stroke:#0a0;stroke-width:5px;fill:#fff;opacity:0.25;transform: translateY(240px) scale(1.0);">
	<animate attributeName="r" begin="0s" dur="3s" repeatCount="indefinite" values="100;110;100" />
</circle>

<!-- The Water X: 240 - 50 = 190 -->
<image x="190" y="-75" width="100" height="75" xlink:href="water.svg" />
<circle class="active-button" id="water-button" cx="0" cy="0" r="100" style="stroke:#0a0;stroke-width:5px;fill:#fff;opacity:0.25;transform: translateX(240px) scale(1.0);">
	<animate attributeName="r" begin="0s" dur="3s" repeatCount="indefinite" values="100;110;100" />
</circle>

<!-- Center TEXT within given sub-svg element -->
<!--
<svg x="-400" y="-470" width="800px" height="72px">
	<rect x="1" y="1" width="398" height="128" stroke="#fff" stroke-width="1" opacity="0.1" fill="#00f" />
	<text id="user-home-title" x="50%" y="50%" dominant-baseline="middle" text-anchor="middle" opacity="0.5" font-family="Arial, Helvetica, sans-serif" font-size="72px" fill="#444">Home</text>
</svg>
-->
<!--
<text id="user-home-title" x="-170" y="-370" opacity="0.5" font-family="Arial, Helvetica, sans-serif" font-size="128px" fill="#444">Home</text>
-->
<!--<circle cx="0" cy="0" r="340" stroke-width="1" stroke="#ccc" fill="none" />-->
<!--
<path d="M-50,50 L50,50 
		M-40,50 L-40,-20 M40,-20 L40,50
		M-50,-10 L0,-50 L50,-10
		M-40,-20 L-40,-50 L-20,-50 L-20,-35
		M-30,20 L-30,0 L-10,0 L-10,20 L-30,20 Z
		M0,50 L0,0 L30,0 L30,50 Z"
	style="stroke:#1fac78;stroke-width:5px;fill:none;transform: scale(2.0) translateY(-100px);" />
-->

<!--
<path d="M-45,50 L-45,-20 
		M-55,-10 L0,-60 L55,-10 
		M45,-20 L45,50 L-45,50 
		M-30,30 A30,30 0 0,1 30,30 L-30,30"
	style="stroke:#1fac78;stroke-width:5px;fill:none;transform: scale(2) translateY(-100px);" />
<circle class="" cx="0" cy="-10" r="20" 
	style="stroke:#1fac78;stroke-width:5px;fill:#fff;transform: scale(2) translateY(-100px);" />


<text id="user-home-description" x="-400" y="20" opacity="0.5" font-family="Arial, Helvetica, sans-serif" font-size="52px" fill="#444">Here you will find values for your:</text>
<text id="user-home-bullet-1" x="-350" y="120" opacity="0.5" font-family="Arial, Helvetica, sans-serif" font-size="52px" fill="#444">- electricity consumption</text>
<text id="user-home-bullet-2" x="-350" y="180" opacity="0.5" font-family="Arial, Helvetica, sans-serif" font-size="52px" fill="#444">- heating consumption</text>
<text id="user-home-bullet-3" x="-350" y="240" opacity="0.5" font-family="Arial, Helvetica, sans-serif" font-size="52px" fill="#444">- water consumption</text>
-->
</svg>
