<?xml version="1.0" encoding="UTF-8" standalone="no"?>
<svg width="600" height="900" viewBox="-300 -500 600 900" xmlns="http://www.w3.org/2000/svg" xmlns:xlink="http://www.w3.org/1999/xlink" preserveAspectRatio="xMinYMin meet">
<style>
.grid-head {
	opacity: 0.75;
	stroke-width: 2;
	stroke: #444;
}
.back-button {
	cursor: pointer;
	opacity: 0.75;
}
.active-button {
	cursor: pointer;
}
.tiny-text {
	opacity: 1;
	font-family: "Arial, Helvetica, sans-serif";
	font-size: 18px;
	fill: #000;
}
.small-text {
	opacity: 1;
	font-family: "Arial, Helvetica, sans-serif";
	font-size: 24px;
	fill: #000;
}
.medium-text {
	opacity: 1;
	font-family: "Arial, Helvetica, sans-serif";
	font-size: 32px;
	fill: #000;
}
</style>
<defs>
	<radialGradient id="grad" cx="50%" cy="50%" r="100%">
		<stop offset="10%" style="stop-color:#fff; stop-opacity:1" />
		<stop offset="50%" style="stop-color:#ddd; stop-opacity:1" />
		<stop offset="90%" style="stop-color:#bbb; stop-opacity:1" />
	</radialGradient>
</defs>
<rect x="-300" y="-500" width="600" height="900" fill="url(#grad)" stroke-width="0" stroke="#000" />

<text x="-200" y="-382" opacity="0.75" font-family="Arial, Helvetica, sans-serif" font-size="78px" fill="#444">Making City</text>
<path class="grid-head" d="M-300 -438 H-194" />
<path class="grid-head" d="M48 -380 H300" />
<text x="100" y="-345" opacity="0.75" font-family="Arial, Helvetica, sans-serif" font-size="22px" fill="#444">Your Home Page</text>

<image id="back" class="back-button" x="-290" y="-432" width="75" height="50" xlink:href="backbutton.svg" />
<image id="logout" x="220" y="-432" width="75" height="50" xlink:href="logout.svg" style="cursor:pointer;opacity:0.75;" />

<!-- Test changing circle colors -->
<!--
<svg x="-70" y="-30" width="140px" height="30px">
	<rect x="1" y="1" width="138" height="28" stroke="#fff" stroke-width="1" opacity="0.2" fill="#009688" />
	<text class="tiny-text" id="color-test-text" x="50%" y="50%" dominant-baseline="middle" text-anchor="middle">Click the house!</text>
</svg>
<image id="TheHomeColorTest" x="-100" y="-100" width="200" height="200" xlink:href="Home.svg" />
-->
<circle cx="0" cy="0" r="300" stroke-width="1" stroke="#ccc" fill="none" />

<image x="-100" y="-100" width="200" height="200" xlink:href="Home.svg" />

<svg x="-160" y="-190" width="320px" height="30px">
	<!--<rect x="1" y="1" width="318" height="28" stroke="#fff" stroke-width="1" opacity="0.2" fill="#009688" />-->
	<text class="small-text" id="user-email" x="50%" y="50%" dominant-baseline="middle" text-anchor="middle"></text>
</svg>
<svg x="-160" y="-160" width="320px" height="30px">
	<!--<rect x="1" y="1" width="318" height="28" stroke="#fff" stroke-width="1" opacity="0.2" fill="#009688" />-->
	<text class="small-text" id="user-message" x="50%" y="50%" dominant-baseline="middle" text-anchor="middle"></text>
</svg>


<svg x="-300" y="10" width="200px" height="30px">
	<!--<rect x="1" y="1" width="198" height="28" stroke="#fff" stroke-width="1" opacity="0.2" fill="#009688" />-->
	<text class="medium-text" id="user-electricity-energy" x="50%" y="50%" dominant-baseline="middle" text-anchor="middle"></text>
</svg>
<svg x="-300" y="40" width="200px" height="30px">
	<!--<rect x="1" y="1" width="198" height="28" stroke="#fff" stroke-width="1" opacity="0.2" fill="#009688" />-->
	<text class="small-text" id="user-electricity-power" x="50%" y="50%" dominant-baseline="middle" text-anchor="middle"></text>
</svg>

<!--
<svg x="-160" y="200" width="320px" height="30px">-->
	<!--<rect x="1" y="1" width="318" height="28" stroke="#fff" stroke-width="1" opacity="0.2" fill="#009688" />-->
	<!--<text class="small-text" id="user-heating" x="50%" y="50%" dominant-baseline="middle" text-anchor="middle">Climate Comfort:</text>
</svg>
<image x="-30" y="230" width="60" height="60" xlink:href="SmileyHappy.svg" />
-->

<svg x="-100" y="210" width="200px" height="32px">
	<!--<rect x="1" y="1" width="198" height="30" stroke="#fff" stroke-width="1" opacity="0.2" fill="#009688" />-->
	<text class="medium-text" id="user-temperature" x="50%" y="50%" dominant-baseline="middle" text-anchor="middle"></text>
</svg>
<svg x="-100" y="240" width="200px" height="32px">
	<!--<rect x="1" y="1" width="198" height="30" stroke="#fff" stroke-width="1" opacity="0.2" fill="#009688" />-->
	<text class="small-text" id="user-humidity" x="50%" y="50%" dominant-baseline="middle" text-anchor="middle"></text>
</svg>

<image x="130" y="0" width="40" height="30" xlink:href="watercold.svg" />
<image x="130" y="30" width="40" height="30" xlink:href="waterhot.svg" />
<svg x="160" y="5" width="100px" height="30px">
	<!--<rect x="1" y="1" width="98" height="28" stroke="#fff" stroke-width="1" opacity="0.2" fill="#009688" />-->
	<text class="medium-text" id="user-water-cold" x="50%" y="50%" dominant-baseline="middle" text-anchor="middle"></text>
</svg>
<svg x="160" y="35" width="100px" height="30px">
	<!--<rect x="1" y="1" width="98" height="28" stroke="#fff" stroke-width="1" opacity="0.2" fill="#009688" />-->
	<text class="medium-text" id="user-water-hot" x="50%" y="50%" dominant-baseline="middle" text-anchor="middle"></text>
</svg>

<!-- The User -->
<image x="-50" y="-275" width="100" height="75" xlink:href="user.svg" />
<circle class="active-button" id="user-button" cx="0" cy="0" r="90" style="stroke:#0a0;stroke-width:5px;fill:#fff;opacity:0.25;transform: translateY(-200px) scale(1.0);">
	<animate attributeName="r" begin="0s" dur="3s" repeatCount="indefinite" values="90;100;90" />
</circle>

<!-- The Electricity -->
<image x="-250" y="-75" width="100" height="75" xlink:href="electricity.svg" />
<circle class="active-button" id="electricity-button" cx="0" cy="0" r="90" style="stroke:#0a0;stroke-width:5px;fill:#fff;opacity:0.25;transform: translateX(-200px) scale(1.0);">
	<animate attributeName="r" begin="0s" dur="3s" repeatCount="indefinite" values="90;100;90" />
</circle>

<!-- The Heating X:-50; Y:200-75 = 125 -->
<image x="-50" y="125" width="100" height="75" xlink:href="radiator.svg" />
<circle class="active-button" id="heating-button" cx="0" cy="0" r="90" style="stroke:#0a0;stroke-width:5px;fill:#fff;opacity:0.25;transform: translateY(200px) scale(1.0);">
	<animate attributeName="r" begin="0s" dur="3s" repeatCount="indefinite" values="90;100;90" />
</circle>

<!-- The Water X: 200 - 50 = 150 -->
<image x="150" y="-75" width="100" height="75" xlink:href="water.svg" />
<circle class="active-button" id="water-button" cx="0" cy="0" r="90" style="stroke:#0a0;stroke-width:5px;fill:#fff;opacity:0.25;transform: translateX(200px) scale(1.0);">
	<animate attributeName="r" begin="0s" dur="3s" repeatCount="indefinite" values="90;100;90" />
</circle>


<!-- Center TEXT within given sub-svg element -->
<!--
<svg x="-300" y="-470" width="600px" height="64px">
	<rect x="1" y="1" width="398" height="82" stroke="#fff" stroke-width="1" opacity="0.1" fill="#00f" />
	<text id="user-home-title" x="50%" y="50%" dominant-baseline="middle" text-anchor="middle" opacity="0.5" font-family="Arial, Helvetica, sans-serif" font-size="64px" fill="#444">Home</text>
</svg>
-->
<!--
<text id="user-home-title" x="-110" y="-380" opacity="0.5" font-family="Arial, Helvetica, sans-serif" font-size="82px" fill="#444">Home</text>
-->
<!--
<path d="M-50,50 L50,50 
		M-40,50 L-40,-20 M40,-20 L40,50
		M-50,-10 L0,-50 L50,-10
		M-40,-20 L-40,-50 L-20,-50 L-20,-35
		M-30,20 L-30,0 L-10,0 L-10,20 L-30,20 Z
		M0,50 L0,0 L30,0 L30,50 Z"
	style="stroke:#1fac78;stroke-width:5px;fill:none;transform: scale(1.5) translateY(-180px);" />
-->
<!--
<path d="M-45,50 L-45,-20 
		M-55,-10 L0,-60 L55,-10 
		M45,-20 L45,50 L-45,50 
		M-30,30 A30,30 0 0,1 30,30 L-30,30"
	style="stroke:#1fac78;stroke-width:5px;fill:none;transform: scale(1.5) translateY(-160px);" />
<circle class="" cx="0" cy="-10" r="20" 
	style="stroke:#1fac78;stroke-width:5px;fill:#fff;transform: scale(1.5) translateY(-160px);" />

<text id="user-home-description" x="-240" y="-30" opacity="0.5" font-family="Arial, Helvetica, sans-serif" font-size="32px" fill="#444">Here you will find values for your:</text>
<text id="user-home-bullet-1" x="-190" y="40" opacity="0.5" font-family="Arial, Helvetica, sans-serif" font-size="32px" fill="#444">- electricity consumption</text>
<text id="user-home-bullet-2" x="-190" y="80" opacity="0.5" font-family="Arial, Helvetica, sans-serif" font-size="32px" fill="#444">- heating consumption</text>
<text id="user-home-bullet-3" x="-190" y="120" opacity="0.5" font-family="Arial, Helvetica, sans-serif" font-size="32px" fill="#444">- water consumption</text>
-->
</svg>
