<?xml version="1.0" encoding="UTF-8" standalone="no"?>
<svg width="200" height="100" viewBox="-100 -50 200 100" xmlns="http://www.w3.org/2000/svg" xmlns:xlink="http://www.w3.org/1999/xlink" preserveAspectRatio="xMinYMin meet">
<style>
.bar-red {
	stroke: #000;
	stroke-width: 1px;
	fill: #f00;
}
.bar-yellow {
	stroke: #000;
	stroke-width: 1px;
	fill: #ff0;
}
.bar-green {
	stroke: #000;
	stroke-width: 1px;
	fill: #0f0;
}
.bar-cyan {
	stroke: #000;
	stroke-width: 1px;
	fill: #0ff;
}
</style>
<rect id="button-frame" x="-100" y="-50" width="200" height="100" style="stroke:#000;stroke-width:0;fill:none;" />
<!--
<path class="button" d="M0,-45 L70,-45 A20,20 0 0,1 90,-25 L90,25 A20,20 0 0,1 70,45 
		L-70,45 A20,20 0 0,1 -90,25 L-90,-25 A20,20 0 0,1 -70,-45 L0,-45" />
		-->
<!-- Charts -->
<path class="bar-red"    d="M-50,25 L-50,-30 L-25,-30 L-25,25 L-50,25" />
<path class="bar-yellow" d="M-25,25 L-25,-25 L0,-25   L0,25   L-25,25" />
<path class="bar-cyan"   d="M0,25   L0,-20   L25,-20  L25,25  L0,25" />
<path class="bar-green"  d="M25,25  L25,-15  L50,-15  L50,25  L25,25" />
</svg>
