<?xml version="1.0" encoding="UTF-8" standalone="no"?>
<svg width="200" height="200" viewBox="-100 -100 200 200" xmlns="http://www.w3.org/2000/svg" xmlns:xlink="http://www.w3.org/1999/xlink" preserveAspectRatio="xMinYMin meet">
<!-- Charts -->
<line x1="-75" y1="-75" x2="-75" y2="75" style="fill:none;stroke-width:2px;stroke:#ccc;" />
<line x1="-75" y1="75" x2="75" y2="75" style="fill:none;stroke-width:2px;stroke:#ccc;" />
<line x1="-75" y1="50" x2="75" y2="50" style="fill:none;stroke-width:2px;stroke:#ccc;" />
<line x1="-75" y1="25" x2="75" y2="25" style="fill:none;stroke-width:2px;stroke:#ccc;" />
<line x1="-75" y1="0" x2="75" y2="0" style="fill:none;stroke-width:2px;stroke:#ccc;" />
<line x1="-75" y1="-25" x2="75" y2="-25" style="fill:none;stroke-width:2px;stroke:#ccc;" />
<line x1="-75" y1="-50" x2="75" y2="-50" style="fill:none;stroke-width:2px;stroke:#ccc;" />
<path d="M-60,75 L-60,-30 L-20,-30 L-20,75 L-60,75" style="fill:#0a0;stroke-width:1px;stroke:#000;" />
<path d="M-10,75 L-10,-10 L30,-10 L30,75 L-10,75" style="fill:#0a0;stroke-width:1px;stroke:#000;" />
<path d="M40,75 L40,0 L80,0 L80,75 L40,75" style="fill:#0a0;stroke-width:1px;stroke:#000;" />
</svg>
