<?xml version="1.0" encoding="UTF-8" standalone="no"?>
<svg width="400" height="400" viewBox="-200 -200 400 400" xmlns="http://www.w3.org/2000/svg" preserveAspectRatio="xMinYMin meet">
<style>
.house {
	opacity: 0.9;
	fill: none;
	stroke-width: 13;
	stroke: #fff;
	stroke-linecap: round;
}
.earth {
	opacity: 0.75;
	stroke: #333;
	stroke-width: 50;
}
.heat {
	fill: none;
	stroke: #fff;
	stroke-width: 6;
}
.arrow {
	fill: #fff;
	stroke-width: 1;
}
</style>
<!--<rect x="-198" y="-198" width="398" height="398" fill="none" stroke-width="1" stroke="#000" />-->
<g>
	<path class="house" d="M-150,25 L-75,25 L-75,-75 L-100,-75 L-75,-100 L-75,-150 M-50,-150 L-50,-125 L0,-175 L100,-75 L75,-75 L75,25 L150,25" />
	<path class="earth" d="M-160,70 L160,70" />
	<path class="heat" d="M -40 45 L -40 0" />
	<path class="heat" d="M 0 45 L 0 0" />
	<path class="heat" d="M 40 45 L 40 0" />
	<path class="arrow" d="M-13,0 L0,-35 L13,0 L-13,0" />
	<path class="arrow" d="M-13,0 L0,-35 L13,0 L-13,0" transform="translate(-40,0)" />
	<path class="arrow" d="M-13,0 L0,-35 L13,0 L-13,0" transform="translate(40,0)" />
</g>
</svg>
