<?xml version="1.0" encoding="UTF-8" standalone="no"?>
<svg width="400" height="400" viewBox="-200 -250 400 400" xmlns="http://www.w3.org/2000/svg" preserveAspectRatio="xMinYMin meet">
<style>
.snowflake {
	stroke-width: 12;
	stroke: #fff;
	fill: none;
}
.box-outer {
	fill: none;
	stroke-width: 14;
	stroke: #fff;
	stroke-linecap: round;
}
.box-inner {
	fill: none;
	stroke-width: 10;
	stroke: #fff;
	stroke-linecap: round;
}
.box-inner-2 {
	fill: none;
	stroke-width: 8;
	stroke: #fff;
	stroke-linecap: round;
}
</style>
<!--<rect x="-198" y="-248" width="398" height="398" fill="none" stroke-width="1" stroke="#000" />-->
<g opacity="0.5">
	<path class="box-outer" d="M-180,-130 L-180,130 L180,130 L180,-130 L-180,-130" />
	<path class="box-inner" d="M-180,-130 L-100,-230 L100,-230 L180,-130" />
	<path class="box-inner-2" d="M-100,-230 L-100,-130" />
	<path class="box-inner-2" d="M100,-230 L100,-130" />
	<!--
	<path class="box-inner" d="M-120,-120 L-100,-100 L100,-100 L120,-120" />
	<path class="box-inner" d="M-100,-100 L-100,100 L-120,120" />
	<path class="box-inner" d="M-100,100 L100,100 L120,120" />
	<path class="box-inner" d="M100,100 L100,-100" />
	-->
	<!--
	<path class="box" d="M-150,-120 L0,-160 L190,-160 L150,-120" />
	<path class="box" d="M196,-160 L196,52 L150,120" />
	-->
</g>
<g opacity="0.75">
	<path class="snowflake" d="M 0,90 L 0,-90" />
	<path class="snowflake" d="M 77.94,45 L -77.94,-45" />
	<path class="snowflake" d="M 77.94,-45 L -77.94,45" />
	<path class="snowflake" d="M 43.3,-25 L 43.3,-55" />
	<path class="snowflake" d="M 43.3,-25 L 69.28,-10" />
	<path class="snowflake" d="M 0,-50 L 25.98,-65" />
	<path class="snowflake" d="M 0,-50 L -25.98,-65" />
	<path class="snowflake" d="M -43.3,-25 L -43.3,-55" />
	<path class="snowflake" d="M -43.3,-25 L -69.28,-10" />
	<path class="snowflake" d="M -43.3,25 L -69.28,10" />
	<path class="snowflake" d="M -43.3,25 L -43.3,55" />
	<path class="snowflake" d="M 0,50 L 25.98,65" />
	<path class="snowflake" d="M 0,50 L -25.98,65" />
	<path class="snowflake" d="M 43.3,25 L 43.3,55" />
	<path class="snowflake" d="M 43.3,25 L 69.28,10" />
</g>
</svg>
