<?xml version="1.0" encoding="UTF-8" standalone="no"?>
<svg width="200" height="200" viewBox="-100 -100 200 200" xmlns="http://www.w3.org/2000/svg" preserveAspectRatio="xMinYMin meet">
<style>
.snowflake {
	stroke-width: 12;
	stroke: #fff;
	fill: none;
}
</style>
<g opacity="0.75">
	<!-- A rx ry x-axis-rotation large-arc-flag sweep-flag x y -->
	<path class="snowflake" d="M 0,90 L 0,-90" />
	<path class="snowflake" d="M 77.94,45 L -77.94,-45" />
	<path class="snowflake" d="M 77.94,-45 L -77.94,45" />
	<path class="snowflake" d="M 43.3,-25 L 43.3,-55" />
	<path class="snowflake" d="M 43.3,-25 L 69.28,-10" />
	<path class="snowflake" d="M 0,-50 L 25.98,-65" />
	<path class="snowflake" d="M 0,-50 L -25.98,-65" />
	<path class="snowflake" d="M -43.3,-25 L -43.3,-55" />
	<path class="snowflake" d="M -43.3,-25 L -69.28,-10" />
	<path class="snowflake" d="M -43.3,25 L -69.28,10" />
	<path class="snowflake" d="M -43.3,25 L -43.3,55" />
	<path class="snowflake" d="M 0,50 L 25.98,65" />
	<path class="snowflake" d="M 0,50 L -25.98,65" />
	<path class="snowflake" d="M 43.3,25 L 43.3,55" />
	<path class="snowflake" d="M 43.3,25 L 69.28,10" />
	<animateTransform attributeName="transform" 
					attributeType="XML" 
					dur="8s" 
					repeatCount="indefinite" 
					type="rotate" 
					from="0" 
					to="360" >
	</animateTransform>
</g>
</svg>
