<?xml version="1.0" encoding="UTF-8" standalone="no"?>
<svg width="220" height="220" viewBox="-110 -110 220 220" xmlns="http://www.w3.org/2000/svg" xmlns:xlink="http://www.w3.org/1999/xlink" preserveAspectRatio="xMinYMin meet">
<defs>
	<linearGradient id="grad" x1="0%" y1="0%" x2="0%" y2="100%">
		<stop offset="0%" style="stop-color:rgb(255,0,0);stop-opacity:1" />
		<stop offset="100%" style="stop-color:rgb(255,255,0);stop-opacity:1" />
	</linearGradient>
</defs>
<circle x="0" y="0" r="100" fill="url(#grad)" stroke-width="3" stroke="#000" />
<circle cx="-40" cy="-30" r="10" style="stroke:#fff;stroke-width:4;fill:#fff;opacity:1;" />
<circle cx="40" cy="-30" r="10" style="stroke:#fff;stroke-width:4;fill:#fff;opacity:1;" />
<path class="smile" d="M0 30 L-40 30 
	A 15,15 1 0,0 -40,60 
	L40 60 
	A 15,15 1 0,0 40 30
	L0 30" style="stroke:#fff;stroke-width:12;stroke-linecap:round;fill:#fff;opacity:1;" />
<path class="teeth" d="M-40 30 L-40 60
		M-20 30 L-20 60
		M0 30 L0 60
		M20 30 L20 60
		M40 30 L40 60
		M-60 45 L60 45"
		style="stroke:#000;stroke-width:2;stroke-linecap:round;fill:none;opacity:1;" />
</svg>
