<?xml version="1.0" encoding="UTF-8" standalone="no"?>
<svg width="1600" height="900" viewBox="-800 -450 1600 900" xmlns="http://www.w3.org/2000/svg" xmlns:xlink="http://www.w3.org/1999/xlink" preserveAspectRatio="xMinYMin meet">
<!--
iFLEX Dark blue   #1a488b ( 26,  72, 139)
iFLEX Dark green  #008245 (  0, 130,  69)
iFLEX Light green #78c51b (120, 197,  27)
-->
<style>
.surface {
	cursor: pointer;
	fill: #000;
	fill-opacity: 0;
}
.grid {
	stroke: #00f;
	stroke-width: 1;
	opacity: 0.2;
}
</style>
<defs>
	<radialGradient id="grad" cx="50%" cy="50%" r="100%">
		<stop offset="10%" style="stop-color:#fff; stop-opacity:1" />
		<stop offset="50%" style="stop-color:#eee; stop-opacity:1" />
		<stop offset="90%" style="stop-color:#ddd; stop-opacity:1" />
	</radialGradient>
	<linearGradient id="gradLinear" x1="0%" y1="0%" x2="0%" y2="100%" spreadMethod="pad"> <!-- gradientTransform="rotate(45)" -->
		<stop offset="0%"  stop-color="#999" stop-opacity="1"/>
		<stop offset="15%" stop-color="#ccc" stop-opacity="1"/>
		<stop offset="20%" stop-color="#ccc" stop-opacity="1"/>
		<stop offset="25%" stop-color="#ccc" stop-opacity="1"/>
		<stop offset="100%" stop-color="#777" stop-opacity="1"/>
	</linearGradient>
</defs>

<!-- Horizontal lines -->
<path class="grid" d="M-800,-450 L800,-450 
	M-800,-400 L800,-400 
	M-800,-350 L800,-350 
	M-800,-300 L800,-300 
	M-800,-250 L800,-250 
	M-800,-200 L800,-200 
	M-800,-150 L800,-150 
	M-800,-100 L800,-100 
	M-800,-50 L800,-50 
	M-800,0 L800,0 
	M-800,50 L800,50 
	M-800,100 L800,100 
	M-800,150 L800,150 
	M-800,200 L800,200 
	M-800,250 L800,250 
	M-800,300 L800,300 
	M-800,350 L800,350 
	M-800,400 L800,400 
	M-800,450 L800,450" />

<!-- Vertical lines -->
<path class="grid" d="M-800,-450 L-800,450 
	M-750,-450 L-750,450 
	M-700,-450 L-700,450 
	M-650,-450 L-650,450 
	M-600,-450 L-600,450 
	M-550,-450 L-550,450 
	M-500,-450 L-500,450 
	M-450,-450 L-450,450 
	M-400,-450 L-400,450 
	M-350,-450 L-350,450 
	M-300,-450 L-300,450 
	M-250,-450 L-250,450 
	M-200,-450 L-200,450 
	M-150,-450 L-150,450 
	M-100,-450 L-100,450 
	M-50,-450 L-50,450 
	M0,-450 L0,450 
	M50,-450 L50,450 
	M100,-450 L100,450 
	M150,-450 L150,450 
	M200,-450 L200,450 
	M250,-450 L250,450 
	M300,-450 L300,450 
	M350,-450 L350,450 
	M400,-450 L400,450 
	M450,-450 L450,450 
	M500,-450 L500,450 
	M550,-450 L550,450 
	M600,-450 L600,450 
	M650,-450 L650,450 
	M700,-450 L700,450 
	M750,-450 L750,450 
	M800,-450 L800,450" />

<!-- Big circle -->
<circle cx="0" cy="0" r="240" stroke="#ccc" stroke-width="2" fill="none" />
<circle cx="0" cy="0" r="230" stroke="#ccc" stroke-width="2" fill="none" />

<image x="-200" y="-150" width="400" height="300" xlink:href="user.svg" />

<!-- Line and dot from back-button to user -->
<path d="M-250,-250 L-100,-100" stroke="#1a488b" stroke-width="2" opacity="0.5" fill="none" />
<circle cx="-100" cy="-100" r="5" stroke="#1a488b" stroke-width="2" opacity="0.5" fill="#1a488b" />

<!-- Back-button -->
<g transform="translate(-250,-250)">
	<circle id="target-a-border" cx="0" cy="0" r="100" stroke="#1a488b" stroke-width="2" opacity="0.5" fill="#fff" />
	<circle cx="0" cy="0" r="90" stroke="#1a488b" stroke-width="2" opacity="0.5" fill="#fff" />
	<circle cx="0" cy="0" r="60" stroke="#1a488b" stroke-width="0.5" opacity="1" fill="#fff" />
	<image x="-50" y="-52.5" width="100" height="105" xlink:href="building.svg" />
	<circle id="target-a" class="surface" x="0" y="0" r="100" />
</g>

<!-- Line and dot from LOGOUT to user -->
<path d="M250,-250 L100,-100" stroke="#1a488b" stroke-width="2" opacity="0.5" fill="none" />
<circle cx="100" cy="-100" r="5" stroke="#1a488b" stroke-width="2" opacity="0.5" fill="#1a488b" />
<!-- LOGOUT -->
<g transform="translate(250,-250)">
	<circle id="target-b-border" cx="0" cy="0" r="100" stroke="#1a488b" stroke-width="2" opacity="0.5" fill="#fff" />
	<circle cx="0" cy="0" r="90" stroke="#1a488b" stroke-width="2" opacity="0.5" fill="#fff" />
	<circle cx="0" cy="0" r="60" stroke="#1a488b" stroke-width="0.5" opacity="1" fill="#fff" />
	<image x="-50" y="-37.5" width="100" height="75" xlink:href="logout.svg" />
	<circle id="target-b" class="surface" x="0" y="0" r="100" />
</g>

<!-- Line and dot from to Heating to user -->
<path d="M-250,250 L-150,150" stroke="#1a488b" stroke-width="2" opacity="0.5" fill="none" />
<circle cx="-150" cy="150" r="5" stroke="#1a488b" stroke-width="2" opacity="0.5" fill="#1a488b" />
<!-- Heating -->
<g transform="translate(-250,250)">
	<circle id="target-c-border" cx="0" cy="0" r="100" stroke="#1a488b" stroke-width="2" opacity="0.5" fill="#fff" />
	<circle cx="0" cy="0" r="90" stroke="#1a488b" stroke-width="2" opacity="0.5" fill="#fff" />
	<circle cx="0" cy="0" r="60" stroke="#1a488b" stroke-width="0.5" opacity="1" fill="#fff" />
	<image x="-50" y="-37.5" width="100" height="75" xlink:href="radiator.svg" />
	<circle id="target-c" class="surface" x="0" y="0" r="100" />
</g>

<!-- Line and dot from Feedback to building -->
<path d="M250,250 L150,150" stroke="#1a488b" stroke-width="2" opacity="0.5" fill="none" />
<circle cx="150" cy="150" r="5" stroke="#1a488b" stroke-width="2" opacity="0.5" fill="#1a488b" />
<!-- Feedback -->
<g transform="translate(250,250)">
	<circle id="target-d-border" cx="0" cy="0" r="100" stroke="#1a488b" stroke-width="2" opacity="0.5" fill="#fff" />
	<circle cx="0" cy="0" r="90" stroke="#1a488b" stroke-width="2" opacity="0.5" fill="#fff" />
	<circle cx="0" cy="0" r="60" stroke="#1a488b" stroke-width="0.5" opacity="1" fill="#fff" />
	<image x="-50" y="-37.5" width="100" height="75" xlink:href="feedback.svg" />
	<circle id="target-d" class="surface" x="0" y="0" r="100" />
</g>

</svg>
