<?xml version="1.0" encoding="UTF-8" standalone="no"?>
<svg width="150" height="100" viewBox="-75 -50 150 100" xmlns="http://www.w3.org/2000/svg" xmlns:xlink="http://www.w3.org/1999/xlink" preserveAspectRatio="xMinYMin meet">
<!--
<rect x="-74" y="-49" width="148" height="98" style="stroke:#51b0ce;stroke-width:1px;fill:none;" />
-->
<path d="M0,-45 L50,-45 A20,20 0 0,1 70,-25 L70,25 A20,20 0 0,1 50,45 
		L-50,45 A20,20 0 0,1 -70,25 L-70,-25 A20,20 0 0,1 -50,-45 L0,-45" 
	style="stroke:#ccc;stroke-width:5px;fill:#fff;" />
<!-- Black left arrow -->
<path d="M-40,0 L0,-30 L0,-10 L50,-10 L50,10 L0,10 L0,30 L-40,0 Z" style="stroke:#444;stroke-width:5px;fill:#444;" />
</svg>
