<?xml version="1.0" encoding="UTF-8" standalone="no"?>
<svg width="200" height="100" viewBox="-100 -50 200 100" xmlns="http://www.w3.org/2000/svg" xmlns:xlink="http://www.w3.org/1999/xlink" preserveAspectRatio="xMinYMin meet">

<style>
.title {
	opacity: 1;
	font-family: "Arial, Helvetica, sans-serif";
	font-size: 44px;
	fill: #fff;
	stroke-width: 1;
}
</style>
<!--
<rect x="-99" y="-49" width="198" height="98" style="stroke:#0B7938;stroke-width:1px;fill:#0B7938;" />
-->
<!--

			SPACE_FILL:'#EEF8EB',
			WHITE:'#fff',
			LIGHT_GREEN:'#EEF8EB',
			DARK_GREEN:'#0B7938',
			LIGHT_ORANGE: '#F4D25A',
			DARK_ORANGE:'#EF8806'
		};
-->
<path d="M0,-45 L75,-45 A20,20 0 0,1 95,-25 L95,25 A20,20 0 0,1 75,45
		L-75,45 A20,20 0 0,1 -95,25 L-95,-25 A20,20 0 0,1 -75,-45 L0,-45"
	style="stroke:#0B7938;stroke-width:8px;fill:#0B7938;" />
	
<svg x="-90" y="-20" width="180px" height="44px">
	<!--<rect x="1" y="1" width="178" height="40" stroke="#000" stroke-width="1" opacity="0.2" fill="#ff0" />-->
	<text class="title" x="50%" y="50%" dominant-baseline="middle" text-anchor="middle">OK</text>
</svg>
	
<!--
<path d="M0,-45 L75,-45 A20,20 0 0,1 95,-25 L70,25 A20,20 0 0,1 50,45 
		L-50,45 A20,20 0 0,1 -70,25 L-70,-25 A20,20 0 0,1 -50,-45 L0,-45" 
	style="stroke:#0B7938;stroke-width:6px;fill:#0B7938;" />
	-->
<!-- Black left arrow -->
<!--<path d="M-40,0 L0,-30 L0,-10 L50,-10 L50,10 L0,10 L0,30 L-40,0 Z" style="stroke:#444;stroke-width:5px;fill:#444;" />-->
</svg>
